<svg xmlns="http://www.w3.org/2000/svg" width="80" height="80" viewBox="0 0 80 80">
  <g id="Group_189824" data-name="Group 189824" transform="translate(-6 -6)">
    <path id="Path_130660" data-name="Path 130660" d="M6,46A40,40,0,1,0,46,6,40,40,0,0,0,6,46Z" transform="translate(0 0)" fill="#d9edff"/>
    <path id="Path_130661" data-name="Path 130661" d="M48.852,19.723a6.831,6.831,0,0,0-6.53-7.241,6.62,6.62,0,0,0-4.814,1.775,15.854,15.854,0,0,0-3.528,6.379,15.865,15.865,0,0,0-3.528-6.375,6.6,6.6,0,0,0-4.814-1.779,6.831,6.831,0,0,0-6.53,7.241,6.581,6.581,0,0,0,2.259,4.608C24.922,27.416,32.992,27.946,33.9,28h.159c.909-.05,8.978-.579,12.534-3.664A6.581,6.581,0,0,0,48.852,19.723ZM23.237,22.179a3.753,3.753,0,0,1-1.284-2.628,3.947,3.947,0,0,1,1.017-2.906,4,4,0,0,1,2.787-1.312h.172a3.741,3.741,0,0,1,2.577,1.009c1.541,1.444,2.682,4.647,3.374,7.266a.948.948,0,0,1-1.066,1.182C28.137,24.369,24.835,23.565,23.237,22.179ZM42.2,15.333a4,4,0,0,1,2.787,1.312,3.947,3.947,0,0,1,1.017,2.906,3.749,3.749,0,0,1-1.284,2.628c-1.593,1.379-4.9,2.188-7.575,2.607A.948.948,0,0,1,36.083,23.6c.69-2.617,1.831-5.819,3.375-7.265a3.741,3.741,0,0,1,2.577-1.012A1.573,1.573,0,0,1,42.2,15.333Z" transform="translate(11.017 2.828)" fill="#fff" stroke="#020064" stroke-linecap="round" stroke-linejoin="round" stroke-width="0.6"/>
    <path id="Path_130662" data-name="Path 130662" d="M17.12,45.94c0,1.221,10.555,2.21,23.576,2.21s23.576-.99,23.576-2.21S53.717,43.73,40.7,43.73,17.12,44.719,17.12,45.94Z" transform="translate(4.857 27.514)" fill="#b0d9ff"/>
    <path id="Path_130663" data-name="Path 130663" d="M14.7,22.85H57.057v8.545H14.7Z" transform="translate(8.982 11.781)" fill="#b0d9ff"/>
    <path id="Path_130664" data-name="Path 130664" d="M51.5,51.352H18.58a1.909,1.909,0,0,1-1.909-1.909V28.8H53.408V49.443A1.909,1.909,0,0,1,51.5,51.352Z" transform="translate(9.91 17.745)" fill="#b0d9ff"/>
    <path id="Path_130665" data-name="Path 130665" d="M51.5,51.352H18.58a1.909,1.909,0,0,1-1.909-1.909V28.8H53.408V49.443A1.909,1.909,0,0,1,51.5,51.352Z" transform="translate(9.91 17.745)" fill="none" stroke="#020064" stroke-linecap="round" stroke-linejoin="round" stroke-width="0.6"/>
    <path id="Path_130666" data-name="Path 130666" d="M14.7,22.85H57.057v8.545H14.7Z" transform="translate(8.982 11.781)" fill="none" stroke="#020064" stroke-linecap="round" stroke-linejoin="round" stroke-width="0.6"/>
    <path id="Path_130667" data-name="Path 130667" d="M26.522,28.8h8.429V51.351H26.522Z" transform="translate(14.339 17.745)" fill="#fff"/>
    <path id="Path_130668" data-name="Path 130668" d="M26.522,28.8h8.429V51.351H26.522Z" transform="translate(14.339 17.745)" fill="none" stroke="#020064" stroke-linecap="round" stroke-linejoin="round" stroke-width="0.6"/>
    <path id="Path_130669" data-name="Path 130669" d="M26.522,22.85h8.429v8.545H26.522Z" transform="translate(14.339 11.781)" fill="#fff" stroke="#020064" stroke-linecap="round" stroke-linejoin="round" stroke-width="0.6"/>
    <path id="Path_130670" data-name="Path 130670" d="M37.193,35.093,49.036,50.616a.7.7,0,0,0,.977.131l7.759-5.921a.7.7,0,0,0,.131-.978L46.064,28.327a5.578,5.578,0,1,0-8.87,6.767Zm3.327-2.541a1.394,1.394,0,1,1,1.954.259,1.394,1.394,0,0,1-1.954-.259Z" transform="translate(24.16 16.013)" fill="#fff"/>
    <path id="Path_130671" data-name="Path 130671" d="M38.962,30.438a1.395,1.395,0,1,0,1.395-1.395,1.395,1.395,0,0,0-1.395,1.395Z" transform="translate(22.294 15.585)" fill="none" stroke="#020064" stroke-linecap="round" stroke-linejoin="round" stroke-width="0.6"/>
    <path id="Path_130672" data-name="Path 130672" d="M37.193,35.093,49.036,50.616a.7.7,0,0,0,.977.131l7.759-5.921a.7.7,0,0,0,.131-.978L46.064,28.327a5.578,5.578,0,1,0-8.87,6.767Z" transform="translate(24.16 16.013)" fill="none" stroke="#020064" stroke-linecap="round" stroke-linejoin="round" stroke-width="0.6"/>
    <path id="Path_130673" data-name="Path 130673" d="M43.369,34.117a.948.948,0,0,0,.179-1.332l-2.595-3.4v-.006l-1.571-5.934c-.065-.244-.141-.479-.226-.707a16.7,16.7,0,0,1-1.765.708q.086.234.153.485l1.022,3.859c-.27-.134-.527-.259-.776-.381a12.845,12.845,0,0,1-4.29-2.835,1.983,1.983,0,0,1,.086-2.8,1.922,1.922,0,0,1,1.241-.551,18.676,18.676,0,0,0,2.711-.878,4.243,4.243,0,0,0-1.6-.878,3.735,3.735,0,0,0-3.655.922,3.885,3.885,0,0,0-.164,5.491,14.483,14.483,0,0,0,4.839,3.241c.676.329,1.432.7,2.289,1.158l.015.022,2.772,3.642a.948.948,0,0,0,1.332.179Z" transform="translate(18.008 9.726)" fill="#b0d9ff" stroke="#020064" stroke-linecap="round" stroke-linejoin="round" stroke-width="0.6"/>
  </g>
</svg>
