<svg xmlns="http://www.w3.org/2000/svg" width="78.166" height="68" viewBox="0 0 78.166 68">
  <g id="Group_189825" data-name="Group 189825" transform="translate(-1.184 -6)">
    <path id="Path_130674" data-name="Path 130674" d="M6,40A34,34,0,1,0,40,6,34,34,0,0,0,6,40Z" transform="translate(1.882)" fill="#d9edff"/>
    <path id="Path_130675" data-name="Path 130675" d="M18.054,48.587c0,.888,7.2,1.608,16.085,1.608s16.085-.72,16.085-1.608-7.2-1.608-16.085-1.608S18.054,47.7,18.054,48.587Z" transform="translate(6.904 17.074)" fill="#b0d9ff"/>
    <path id="Path_130676" data-name="Path 130676" d="M28.118,45.732l-2.831.34A1.425,1.425,0,0,1,23.7,44.826L19.8,13.8a1.427,1.427,0,0,1,1.246-1.585l2.832-.34a1.426,1.426,0,0,1,1.584,1.246l3.9,31.025a1.426,1.426,0,0,1-1.246,1.59Z" transform="translate(7.629 2.442)" fill="#fff" stroke="#020064" stroke-linecap="round" stroke-linejoin="round" stroke-width="0.6"/>
    <path id="Path_130677" data-name="Path 130677" d="M20.4,18.169l5.67-.62-.36-2.859-5.669.616Z" transform="translate(7.731 3.621)" fill="#fff" stroke="#020064" stroke-linecap="round" stroke-linejoin="round" stroke-width="0.6"/>
    <path id="Path_130678" data-name="Path 130678" d="M41.049,31.152H25.409a1.19,1.19,0,0,1-1.162-1.421l2.38-11.881a1.19,1.19,0,0,1,1.165-.955h10.88a1.19,1.19,0,0,1,1.165.955L42.213,29.73a1.19,1.19,0,0,1-1.165,1.421Z" transform="translate(9.475 4.539)" fill="#b0d9ff"/>
    <path id="Path_130679" data-name="Path 130679" d="M15.989,26.769a5.346,5.346,0,1,0,5.346-5.347,5.346,5.346,0,0,0-5.346,5.347Z" transform="translate(6.043 6.426)" fill="#fff" stroke="#020064" stroke-linecap="round" stroke-linejoin="round" stroke-width="0.6"/>
    <path id="Path_130680" data-name="Path 130680" d="M41.049,31.152H25.409a1.19,1.19,0,0,1-1.162-1.421l2.38-11.881a1.19,1.19,0,0,1,1.165-.955h10.88a1.19,1.19,0,0,1,1.165.955L42.213,29.73a1.19,1.19,0,0,1-1.165,1.421Z" transform="translate(9.475 4.539)" fill="none" stroke="#020064" stroke-linecap="round" stroke-linejoin="round" stroke-width="0.6"/>
    <path id="Path_130681" data-name="Path 130681" d="M28.569,19.787V16.223a2.852,2.852,0,1,1,5.7,0v3.564" transform="translate(11.285 3.071)" fill="none" stroke="#020064" stroke-linecap="round" stroke-linejoin="round" stroke-width="0.6"/>
    <path id="Path_130682" data-name="Path 130682" d="M16.029,23.94A2.852,2.852,0,0,0,13.3,27.63l3.948,12.835a2.853,2.853,0,0,0,2.726,2.005H46.4a1.391,1.391,0,0,1,.02-.3L50.307,23.94Z" transform="translate(4.872 7.475)" fill="#fff"/>
    <path id="Path_130683" data-name="Path 130683" d="M24.208,45.913a2.852,2.852,0,1,1-2.848-2.852A2.852,2.852,0,0,1,24.208,45.913Z" transform="translate(7.092 15.442)" fill="#fff" stroke="#020064" stroke-width="0.6"/>
    <path id="Path_130684" data-name="Path 130684" d="M41.317,45.913a2.852,2.852,0,1,1-2.851-2.852,2.852,2.852,0,0,1,2.851,2.852Z" transform="translate(14.22 15.442)" fill="#fff" stroke="#020064" stroke-width="0.6"/>
    <path id="Path_130685" data-name="Path 130685" d="M16.029,23.94A2.852,2.852,0,0,0,13.3,27.63l3.948,12.835a2.853,2.853,0,0,0,2.726,2.005H46.4a1.391,1.391,0,0,1,.02-.3L50.307,23.94Z" transform="translate(4.872 7.475)" fill="none" stroke="#020064" stroke-linejoin="round" stroke-width="0.6"/>
    <path id="Path_130686" data-name="Path 130686" d="M40.646,19.158h7.843a2.139,2.139,0,0,0,0-4.277H43.5a2.852,2.852,0,0,0-2.853,2.852Z" transform="translate(16.317 3.7)" fill="#fff"/>
    <path id="Path_130687" data-name="Path 130687" d="M49.924,45.877l-1.909-1.468L53.665,17.9H50.751L45.038,44.693a1.427,1.427,0,0,0,.526,1.427l2.622,2.018a1.425,1.425,0,0,1-.869,2.555h-29.4a1.425,1.425,0,0,0,0,2.851h29.4a4.277,4.277,0,0,0,2.606-7.668Z" transform="translate(6.253 4.958)" fill="#b0d9ff" stroke="#020064" stroke-linejoin="round" stroke-width="0.6"/>
    <path id="Path_130688" data-name="Path 130688" d="M40.646,19.158h7.843a2.139,2.139,0,0,0,0-4.277H43.5a2.852,2.852,0,0,0-2.853,2.852Z" transform="translate(16.317 3.7)" fill="none" stroke="#020064" stroke-linejoin="round" stroke-width="0.6"/>
    <path id="Path_130689" data-name="Path 130689" d="M40.6,34H18.5" transform="translate(7.092 11.668)" fill="none" stroke="#020064" stroke-linecap="round" stroke-linejoin="round" stroke-width="0.6"/>
    <path id="Path_130690" data-name="Path 130690" d="M42.093,30.984H17.5" transform="translate(6.672 10.41)" fill="none" stroke="#020064" stroke-linecap="round" stroke-linejoin="round" stroke-width="0.6"/>
    <path id="Path_130691" data-name="Path 130691" d="M43.581,27.964H16.492" transform="translate(6.253 9.152)" fill="none" stroke="#020064" stroke-linecap="round" stroke-linejoin="round" stroke-width="0.6"/>
    <path id="Path_130767" data-name="Path 130767" d="M50.772,26.021H30.225" transform="translate(28.278 13.494)" fill="none" stroke="#020064" stroke-linecap="round" stroke-linejoin="round" stroke-width="0.6"/>
    <path id="Path_130772" data-name="Path 130772" d="M30.225,26.021H50.772" transform="translate(-28.741 -10.386)" fill="none" stroke="#020064" stroke-linecap="round" stroke-linejoin="round" stroke-width="0.6"/>
    <path id="Path_130768" data-name="Path 130768" d="M48.052,27.41H31.614" transform="translate(26.89 16.213)" fill="none" stroke="#020064" stroke-linecap="round" stroke-linejoin="round" stroke-width="0.6"/>
    <path id="Path_130771" data-name="Path 130771" d="M31.614,27.41H48.052" transform="translate(-26.021 -7.669)" fill="none" stroke="#020064" stroke-linecap="round" stroke-linejoin="round" stroke-width="0.6"/>
    <path id="Path_130769" data-name="Path 130769" d="M45.332,28.8H33" transform="translate(25.501 18.922)" fill="none" stroke="#020064" stroke-linecap="round" stroke-linejoin="round" stroke-width="0.6"/>
    <path id="Path_130773" data-name="Path 130773" d="M33,28.8H45.332" transform="translate(-23.302 -4.961)" fill="none" stroke="#020064" stroke-linecap="round" stroke-linejoin="round" stroke-width="0.6"/>
    <path id="Path_130770" data-name="Path 130770" d="M42.611,30.188H34.393" transform="translate(24.11 21.642)" fill="none" stroke="#020064" stroke-linecap="round" stroke-linejoin="round" stroke-width="0.6"/>
    <path id="Path_130774" data-name="Path 130774" d="M34.393,30.188h8.218" transform="translate(-20.579 -2.241)" fill="none" stroke="#020064" stroke-linecap="round" stroke-linejoin="round" stroke-width="0.6"/>
  </g>
</svg>
