<svg id="Component_52_2" data-name="Component 52 – 2" xmlns="http://www.w3.org/2000/svg" xmlns:xlink="http://www.w3.org/1999/xlink" width="289.862" height="237.555" viewBox="0 0 289.862 237.555">
  <defs>
    <clipPath id="clip-path">
      <rect id="Rectangle_151018" data-name="Rectangle 151018" width="289.862" height="237.555" fill="none"/>
    </clipPath>
    <clipPath id="clip-path-3">
      <rect id="Rectangle_151010" data-name="Rectangle 151010" width="34.977" height="71.252" fill="none"/>
    </clipPath>
  </defs>
  <g id="Group_191498" data-name="Group 191498" clip-path="url(#clip-path)">
    <g id="Group_191497" data-name="Group 191497">
      <g id="Group_191496" data-name="Group 191496" clip-path="url(#clip-path)">
        <path id="Path_170441" data-name="Path 170441" d="M252.783,131.261q-.564,2.965-1.353,5.87c-.057.225-.121.446-.184.671,0,0-2.484,7.184-2.486,8.481L241.584,161c-.221.413-.446.822-.671,1.232-1.161,2.114-2.37,4.205-3.6,6.269a238.317,238.317,0,0,1-81.781,81.734l1.987-4.484-2.188-.151c-15.857-1.084-31.767-2.285-47.252-5.849-16.2-3.728-32.045-10.2-44.741-20.918s-22.008-26.042-23.3-42.614a48.626,48.626,0,0,1,1.7-16.917c2.977-10.578,9.481-20.1,18.864-25.727,14.739-8.843,33.965-7.041,49.5.315s28.18,19.525,40.527,31.486a156.535,156.535,0,0,0-50.644-52.863c-6.9-4.416-14.223-8.349-20.089-14.071S69.706,84.7,70.743,76.58c1.178-9.216,8.725-16.209,16.286-21.6,3.02-2.154,6.138-4.2,9.353-6.077,9.071-5.316,18.884-9.327,29.247-10.813,14.038-2.017,29.2,1.044,39.963,10.279,12.125,10.407,17.1,27.19,16.626,43.245,7.47-10.86,18.991-19.173,32-19.525,13.507-.362,26.347,8.172,33.113,19.87s7.977,26.032,5.45,39.3" transform="translate(-21.149 -19.877)" fill="#e6e6e6" opacity="0.57"/>
        <path id="Path_170442" data-name="Path 170442" d="M310.516,208.875a109.165,109.165,0,0,0,20.775-3.341c6.745-1.909,13.237-5.1,18.039-10.322,5.165-5.612,7.954-12.9,9.92-20.155,1.1-4.045,2-8.147,2.848-12.25q1.384-6.677,2.46-13.414,2.141-13.41,3.056-26.977.111-1.647.2-3.295c.038-.678-1.016-.676-1.054,0q-.753,13.373-2.707,26.643c-1.286,8.692-2.931,17.345-5.018,25.881-1.768,7.231-4.057,14.575-8.593,20.595-4.252,5.645-10.395,9.334-17.027,11.539-6.749,2.245-13.865,3.141-20.916,3.807-.866.082-1.122.159-1.987.236-.67.059-.677,1.114,0,1.054" transform="translate(-164.345 -62.88)" fill="#fff"/>
        <path id="Path_170443" data-name="Path 170443" d="M69.182,278.211A114.247,114.247,0,0,1,95.9,282.919a115.438,115.438,0,0,1,24.882,10.831,112.654,112.654,0,0,1,20.954,15.776A115.41,115.41,0,0,1,158.1,329.041a114.258,114.258,0,0,1,11.713,22.706q.557,1.466,1.072,2.946c.222.637,1.241.363,1.016-.28a115.32,115.32,0,0,0-11.189-23.271,116.836,116.836,0,0,0-16.055-20.226,113.923,113.923,0,0,0-20.5-16.357A116.338,116.338,0,0,0,72.5,277.386q-1.659-.14-3.322-.229C68.5,277.12,68.507,278.174,69.182,278.211Z" transform="translate(-36.406 -146.928)" fill="#fff"/>
        <path id="Path_170444" data-name="Path 170444" d="M174.229,65.911a62.064,62.064,0,0,1,16.3,7.965,76.5,76.5,0,0,1,13.914,12.356,102.386,102.386,0,0,1,11.521,15.878,135.433,135.433,0,0,1,9.161,18.624,168.578,168.578,0,0,1,6.671,20.257,189.411,189.411,0,0,1,4.266,21.165,188.917,188.917,0,0,1,1.836,21.285,168.667,168.667,0,0,1-.6,20.418,130.1,130.1,0,0,1-3.065,18.8,88.867,88.867,0,0,1-5.531,16.254q-.822,1.78-1.743,3.51c-.319.6.591,1.131.91.532a81.262,81.262,0,0,0,6.225-15.667,121.336,121.336,0,0,0,3.712-18.431,160.358,160.358,0,0,0,1.226-20.377,186.993,186.993,0,0,0-1.276-21.413,192.8,192.8,0,0,0-3.714-21.4,174.568,174.568,0,0,0-6.209-20.837,144.967,144.967,0,0,0-8.634-19.176,111.161,111.161,0,0,0-11.071-16.71,82.386,82.386,0,0,0-13.525-13.4A65.4,65.4,0,0,0,178.738,66.4q-2.086-.83-4.229-1.5c-.648-.2-.926.813-.28,1.016" transform="translate(-92.169 -34.388)" fill="#fff"/>
        <path id="Path_170445" data-name="Path 170445" d="M269,482.913c57.607.1,104.3,3.433,104.294,7.439s-46.713,7.169-104.32,7.066-104.3-3.433-104.294-7.439S211.4,482.81,269,482.913" transform="translate(-103.628 -257.935)" fill="#e6e6e6" opacity="0.49"/>
        <g id="Group_191480" data-name="Group 191480" transform="translate(26.079 162.654)" opacity="0.7">
          <g id="Group_191479" data-name="Group 191479">
            <g id="Group_191478" data-name="Group 191478" clip-path="url(#clip-path-3)">
              <path id="Path_170446" data-name="Path 170446" d="M92.179,357.7l4.383-3.47a18.038,18.038,0,0,0-3.2-8.068c-.314,5.209-5.773,8.527-7.771,13.348a10.848,10.848,0,0,0,.591,9.385l.3,3.954a18.179,18.179,0,0,0,9.7-11.729,17.566,17.566,0,0,0,.543-4.372c-2.205.593-4.551.951-4.551.951" transform="translate(-71.033 -346.166)" fill="#a061f7"/>
              <path id="Path_170447" data-name="Path 170447" d="M69.65,437.133c-1.748.4-3.275.635-3.275.635l2.7-2.141a10.109,10.109,0,0,1-.547-5.46,17.914,17.914,0,0,0-.491,27.555l1.344-3.73A10.849,10.849,0,0,0,72.46,445.1c-.341-2.757-1.739-5.365-2.809-7.971" transform="translate(-58.85 -390.697)" fill="#a061f7"/>
              <path id="Path_170448" data-name="Path 170448" d="M67.28,351.6a30.211,30.211,0,0,0-2.609,2.589l1.4-3.224a3.87,3.87,0,0,0-3.245.216,4.321,4.321,0,0,0-1.972,3.316,7.258,7.258,0,0,0,.833,3.864,11.22,11.22,0,0,0,5.025,5.032,16.549,16.549,0,0,0,2.492-5.287,6.8,6.8,0,0,0-1.046-5.679,4.456,4.456,0,0,0-.875-.827" transform="translate(-58.33 -348.573)" fill="#a061f7"/>
              <path id="Path_170449" data-name="Path 170449" d="M104.389,418.205l4.063-3.216a17.71,17.71,0,0,0,.139-5.526c-2.73,4.448-9.108,4.8-13.141,8.116a10.849,10.849,0,0,0-3.9,8.558l-1.6,3.629a18.179,18.179,0,0,0,14.082-5.778,17.923,17.923,0,0,0,3.763-6.449c-1.8.421-3.411.666-3.411.666" transform="translate(-73.767 -379.721)" fill="#a061f7"/>
              <path id="Path_170450" data-name="Path 170450" d="M70.589,427.334q-1.164,1.5-2.466,2.89c.322.1.636.192.944.287q1.141-1.239,2.176-2.567.173-.222.346-.453a42.284,42.284,0,0,0,3.393-5.224,43.082,43.082,0,0,0,4.264-11.16c.018-.068.032-.133.047-.2.24-1.072.438-2.156.592-3.242.032-.219.062-.441.092-.661q.111-.9.187-1.8a41.031,41.031,0,0,0,.018-6.585,42.957,42.957,0,0,0-2.327-10.988c-.089-.252-.178-.5-.275-.752-.054-.148-.109-.3-.166-.444a42.962,42.962,0,0,0-6.145-10.862c-.094-.121-.189-.24-.284-.358q-.337-.422-.684-.835a.384.384,0,0,0-.625.03.454.454,0,0,0-.006.6c.187.222.373.447.551.675.222.269.435.545.642.823a42.169,42.169,0,0,1,8.3,20.707,41.1,41.1,0,0,1-.826,13.866h0a41.737,41.737,0,0,1-2.709,7.957q-.351.763-.731,1.513a41.336,41.336,0,0,1-2.174,3.787q-1,1.55-2.129,3" transform="translate(-62.193 -361.043)" fill="#3f3d56"/>
              <path id="Path_170451" data-name="Path 170451" d="M56.059,494.915a25.467,25.467,0,0,1,11.608.67.445.445,0,0,0,.236-.857,26.48,26.48,0,0,0-12.08-.67C55.261,494.157,55.5,495.014,56.059,494.915Z" transform="translate(-55.502 -424.353)" fill="#ccc"/>
            </g>
          </g>
        </g>
        <path id="Path_170458" data-name="Path 170458" d="M178.89,25.187a14,14,0,1,1-14,14,14,14,0,0,1,14-14" transform="translate(83.437 -5.178)" fill="#ecdeff" opacity="0.49"/>
        <path id="Path_170459" data-name="Path 170459" d="M227.45,21.825H190.734a1.972,1.972,0,0,1-1.967-1.967V1.968A1.973,1.973,0,0,1,190.734,0h36.715a1.973,1.973,0,0,1,1.968,1.968v17.89a1.973,1.973,0,0,1-1.967,1.968" transform="translate(-100.07)" fill="#fff"/>
        <path id="Path_170460" data-name="Path 170460" d="M227.449,21.825H190.734a1.973,1.973,0,0,1-1.968-1.967V1.967A1.972,1.972,0,0,1,190.733,0h36.715a1.973,1.973,0,0,1,1.968,1.967v17.89a1.972,1.972,0,0,1-1.967,1.967M190.734.549a1.423,1.423,0,0,0-1.419,1.419v17.89a1.423,1.423,0,0,0,1.419,1.419h36.715a1.423,1.423,0,0,0,1.419-1.419V1.968A1.423,1.423,0,0,0,227.449.549Z" transform="translate(-100.07)" fill="#3f3d56"/>
        <path id="Path_170461" data-name="Path 170461" d="M214.776,21.823c-7.241,0-14.792-.069-17.609-.114a1.42,1.42,0,0,1-1.391-1.415V5.486a.5.5,0,0,1,.5-.5h33.063a.5.5,0,0,1,.5.5V15.532a6.268,6.268,0,0,1-6.163,6.244c-2.626.034-5.735.047-8.9.047" transform="translate(-103.786 -2.642)" fill="#d8befe"/>
        <path id="Path_170462" data-name="Path 170462" d="M224.139,11.969H194.264a1.218,1.218,0,0,1-1.143-.806L189.74,1.677A1.213,1.213,0,0,1,190.881.056L228.223,0a1.214,1.214,0,0,1,1.2,1.427l.029.012-.107.25v0l-4.087,9.538a1.211,1.211,0,0,1-1.114.736M228.225.553,190.882.6a.665.665,0,0,0-.625.888l3.381,9.486a.667.667,0,0,0,.626.441h29.874a.661.661,0,0,0,.609-.4l4.088-9.538.2.086-.2-.086a.664.664,0,0,0-.611-.926" transform="translate(-100.549 -0.002)" fill="#3f3d56"/>
        <path id="Path_170463" data-name="Path 170463" d="M229.266,19.905a2.339,2.339,0,1,1-2.339,2.339,2.339,2.339,0,0,1,2.339-2.339" transform="translate(-120.3 -10.552)" fill="#fff"/>
        <path id="Path_170464" data-name="Path 170464" d="M473.069,168.088H413.947a3.479,3.479,0,0,1-3.236-4.768c2.143-5.354,5.028-18.2.276-44.073-5.612-30.553-.588-41.595,1.833-44.924a3.494,3.494,0,0,1,2.818-1.435h59.985a3.48,3.48,0,0,1,3.347,4.444c-2.5,8.652-7.656,31.578-1.477,57.527,4.684,19.673,2.432,27.7-.282,30.965a5.61,5.61,0,0,1-4.141,2.264" transform="translate(-216.52 -38.64)" fill="#fff"/>
        <path id="Path_170465" data-name="Path 170465" d="M473.069,168.088H413.947a3.479,3.479,0,0,1-3.236-4.768c2.143-5.354,5.028-18.2.276-44.073-5.612-30.553-.588-41.595,1.833-44.924a3.494,3.494,0,0,1,2.818-1.435h59.985a3.48,3.48,0,0,1,3.347,4.444c-2.5,8.652-7.656,31.578-1.477,57.527,4.684,19.673,2.432,27.7-.282,30.965A5.61,5.61,0,0,1,473.069,168.088Z" transform="translate(-216.52 -38.64)" fill="none" stroke="#999" stroke-width="1"/>
        <path id="Path_170466" data-name="Path 170466" d="M473.927,124.259H426.845a2.369,2.369,0,1,1,0-4.738h47.081a2.369,2.369,0,1,1,0,4.738" transform="translate(-225.026 -63.361)" fill="#a061f7"/>
        <path id="Path_170467" data-name="Path 170467" d="M448.9,100.058H426.7a2.369,2.369,0,1,1,0-4.738H448.9a2.369,2.369,0,1,1,0,4.738" transform="translate(-224.947 -50.532)" fill="#d8befe"/>
        <path id="Path_170468" data-name="Path 170468" d="M473.927,145.686H426.845a2.369,2.369,0,1,1,0-4.738h47.081a2.369,2.369,0,1,1,0,4.738" transform="translate(-225.026 -74.72)" fill="#ccc"/>
        <path id="Path_170469" data-name="Path 170469" d="M473.927,167.112H426.845a2.369,2.369,0,1,1,0-4.738h47.081a2.369,2.369,0,1,1,0,4.738" transform="translate(-225.026 -86.079)" fill="#ccc"/>
        <path id="Path_170470" data-name="Path 170470" d="M481.488,188.539H434.407a2.369,2.369,0,1,1,0-4.738h47.081a2.369,2.369,0,1,1,0,4.738" transform="translate(-229.035 -97.438)" fill="#ccc"/>
        <path id="Path_170471" data-name="Path 170471" d="M481.488,209.965H434.407a2.369,2.369,0,1,1,0-4.738h47.081a2.369,2.369,0,1,1,0,4.738" transform="translate(-229.035 -108.796)" fill="#ccc"/>
        <path id="Path_170472" data-name="Path 170472" d="M469.7,240.156c.478-2.024,2.723-2.687,4.56-2.613a19.466,19.466,0,0,1,3.438.544c1.18.264,2.348.577,3.51.908,2.131.608,4.241,1.343,6.408,1.818a11.135,11.135,0,0,0,5.563.081,5.278,5.278,0,0,0,3.666-3.6,3.6,3.6,0,0,0-1.793-4.283,2.99,2.99,0,0,0-4.094,1.239,4.5,4.5,0,0,0,1.312,5.022,14.729,14.729,0,0,0,2.44,1.853,9.088,9.088,0,0,0,2.921,1.308,4.217,4.217,0,0,0,4.637-1.81,3.056,3.056,0,0,0,.347-1.2c.052-.569-.836-.565-.889,0-.15,1.63-2.058,2.393-3.485,2.214a7.074,7.074,0,0,1-2.7-1.049,15.813,15.813,0,0,1-2.238-1.579c-1.21-1.048-2.345-2.771-1.532-4.406a2.22,2.22,0,0,1,3.437-.46c1.271,1.04,1.045,2.926.206,4.161a5.208,5.208,0,0,1-4.2,2,16.424,16.424,0,0,1-5.08-.8c-2.047-.581-4.073-1.232-6.13-1.779-1.168-.311-2.344-.591-3.533-.809a11.671,11.671,0,0,0-3.426-.237,4.64,4.64,0,0,0-4.2,3.226C468.71,240.476,469.566,240.713,469.7,240.156Z" transform="translate(-248.538 -123.346)" fill="#3f3d56"/>
        <path id="Path_170473" data-name="Path 170473" d="M392.178,243.8a4.033,4.033,0,0,0-.091.624l-16.327,9.419-3.969-2.285L367.56,257.1l8.49,6.051,18.627-14.7a3.989,3.989,0,1,0-2.357-5.126,3.936,3.936,0,0,0-.142.473" transform="translate(-194.853 -127.613)" fill="#ffb8b8"/>
        <path id="Path_170474" data-name="Path 170474" d="M338.417,249.207l12.856,9.163,5.75-7.209-12.5-10.028a5.064,5.064,0,0,0-7.12.78c-.06.075-.118.152-.174.23a5.064,5.064,0,0,0,1.185,7.063" transform="translate(-178.277 -127.24)" fill="#a061f7"/>
        <path id="Path_170475" data-name="Path 170475" d="M284.335,462.463l4.508,1.181,6.7-16.824-6.653-1.744Z" transform="translate(-150.734 -235.947)" fill="#ffb8b8"/>
        <path id="Path_170476" data-name="Path 170476" d="M294.113,487.986l-14.167-3.712,1.434-5.474,8.693,2.278A5.658,5.658,0,0,1,294.113,487.986Z" transform="translate(-148.407 -253.824)" fill="#2f2e41"/>
        <path id="Path_170477" data-name="Path 170477" d="M366.048,467.583l4.587-.82-.978-18.084-6.77,1.209Z" transform="translate(-192.376 -237.857)" fill="#ffb8b8"/>
        <path id="Path_170478" data-name="Path 170478" d="M382.435,487.606l-14.417,2.575-1-5.57,8.847-1.58A5.659,5.659,0,0,1,382.435,487.606Z" transform="translate(-194.569 -256.02)" fill="#2f2e41"/>
        <path id="Path_170479" data-name="Path 170479" d="M341.359,204.587a4.377,4.377,0,0,1,2.6,2.761,19.253,19.253,0,0,1,1.028,4.338c.434,2.758.851,5.744-.047,8.3-1.052,2.994-3.855,4.562-6.286,3.825s-4.365-3.5-5.026-6.687a16.2,16.2,0,0,1,1.112-9.534,7.753,7.753,0,0,1,2.908-3.733,2.87,2.87,0,0,1,3.827.8" transform="translate(-176.72 -107.85)" fill="#2f2e41"/>
        <path id="Path_170480" data-name="Path 170480" d="M320.508,306.354l9.027,80.854-7.455,2.831-13.751-54.219L289.184,385.4l-8.161.453s11.2-77.137,19.5-78.89Z" transform="translate(-148.978 -162.406)" fill="#2f2e41"/>
        <path id="Path_170481" data-name="Path 170481" d="M337.857,187.387a9.335,9.335,0,1,1-9.335,9.335,9.335,9.335,0,0,1,9.335-9.335" transform="translate(-174.158 -99.339)" fill="#ffb8b8"/>
        <path id="Path_170482" data-name="Path 170482" d="M337.63,233.973l-10.088-1.316s-6.579,7.895-6.141,21.492-.866,14.251-.866,14.251l21.058-.739c-3.694-3.695,9.423-23.562-3.963-33.689" transform="translate(-169.924 -123.338)" fill="#a061f7"/>
        <path id="Path_170483" data-name="Path 170483" d="M343.036,297.452a4.014,4.014,0,0,0-.628.054L329.5,283.767l1.316-4.386-6.36-2.851-3.947,9.649,18.568,14.77a3.989,3.989,0,1,0,4.45-3.467A3.924,3.924,0,0,0,343.036,297.452Z" transform="translate(-169.911 -146.596)" fill="#ffb8b8"/>
        <path id="Path_170484" data-name="Path 170484" d="M331.623,243.281l-5.978,14.612,8.334,3.948,6.9-14.461a5.064,5.064,0,0,0-2.389-6.752q-.13-.062-.264-.117a5.065,5.065,0,0,0-6.605,2.77" transform="translate(-172.633 -127.301)" fill="#a061f7"/>
        <path id="Path_170485" data-name="Path 170485" d="M326.35,202.765c1.463-.844,1.619-2.879,1.42-4.556s-.531-3.547.455-4.918c1.177-1.636,3.54-1.669,5.555-1.722s4.469-.644,4.991-2.59a3.469,3.469,0,0,0-1.452-3.474,10.186,10.186,0,0,0-3.672-1.5c-2.881-.759-5.856-1.524-8.805-1.107a11.226,11.226,0,0,0-9.564,12.535c.477,3.744,1.17,5.38.715,7.03-.846,3.075-4.5,5.051-4.57,8.239-.057,2.494,2.146,4.418,4.3,5.685a14.412,14.412,0,0,0,5.509,2.092,7.025,7.025,0,0,0,5.544-1.547c1.888-1.717,2.355-4.587,1.813-7.081a21.675,21.675,0,0,0-3.3-6.86" transform="translate(-165.093 -96.894)" fill="#2f2e41"/>
        <path id="Path_170486" data-name="Path 170486" d="M12.389,122.074A12.389,12.389,0,1,1,0,134.463a12.389,12.389,0,0,1,12.389-12.389" transform="translate(0 -64.715)" fill="#f0f0f0"/>
        <path id="Path_170487" data-name="Path 170487" d="M56.611,148.816v28.093a2.215,2.215,0,0,1-2.192,2.215H51.126a9.864,9.864,0,0,1-9.865-9.864V148.816a2.216,2.216,0,0,1,2.216-2.216H44.8c-.614,1.791,7.716,2.544,8.173,0h1.419a2.216,2.216,0,0,1,2.216,2.216" transform="translate(-21.874 -77.716)" fill="#d8befe"/>
        <path id="Path_170488" data-name="Path 170488" d="M53.28,141.8a.291.291,0,0,1,.29-.29h1.975a.29.29,0,0,1,0,.581H53.57a.291.291,0,0,1-.29-.29" transform="translate(-28.245 -75.019)" fill="#a061f7"/>
        <path id="Path_170489" data-name="Path 170489" d="M52.127,178.668H39.637a3.659,3.659,0,0,1-3.655-3.655V155.375a.531.531,0,0,1-.221-.432v-1.975a.531.531,0,0,1,.221-.432v-.53a.532.532,0,0,1-.221-.432V149.6a.532.532,0,0,1,.221-.432v-.958a.53.53,0,0,1-.28-.468v-1.975a.531.531,0,0,1,.28-.468v-2.625a3.66,3.66,0,0,1,3.655-3.655h12.49a3.659,3.659,0,0,1,3.655,3.655v5.722a.457.457,0,0,1,.215.388v3.766a.459.459,0,0,1-.215.389v22.077a3.658,3.658,0,0,1-3.655,3.655M39.637,139.5a3.173,3.173,0,0,0-3.169,3.169v3.038l-.234.009a.048.048,0,0,0-.046.047v1.975a.048.048,0,0,0,.046.047l.234.009v1.712l-.185.046a.048.048,0,0,0-.037.046v1.975a.048.048,0,0,0,.037.046l.185.046v1.212l-.185.046a.048.048,0,0,0-.037.045v1.975a.047.047,0,0,0,.037.045l.185.046v19.98a3.173,3.173,0,0,0,3.169,3.169h12.49a3.172,3.172,0,0,0,3.169-3.169V152.52h.215v-3.711H55.3v-6.138a3.172,3.172,0,0,0-3.169-3.169Z" transform="translate(-18.927 -73.696)"/>
        <path id="Path_170490" data-name="Path 170490" d="M60.122,141.511a.29.29,0,1,1-.29.29.291.291,0,0,1,.29-.29" transform="translate(-31.719 -75.019)" fill="#a061f7"/>
        <path id="Path_170491" data-name="Path 170491" d="M55.43,200.118a2.071,2.071,0,1,1-2.071,2.071,2.071,2.071,0,0,1,2.071-2.071" transform="translate(-28.287 -106.088)" fill="#fff"/>
        <path id="Path_170492" data-name="Path 170492" d="M482.161,355.83a9.744,9.744,0,1,1-9.745,9.745,9.745,9.745,0,0,1,9.745-9.745" transform="translate(-254.722 -184.645)" fill="#f0f0f0"/>
        <path id="Path_170493" data-name="Path 170493" d="M473.953,366.96l-4.351-4.3a2.271,2.271,0,0,0-1.611-.661h-.016a2.276,2.276,0,0,0-1.616.68,5.348,5.348,0,0,0-.093,7.421c.046.05.093.1.141.145a5.209,5.209,0,0,0,.872.7,5.287,5.287,0,0,0,2.887.847h.032a5.317,5.317,0,0,0,3.774-1.59A2.3,2.3,0,0,0,473.953,366.96Zm-.252,2.975a4.985,4.985,0,0,1-6.26.665,5.134,5.134,0,0,1-.766-.621,4.968,4.968,0,0,1-.044-7.026,1.893,1.893,0,0,1,1.349-.567h.012a1.891,1.891,0,0,1,1.341.55l4.351,4.3A1.912,1.912,0,0,1,473.7,369.934Z" transform="translate(-246.411 -191.907)" fill="#3f3d56"/>
        <path id="Path_170494" data-name="Path 170494" d="M443.575,336.956l-4.351-4.3a2.281,2.281,0,0,0-1.611-.661H437.6a2.281,2.281,0,0,0-1.618.682,5.364,5.364,0,0,0-.9,6.305l0,0a5.251,5.251,0,0,0,.827,1.133c.037.042.078.084.121.126a5.318,5.318,0,0,0,3.758,1.544h.034A5.325,5.325,0,0,0,443.6,340.2,2.293,2.293,0,0,0,443.575,336.956Zm-.252,2.975a4.938,4.938,0,0,1-3.5,1.477h-.032a4.968,4.968,0,0,1-3.533-8.459,1.912,1.912,0,0,1,2.7-.017l4.351,4.3a1.914,1.914,0,0,1,.016,2.7" transform="translate(-230.308 -176)" fill="#3f3d56"/>
        <path id="Path_170495" data-name="Path 170495" d="M475.413,369.539l-4.8-4.737a1.667,1.667,0,0,0-2.355.015,4.2,4.2,0,0,0,5.974,5.915l.007-.008Z" transform="translate(-247.593 -193.136)" fill="#d8befe"/>
        <path id="Path_170496" data-name="Path 170496" d="M445.036,339.536l-4.8-4.737a1.667,1.667,0,0,0-2.355.015,4.2,4.2,0,1,0,5.977,5.912l0,0Z" transform="translate(-231.49 -177.231)" fill="#d8befe"/>
        <path id="Path_170497" data-name="Path 170497" d="M453.134,361.8l-.115.3q-.809-.307-1.567-.615c-8.958-3.655-13.234-7.933-16.094-16.054l0,0q-.2-.573-.4-1.173l.3-.1a4.9,4.9,0,0,0,.439,1.1q.235.668.484,1.3c2.688,6.854,6.653,10.771,14.254,14.078q.574.25,1.175.495a4.982,4.982,0,0,0,1.519.661" transform="translate(-230.584 -182.45)" fill="#3f3d56"/>
        <rect id="Rectangle_151016" data-name="Rectangle 151016" width="0.382" height="13.948" transform="translate(208.569 165.713) rotate(-45.349)" fill="#3f3d56"/>
      </g>
    </g>
  </g>
</svg>
