<svg xmlns="http://www.w3.org/2000/svg" width="95.669" height="95.669" viewBox="0 0 95.669 95.669">
  <g id="Group_191548" data-name="Group 191548" transform="translate(287 -5.666)">
    <g id="file-icon" transform="translate(-287 5.666)">
      <path id="Path_170649" data-name="Path 170649" d="M47.834,0A47.834,47.834,0,1,1,0,47.834,47.834,47.834,0,0,1,47.834,0Z" fill="#fff"/>
    </g>
    <path id="cookies" d="M56.818,27.966a7.173,7.173,0,0,0,3.8,3.216c1.357.367,2.944.034,4.814-1.119a1.59,1.59,0,0,1,2.2.527,1.621,1.621,0,0,1,.238.816q.107,1.168.133,2.37c.017.813.01,1.618-.027,2.421h0a1.394,1.394,0,0,1-.017.211A33.893,33.893,0,0,1,56.886,59.733a33.553,33.553,0,0,1-24.249,8.728v.007h0a1.43,1.43,0,0,1-.211-.017A33.869,33.869,0,0,1,.54,32.951h0a1.393,1.393,0,0,1,.017-.211A33.843,33.843,0,0,1,11.886,9.327,34.275,34.275,0,0,1,36.387.538h0a1.6,1.6,0,0,1,1.6,1.608,1.565,1.565,0,0,1-.126.622,9.227,9.227,0,0,0-.15,5.641,4.9,4.9,0,0,0,3,3.07,1.6,1.6,0,0,1,.962,1.975h.007a14.166,14.166,0,0,0-.289,8.49,8.5,8.5,0,0,0,5.685,5.661,13.055,13.055,0,0,0,7.919-.306,1.606,1.606,0,0,1,1.833.666h0ZM33.3,32.682a2.788,2.788,0,1,1-2.771,2.788A2.775,2.775,0,0,1,33.3,32.682ZM21.284,44.158a3.4,3.4,0,1,1-3.38,3.4,3.39,3.39,0,0,1,3.38-3.4Zm7.283-26a2.666,2.666,0,1,1-2.652,2.666,2.656,2.656,0,0,1,2.652-2.666Zm37.951.36a1.992,1.992,0,1,1-1.982,1.992,1.987,1.987,0,0,1,1.982-1.992Zm-14.212-5.28a3,3,0,1,1-2.982,3,2.987,2.987,0,0,1,2.982-3h0ZM54.615.82a3.217,3.217,0,1,1-3.2,3.216A3.211,3.211,0,0,1,54.615.82ZM42.959,45.341a4.468,4.468,0,1,1-4.444,4.468,4.455,4.455,0,0,1,4.444-4.468Zm-24.8-18.83a4.835,4.835,0,1,1-4.808,4.835,4.82,4.82,0,0,1,4.808-4.835Zm46.618,9.6ZM32.711,61.848Z" transform="translate(-273.665 19)" fill="none" stroke="#a061f7" stroke-linecap="round" stroke-linejoin="round" stroke-width="2.5"/>
  </g>
</svg>
