<svg xmlns="http://www.w3.org/2000/svg" width="20" height="24" viewBox="0 0 20 24">
  <g id="default-icon" transform="translate(-392 -2794)">
    <rect id="Rectangle_148794" data-name="Rectangle 148794" width="16" height="9" transform="translate(394 2805)" fill="#aaa"/>
    <path id="Path_325" data-name="Path 325" d="M17.5,6h3.9a.25.25,0,0,0,.177-.427L16.427.427A.25.25,0,0,0,16,.6V4.5A1.5,1.5,0,0,0,17.5,6Z" transform="translate(390 2794)" fill="#aaa"/>
    <path id="Path_327" data-name="Path 327" d="M21.75,7H17.5A2.5,2.5,0,0,1,15,4.5V.25A.25.25,0,0,0,14.75,0H4A2,2,0,0,0,2,2V22a2,2,0,0,0,2,2H20a2,2,0,0,0,2-2V7.25A.25.25,0,0,0,21.75,7ZM9.125,17a2.125,2.125,0,0,1-4.25,0,.625.625,0,0,1,1.25,0,.875.875,0,0,0,1.75,0V12.5a.625.625,0,0,1,1.25,0Zm2.75-.875h-.5a.25.25,0,0,0-.25.25V18.5a.625.625,0,1,1-1.25,0v-6a.625.625,0,0,1,.625-.625H12a2.128,2.128,0,0,1,2.114,2.347A2.213,2.213,0,0,1,11.875,16.125Zm7.25-1.625a.625.625,0,0,1-1.25,0V14a.875.875,0,0,0-1.75,0v3a.875.875,0,0,0,1.64.425c.051-.092.129-.3-.083-.3H17.5a.625.625,0,0,1,0-1.25h1a.625.625,0,0,1,.625.625V17a2.125,2.125,0,0,1-4.25,0V14a2.125,2.125,0,0,1,4.25,0Z" transform="translate(390 2794)" fill="#aaa"/>
    <text id="FILE" transform="translate(396 2810)" fill="#fff" font-size="6" font-family="Poppins-SemiBold, Poppins" font-weight="600"><tspan x="0" y="0">FILE</tspan></text>
  </g>
</svg>
