<svg xmlns="http://www.w3.org/2000/svg" width="623.531" height="443.651" viewBox="0 0 623.531 443.651">
  <g id="Illustration-under-construction" transform="translate(0 0.5)">
    <g id="Group_191513" data-name="Group 191513" transform="translate(-37.271 -83.653)">
      <g id="undraw_building_websites_i78t" transform="translate(97.185 91.057)">
        <path id="Path_170506" data-name="Path 170506" d="M620.437,486.349H306.163c-5.582-.007-10.105-4.869-10.111-10.869v-203a7.709,7.709,0,0,1,7.408-7.963H623.012a7.843,7.843,0,0,1,7.536,8.1v202.86C630.542,481.48,626.018,486.342,620.437,486.349Z" transform="translate(-225.463 -160.397)" fill="#f2f2f2"/>
        <path id="Path_170507" data-name="Path 170507" d="M322.357,484.589H617.021c5.415,0,9.805-4.719,9.805-10.54v-172.3c0-5.821-4.39-10.54-9.805-10.54H322.357c-5.415,0-9.8,4.719-9.8,10.54v172.3C312.552,479.87,316.942,484.589,322.357,484.589Z" transform="translate(-231.603 -168.883)" fill="#fff"/>
        <path id="Path_170508" data-name="Path 170508" d="M630.317,267.149H295.82v-5.534c.008-6.02,4.548-10.9,10.148-10.9h314.2c5.6,0,10.14,4.882,10.148,10.9Z" transform="translate(-225.374 -155.686)" fill="#a061f7"/>
        <ellipse id="Ellipse_8334" data-name="Ellipse 8334" cx="2.625" cy="2.822" rx="2.625" ry="2.822" transform="translate(86.264 100.439)" fill="#fff"/>
        <ellipse id="Ellipse_8335" data-name="Ellipse 8335" cx="2.625" cy="2.822" rx="2.625" ry="2.822" transform="translate(96.228 100.439)" fill="#fff"/>
        <ellipse id="Ellipse_8336" data-name="Ellipse 8336" cx="2.625" cy="2.822" rx="2.625" ry="2.822" transform="translate(106.192 100.439)" fill="#fff"/>
        <g id="Group_191517" data-name="Group 191517" transform="translate(268.572 300.077)">
          <path id="Path_170509" data-name="Path 170509" d="M577.068,523.921H539.724c-4.554-.006-8.245-3.973-8.25-8.869V474.909c.005-4.9,3.7-8.863,8.25-8.869h37.343c4.555.006,8.245,3.973,8.25,8.869v40.143C585.313,519.948,581.622,523.915,577.068,523.921Z" transform="translate(-531.474 -466.04)" fill="#fff" stroke="#d9d9d9" stroke-width="1"/>
          <path id="Path_170510" data-name="Path 170510" d="M571.659,513.515h-22.58a2.711,2.711,0,0,1-2.605-2.8V480.841a2.711,2.711,0,0,1,2.605-2.8H565.44a2.5,2.5,0,0,1,1.632.618l6.218,5.372a2.869,2.869,0,0,1,.974,2.183v24.5A2.711,2.711,0,0,1,571.659,513.515Zm-22.58-33.608a.9.9,0,0,0-.869.934v29.874a.9.9,0,0,0,.868.934h22.58a.9.9,0,0,0,.869-.933v-24.5a.956.956,0,0,0-.324-.728l-6.219-5.372a.832.832,0,0,0-.544-.206Z" transform="translate(-533.447 -466.837)" fill="#a061f7"/>
          <path id="Path_170511" data-name="Path 170511" d="M568.238,491.907h-13.9a.936.936,0,0,1,0-1.867h13.9a.936.936,0,0,1,0,1.867Z" transform="translate(-534.368 -467.635)" fill="#a061f7"/>
          <path id="Path_170512" data-name="Path 170512" d="M568.238,497.907h-13.9a.936.936,0,0,1,0-1.867h13.9a.936.936,0,0,1,0,1.867Z" transform="translate(-534.368 -468.033)" fill="#a061f7"/>
          <path id="Path_170513" data-name="Path 170513" d="M568.238,503.907h-13.9a.936.936,0,0,1,0-1.867h13.9a.936.936,0,0,1,0,1.867Z" transform="translate(-534.368 -468.432)" fill="#a061f7"/>
        </g>
        <g id="Group_191518" data-name="Group 191518" transform="translate(173.384 28.874)">
          <path id="Path_170514" data-name="Path 170514" d="M665.647,506.883H639.3a6.059,6.059,0,0,1-5.822-6.258V472.3a6.059,6.059,0,0,1,5.822-6.258h26.351a6.059,6.059,0,0,1,5.822,6.258v28.326A6.059,6.059,0,0,1,665.647,506.883ZM639.3,467.357a4.783,4.783,0,0,0-4.6,4.941v28.326a4.783,4.783,0,0,0,4.6,4.941h26.351a4.783,4.783,0,0,0,4.6-4.941V472.3a4.783,4.783,0,0,0-4.6-4.941Z" transform="translate(-633.474 -466.04)" fill="#d9d9d9"/>
          <path id="Path_170515" data-name="Path 170515" d="M666.471,500.533H649.313a1.913,1.913,0,0,1-1.839-1.976v-10.54a1.913,1.913,0,0,1,1.839-1.976h17.159a1.913,1.913,0,0,1,1.839,1.976v10.54A1.913,1.913,0,0,1,666.471,500.533Zm-17.159-13.175a.638.638,0,0,0-.613.659v10.54a.638.638,0,0,0,.613.659h17.159a.638.638,0,0,0,.613-.659v-10.54a.638.638,0,0,0-.613-.659Z" transform="translate(-638.894 -472.865)" fill="#a061f7"/>
          <path id="Path_170516" data-name="Path 170516" d="M657.892,495.706a1.747,1.747,0,0,1-.974-.3l-9.156-6.151a.688.688,0,0,1-.195-.908.588.588,0,0,1,.845-.209l9.156,6.151a.58.58,0,0,0,.649,0l9.155-6.151a.588.588,0,0,1,.845.209.688.688,0,0,1-.195.908l-9.155,6.151A1.748,1.748,0,0,1,657.892,495.706Z" transform="translate(-638.894 -473.547)" fill="#a061f7"/>
        </g>
        <g id="Group_191530" data-name="Group 191530" transform="translate(174.724 -244.278)">
          <path id="Path_170517" data-name="Path 170517" d="M461.647,506.883H435.3a6.059,6.059,0,0,1-5.822-6.258V472.3a6.059,6.059,0,0,1,5.822-6.258h26.351a6.059,6.059,0,0,1,5.822,6.258v28.326A6.059,6.059,0,0,1,461.647,506.883Z" transform="translate(-277.123 -229.166)" fill="#fff" stroke="#d9d9d9" stroke-width="1"/>
          <path id="Path_170518" data-name="Path 170518" d="M462.471,500.533H445.313a1.913,1.913,0,0,1-1.838-1.976v-10.54a1.913,1.913,0,0,1,1.838-1.976h17.159a1.913,1.913,0,0,1,1.839,1.976v10.54A1.913,1.913,0,0,1,462.471,500.533Zm-17.159-13.175a.638.638,0,0,0-.613.659v10.54a.638.638,0,0,0,.613.659h17.159a.638.638,0,0,0,.613-.659v-10.54a.638.638,0,0,0-.613-.659Z" transform="translate(-282.544 -235.991)" fill="#a061f7"/>
          <path id="Path_170519" data-name="Path 170519" d="M461.47,503.092H449.138a1.212,1.212,0,0,1-1.062-.659,1.4,1.4,0,0,1,0-1.318l3.715-6.917a1.185,1.185,0,0,1,2.123,0l2.4,4.467,1.39-2.588a1.185,1.185,0,0,1,2.123,0l2.706,5.038a1.4,1.4,0,0,1,0,1.318A1.213,1.213,0,0,1,461.47,503.092Zm0-1.317h0l-2.706-5.038-1.92,3.576a.606.606,0,0,1-.531.329h0a.606.606,0,0,1-.531-.329l-2.93-5.455-3.715,6.917Z" transform="translate(-284.262 -238.55)" fill="#a061f7"/>
          <ellipse id="Ellipse_8337" data-name="Ellipse 8337" cx="1.226" cy="1.318" rx="1.226" ry="1.318" transform="translate(176.864 252.684)" fill="#a061f7"/>
        </g>
        <path id="Path_170520" data-name="Path 170520" d="M761.82,632.013h-7.513l-3.574-31.151h11.088Z" transform="translate(-290.675 -205.042)" fill="#ffb8b8"/>
        <path id="Path_170521" data-name="Path 170521" d="M937.51,761.072H913.285v-.329c0-5.6,4.222-10.136,9.429-10.136h14.8Z" transform="translate(-464.449 -326.273)" fill="#2f2e41"/>
        <path id="Path_170522" data-name="Path 170522" d="M811.82,632.013h-7.513l-3.574-31.151h11.088Z" transform="translate(-310.034 -205.042)" fill="#ffb8b8"/>
        <path id="Path_170523" data-name="Path 170523" d="M987.514,761.072H963.289v-.329c0-5.6,4.222-10.136,9.429-10.136h14.8Z" transform="translate(-483.81 -326.273)" fill="#2f2e41"/>
        <path id="Path_170524" data-name="Path 170524" d="M969.971,672.087l-6.958-2.275a2.916,2.916,0,0,1-1.94-2.525L954.585,601.2a.3.3,0,0,0-.293-.295.293.293,0,0,0-.313.27L943.113,665.2a2.989,2.989,0,0,1-1.17,1.925,2.6,2.6,0,0,1-2.1.446l-8.893-1.969a2.948,2.948,0,0,1-2.195-3.1l6.609-104.948,44.82-5.2-6.66,117.078a2.855,2.855,0,0,1-2.748,2.785,2.6,2.6,0,0,1-.807-.129Z" transform="translate(-470.437 -258.62)" fill="#2f2e41"/>
        <ellipse id="Ellipse_8338" data-name="Ellipse 8338" cx="15.051" cy="16.18" rx="15.051" ry="16.18" transform="translate(484.439 175.18)" fill="#ffb8b8"/>
        <path id="Path_170525" data-name="Path 170525" d="M939.433,516.214l9.718-65.777a25.119,25.119,0,0,1,10.5-17.157,21.822,21.822,0,0,1,18.918-2.868h0c11.456,3.562,18.515,15.9,16.3,28.5L984.7,517.653Z" transform="translate(-474.573 -216.666)" fill="#a061f7"/>
        <path id="Path_170526" data-name="Path 170526" d="M996.628,562.983a6.709,6.709,0,0,0,2.727-4.777,6.939,6.939,0,0,0-1.656-5.315l10.048-20.916-11.315,1.3-7.807,19.663a7.038,7.038,0,0,0-.149,8.845A5.9,5.9,0,0,0,996.628,562.983Z" transform="translate(-492.984 -251.666)" fill="#ffb8b8"/>
        <path id="Path_170527" data-name="Path 170527" d="M1002.313,519.572a2.686,2.686,0,0,1-1.487-.758L996.982,515a3.132,3.132,0,0,1-.669-3.329L1004,492.089l-1.09-38.682c.663-5.226,5.142-8.884,10-8.171s8.265,5.527,7.6,10.753l1.864,24.316a32.221,32.221,0,0,1-5.477,20.683L1004.915,518.4a2.722,2.722,0,0,1-1.958,1.188A2.537,2.537,0,0,1,1002.313,519.572Z" transform="translate(-496.513 -222.036)" fill="#a061f7"/>
        <path id="Path_170528" data-name="Path 170528" d="M854.434,379.465a6.624,6.624,0,0,0,3.029,4.562,5.781,5.781,0,0,0,5.2.432l14,18.1,3.3-11.707-13.8-15.395a6.06,6.06,0,0,0-7.519-3.6,6.722,6.722,0,0,0-4.208,7.6Z" transform="translate(-441.619 -196.921)" fill="#ffb8b8"/>
        <path id="Path_170529" data-name="Path 170529" d="M872.153,393.011a2.839,2.839,0,0,1,1.229-1.177l4.77-2.317a2.628,2.628,0,0,1,3.113.636l13.775,15.238,33.561,14a9.96,9.96,0,0,1,3.1,13.088,8.545,8.545,0,0,1-12.175,3.332l-21.557-7.636a28.918,28.918,0,0,1-15.582-13.486l-10.245-18.65a3.164,3.164,0,0,1-.254-2.4,3.034,3.034,0,0,1,.265-.631Z" transform="translate(-448.371 -202.964)" fill="#a061f7"/>
        <path id="Path_170530" data-name="Path 170530" d="M827.482,375.652l-.613,21.08L815.58,417.819l9.426-23.5Z" transform="translate(-315.783 -128.19)" opacity="0.1"/>
        <path id="Path_170531" data-name="Path 170531" d="M981.9,389.6a3.952,3.952,0,0,1-4.308-3.1,6.252,6.252,0,0,0-4.26-4.792c-2.761-.678-6.135.719-8.159-1.53a4.606,4.606,0,0,1-.965-3.849,8.849,8.849,0,0,1,3.409-5.156,20.025,20.025,0,0,1,11.561-4.645,38.62,38.62,0,0,1,6.509.348,27.015,27.015,0,0,1,6.657,1.308,16.554,16.554,0,0,1,9.806,12.306,20.544,20.544,0,0,1-3.712,15.9,19.65,19.65,0,0,1-7.452,6.1,2.722,2.722,0,0,1-2.21.12c-1.812-.775-1.516-3.188-.69-4.8.884-1.723,2.245-3.39,1.534-5.486a4.049,4.049,0,0,0-1.916-2.218c-1.8-.988-3.817-.754-5.753-.514Z" transform="translate(-484.129 -195.203)" fill="#2f2e41"/>
        <g id="Group_191531" data-name="Group 191531">
          <path id="Path_170532" data-name="Path 170532" d="M722.2,409.092H535.908c-5.582-.01-10.105-6.913-10.111-15.432V332.865c.006-8.519,4.53-15.423,10.111-15.432H722.2c5.582.01,10.1,6.913,10.111,15.432v60.794C732.308,402.178,727.785,409.082,722.2,409.092Z" transform="translate(-314.418 -217.965)" fill="#fff"/>
          <path id="Path_170533" data-name="Path 170533" d="M722.01,408.921H535.715c-5.751-.01-10.411-7.076-10.418-15.8v-60.4c.006-8.72,4.667-15.786,10.418-15.8H722.01c5.751.01,10.411,7.076,10.418,15.8v60.4C732.421,401.845,727.76,408.911,722.01,408.921Zm-186.295-90.13c-5.074.009-9.186,6.244-9.192,13.938v60.4c.006,7.694,4.118,13.929,9.192,13.938H722.01c5.074-.009,9.186-6.244,9.192-13.938v-60.4c-.006-7.694-4.118-13.929-9.192-13.938Z" transform="translate(-314.224 -217.465)" fill="#444"/>
          <path id="Path_170534" data-name="Path 170534" d="M713.855,401.211H572.908c-5.582-.011-10.105-7.588-10.111-16.938v-34.9c.006-9.35,4.53-16.927,10.111-16.938H713.855c5.582.011,10.1,7.588,10.111,16.938v34.9c-.006,9.35-4.53,16.927-10.111,16.938Z" transform="translate(-328.744 -220.387)" fill="#f2f2f2"/>
          <ellipse id="Ellipse_8339" data-name="Ellipse 8339" cx="20.592" cy="19.499" rx="20.592" ry="19.499" transform="translate(249.403 120.807)" fill="#ff6584"/>
          <path id="Path_170535" data-name="Path 170535" d="M716.881,398.324l-17.068-23.752-16.774-23.342a1.782,1.782,0,0,0-3.158.01L663.161,374.69l-4.084,5.728-6.158-8.569-18.713-26.04a1.782,1.782,0,0,0-3.157.01L612.4,371.978,593.45,398.55a1.492,1.492,0,0,0-.18,1.127c.089.4.319.667.577.666l38.844-.124,12.3-.039-.12.169,36.651-.117,34.971-.112c.257,0,.487-.269.575-.67a1.49,1.49,0,0,0-.182-1.126Z" transform="translate(-340.528 -221.714)" fill="#3f3d56"/>
        </g>
        <ellipse id="Ellipse_8340" data-name="Ellipse 8340" cx="14.2" cy="15.264" rx="14.2" ry="15.264" transform="translate(47.795 199.939)" fill="#a0616a"/>
        <path id="Path_170540" data-name="Path 170540" d="M316.7,416.426q.21.18.407.381a7.184,7.184,0,0,1-.256,10.2,6.021,6.021,0,0,1-.5.4l.961,34.878a5.3,5.3,0,0,1-3.4,5.182l-.059.014L287.508,470.5a5.573,5.573,0,0,1-5.955-5.267,5.764,5.764,0,0,1,4.9-6.4l18.779-1.778,3.248-30.2a6.3,6.3,0,0,1-.6-.652,7.221,7.221,0,0,1,.291-9.172,6.041,6.041,0,0,1,8.519-.6Z" transform="translate(-219.84 -211.73)" fill="#a0616a"/>
        <path id="Path_170541" data-name="Path 170541" d="M139.327,633.95h7.088l3.372-29.389H139.326Z" transform="translate(-53.945 -206.304)" fill="#a0616a"/>
        <path id="Path_170542" data-name="Path 170542" d="M317.242,751.858H331.2c4.913,0,8.9,4.281,8.9,9.563v.311H317.242Z" transform="translate(-233.668 -326.7)" fill="#2f2e41"/>
        <path id="Path_170543" data-name="Path 170543" d="M24.366,620.1l6.09,3.9,16.885-23.4-8.989-5.753Z" transform="translate(-9.434 -202.99)" fill="#a0616a"/>
        <path id="Path_170544" data-name="Path 170544" d="M201.658,734.889l11.994,7.676h0a9.974,9.974,0,0,1,3.092,13.108l-.148.267L196.96,743.372Z" transform="translate(-187.096 -320.91)" fill="#2f2e41"/>
        <path id="Path_170545" data-name="Path 170545" d="M286.976,667.285h-7.937a2.674,2.674,0,0,1-2.587-2.5l-8-80.854a.906.906,0,0,0-.725-.822.856.856,0,0,0-.928.536L252.363,618l-25.556,44.8a2.519,2.519,0,0,1-3.266,1.1l-10.21-4.828a2.737,2.737,0,0,1-1.431-1.71,2.982,2.982,0,0,1,.245-2.285l23.493-42.287,7.205-35.629c-2.266-15.451,7.449-38.422,7.547-38.653l.048-.112,26.76-11.243.134.177c10.553,37.229,16.984,77.293,12.236,137.395A2.7,2.7,0,0,1,286.976,667.285Z" transform="translate(-192.833 -250.02)" fill="#2f2e41"/>
        <path id="Path_170546" data-name="Path 170546" d="M265.668,520.661l-.125-.282c-.06-.135-6.01-13.625-10.6-28.044a22.7,22.7,0,0,1,1.372-17.044,20.266,20.266,0,0,1,12.754-10.543h0c9.649-2.486,19.536,3,23.243,12.892,3.638,9.781,2.479,20.22,1.388,28.43l-.022.165-.139.071Z" transform="translate(-209.141 -228.522)" fill="#febebe"/>
        <path id="Path_170547" data-name="Path 170547" d="M295.878,413.385H273.33V402.82c4.949-2.114,9.792-3.911,12.719,0,5.428,0,9.828,4.73,9.828,10.565Z" transform="translate(-216.666 -206.805)" fill="#2f2e41"/>
        <path id="Path_170548" data-name="Path 170548" d="M260.393,401.185c-13.479,0-17.252,18.163-17.252,28.409,0,5.714,2.4,7.758,6.182,8.45l1.334-7.649,3.125,7.978c1.061.006,2.176-.016,3.332-.039l1.059-2.345,2.363,2.3c9.462.015,17.11,1.5,17.11-8.7C277.644,419.348,274.336,401.185,260.393,401.185Z" transform="translate(-204.977 -207.034)" fill="#2f2e41"/>
        <path id="Path_170549" data-name="Path 170549" d="M299.137,767.25H181.477a.66.66,0,0,1,0-1.317h117.66a.66.66,0,0,1,0,1.317Z" transform="translate(-180.864 -331.503)" fill="#ccc"/>
        <path id="Path_170550" data-name="Path 170550" d="M357.147,417.776H330.8a6.059,6.059,0,0,1-5.822-6.258V383.191a6.059,6.059,0,0,1,5.822-6.258h26.351a6.059,6.059,0,0,1,5.822,6.258v28.326A6.059,6.059,0,0,1,357.147,417.776Z" transform="translate(-236.662 -198.758)" fill="#fff"/>
        <path id="Path_170551" data-name="Path 170551" d="M357.147,417.776H330.8a6.059,6.059,0,0,1-5.822-6.258V383.191a6.059,6.059,0,0,1,5.822-6.258h26.351a6.059,6.059,0,0,1,5.822,6.258v28.326A6.059,6.059,0,0,1,357.147,417.776ZM330.8,378.251a4.783,4.783,0,0,0-4.6,4.941v28.326a4.783,4.783,0,0,0,4.6,4.941h26.351a4.783,4.783,0,0,0,4.6-4.941V383.191a4.783,4.783,0,0,0-4.6-4.941Z" transform="translate(-236.662 -198.758)" fill="#3f3d56"/>
        <path id="Path_170552" data-name="Path 170552" d="M357.971,412.219H340.812a1.913,1.913,0,0,1-1.838-1.976V396.409a1.913,1.913,0,0,1,1.838-1.976h4.83a1.8,1.8,0,0,1,1.566.94l1.347,2.354h9.415a1.913,1.913,0,0,1,1.838,1.976v10.54a1.913,1.913,0,0,1-1.838,1.976Z" transform="translate(-242.082 -204.73)" fill="#a061f7"/>
        <path id="Path_170553" data-name="Path 170553" d="M337.312,430.2q.129.253.238.521a7.307,7.307,0,0,1-.023,5.59,6.536,6.536,0,0,1-3.895,3.7,5.607,5.607,0,0,1-.605.164l-11.7,32.546a4.927,4.927,0,0,1-5,3.359l-.059-.012-25.368-8.209a5.953,5.953,0,0,1-3.587-7.338,5.393,5.393,0,0,1,6.827-3.856l17.949,6.2,13.9-26.483a6.811,6.811,0,0,1-.313-.849,7,7,0,0,1,3.58-8.332,6.157,6.157,0,0,1,8.068,3Z" transform="translate(-221.981 -215.725)" fill="#a0616a"/>
        <g id="Group_191507" data-name="Group 191507" transform="translate(390.228 357.958)">
          <rect id="Rectangle_151019" data-name="Rectangle 151019" width="173.388" height="1.218" transform="translate(0 76.571)" fill="#ccc"/>
          <path id="Path_170569" data-name="Path 170569" d="M512.815,735.447a65.9,65.9,0,0,0-5.1-17.6l-.364-.81-2.706,3.226,2.005-4.8-.131-.279a117.3,117.3,0,0,0-5.875-10.957l-.4-.654-.53.632.371-.89-.186-.3c-2.655-4.281-4.7-6.989-4.715-7.016l-.577-.763-.371.91c-.068.167-6.81,16.868-7.7,33.371l-.014.257,4.538,5.9-4.628-3.123.008,1.133a51.852,51.852,0,0,0,.368,5.8q.306,2.482.72,4.847a2.288,2.288,0,0,1,1.23.413q-.479-2.642-.827-5.431c-.179-1.484-.291-2.992-.336-4.5l8.951,6.041-8.864-11.518c.807-13.953,5.816-28.01,7.223-31.721.755,1.052,2.178,3.1,3.882,5.824l-3.1,7.42L500.1,705.6q2.871,4.8,5.282,9.9l-4.768,11.426,6.447-7.684a64.576,64.576,0,0,1,4.63,16.4c1.128,9.162.908,17.963-.62,24.782-1.464,6.533-4.044,10.548-7.079,11.017a4.474,4.474,0,0,1-1.87-.119,2.642,2.642,0,0,1-1.678.55h-.165a6.227,6.227,0,0,0,3.073.887,5.2,5.2,0,0,0,.794-.061c3.569-.551,6.418-4.8,8.024-11.965C513.736,753.753,513.965,744.78,512.815,735.447Z" transform="translate(-345.86 -695.235)" fill="#d8befe"/>
          <path id="Path_170570" data-name="Path 170570" d="M488.943,800.975c-4.667,0-11.4-2.76-18.071-7.784a29.343,29.343,0,0,1-2.809-2.427l-.748-.734,2.827-.875-3.764-.148-.159-.179c-7.055-7.942-11.445-19.161-11.488-19.273l-.343-.886.892.043c.089,0,2.21.112,5.4.6l.2.03v0l.7.114A65.876,65.876,0,0,1,469.3,771.2l.271.079.848,2.245-.129-2.014.778.242a36.381,36.381,0,0,1,10.385,5.176c10.15,7.641,15.767,17.19,12.8,21.748C493.234,800.231,491.366,800.975,488.943,800.975ZM469.6,790.591c.62.564,1.265,1.1,1.927,1.6,9.3,7,19.278,9.645,21.8,5.78s-3.21-13.044-12.508-20.043a35.309,35.309,0,0,0-9.282-4.76l.5,7.868-3.3-8.744a65.159,65.159,0,0,0-6.627-1.52l.365,5.71-2.273-6.018c-1.761-.26-3.181-.4-4.044-.473,1.177,2.779,5.067,11.361,10.73,17.813l10.386.409Z" transform="translate(-331.973 -723.94)" fill="#d8befe"/>
        </g>
        <rect id="Rectangle_151075" data-name="Rectangle 151075" width="217" height="8" rx="4" transform="translate(148.07 233.874)" fill="#f5f5f5"/>
        <rect id="Rectangle_151077" data-name="Rectangle 151077" width="114" height="8" rx="4" transform="translate(148.07 269.874)" fill="#f5f5f5"/>
        <rect id="Rectangle_151076" data-name="Rectangle 151076" width="217" height="8" rx="4" transform="translate(148.07 251.874)" fill="#f5f5f5"/>
      </g>
    </g>
    <g id="Group_191510" data-name="Group 191510" transform="translate(0 365.361)">
      <rect id="Rectangle_151019-2" data-name="Rectangle 151019" width="173.388" height="1.218" transform="translate(0 76.571)" fill="#ccc"/>
      <path id="Path_170569-2" data-name="Path 170569" d="M487.155,735.447a65.9,65.9,0,0,1,5.1-17.6l.364-.81,2.706,3.226-2.005-4.8.131-.279a117.3,117.3,0,0,1,5.875-10.957l.4-.654.53.632-.371-.89.186-.3c2.655-4.281,4.7-6.989,4.715-7.016l.577-.763.371.91c.068.167,6.81,16.868,7.7,33.371l.014.257-4.538,5.9,4.628-3.123-.008,1.133a51.838,51.838,0,0,1-.368,5.8q-.306,2.482-.72,4.847a2.288,2.288,0,0,0-1.23.413q.479-2.642.827-5.431c.179-1.484.291-2.992.336-4.5l-8.951,6.041,8.864-11.518c-.807-13.953-5.816-28.01-7.223-31.721-.755,1.052-2.179,3.1-3.882,5.824l3.1,7.42-4.414-5.262q-2.871,4.8-5.282,9.9l4.768,11.426-6.447-7.684a64.576,64.576,0,0,0-4.63,16.4c-1.128,9.162-.908,17.963.62,24.782,1.464,6.533,4.044,10.548,7.079,11.017a4.474,4.474,0,0,0,1.87-.119,2.642,2.642,0,0,0,1.678.55h.165a6.227,6.227,0,0,1-3.073.887,5.2,5.2,0,0,1-.794-.061c-3.569-.551-6.418-4.8-8.024-11.965C486.234,753.753,486.005,744.78,487.155,735.447Z" transform="translate(-480.723 -695.235)" fill="#d8befe"/>
      <path id="Path_170570-2" data-name="Path 170570" d="M460.486,800.975c4.667,0,11.4-2.76,18.071-7.784a29.336,29.336,0,0,0,2.809-2.427l.748-.734-2.827-.875,3.764-.148.159-.179c7.055-7.942,11.445-19.161,11.488-19.273l.343-.886-.892.043c-.089,0-2.21.112-5.4.6l-.2.03v0l-.7.114a65.874,65.874,0,0,0-7.723,1.745l-.271.079-.848,2.245.129-2.014-.778.242a36.381,36.381,0,0,0-10.385,5.176c-10.15,7.641-15.767,17.19-12.8,21.748C456.2,800.231,458.064,800.975,460.486,800.975Zm19.346-10.384c-.62.564-1.265,1.1-1.927,1.6-9.3,7-19.278,9.645-21.8,5.78s3.21-13.044,12.508-20.043a35.309,35.309,0,0,1,9.282-4.76l-.5,7.868,3.3-8.744a65.157,65.157,0,0,1,6.627-1.52l-.365,5.71,2.273-6.018c1.761-.26,3.181-.4,4.044-.473-1.177,2.779-5.067,11.361-10.73,17.813l-10.386.409Z" transform="translate(-444.068 -723.94)" fill="#d8befe"/>
    </g>
  </g>
</svg>
