<svg id="illustration-maintenance" xmlns="http://www.w3.org/2000/svg" width="479.199" height="268.411" viewBox="0 0 479.199 268.411">
  <g id="undraw_building_websites_i78t">
    <path id="Path_170506" data-name="Path 170506" d="M545.668,439.271H303.833c-4.3-.005-7.776-3.836-7.781-8.563V270.792a6.014,6.014,0,0,1,5.7-6.273h245.9c3.2,0,5.8,2.859,5.8,6.382V430.708C553.444,435.435,549.963,439.266,545.668,439.271Z" transform="translate(-196.24 -257.354)" fill="#f2f2f2"/>
    <path id="Path_170507" data-name="Path 170507" d="M320.1,443.55H546.842c4.167,0,7.545-3.717,7.545-8.3V299.516c0-4.586-3.378-8.3-7.545-8.3H320.1c-4.167,0-7.545,3.717-7.545,8.3v135.73C312.552,439.832,315.93,443.55,320.1,443.55Z" transform="translate(-204.768 -269.704)" fill="#fff"/>
    <path id="Path_170508" data-name="Path 170508" d="M553.217,263.661H295.82V259.3c.006-4.743,3.5-8.585,7.809-8.589H545.408c4.309,0,7.8,3.846,7.809,8.589Z" transform="translate(-196.117 -250.713)" fill="#a061f7"/>
    <ellipse id="Ellipse_8334" data-name="Ellipse 8334" cx="2.02" cy="2.223" rx="2.02" ry="2.223" transform="translate(111.874 4.264)" fill="#fff"/>
    <ellipse id="Ellipse_8335" data-name="Ellipse 8335" cx="2.02" cy="2.223" rx="2.02" ry="2.223" transform="translate(119.542 4.264)" fill="#fff"/>
    <ellipse id="Ellipse_8336" data-name="Ellipse 8336" cx="2.02" cy="2.223" rx="2.02" ry="2.223" transform="translate(127.209 4.264)" fill="#fff"/>
    <path id="Path_170509" data-name="Path 170509" d="M556.231,498.215H535.954a4.727,4.727,0,0,1-4.48-4.93V470.97a4.727,4.727,0,0,1,4.48-4.93h20.277a4.727,4.727,0,0,1,4.48,4.93v22.315A4.727,4.727,0,0,1,556.231,498.215Zm-20.277-31.137a3.731,3.731,0,0,0-3.537,3.892v22.315a3.731,3.731,0,0,0,3.537,3.892h20.277a3.731,3.731,0,0,0,3.537-3.892V470.97a3.731,3.731,0,0,0-3.537-3.892Z" transform="translate(-320.646 -354.296)" fill="#d9d9d9"/>
    <path id="Path_170510" data-name="Path 170510" d="M560.149,497.76H547.889a1.492,1.492,0,0,1-1.415-1.557V479.6a1.493,1.493,0,0,1,1.415-1.557h8.884a1.339,1.339,0,0,1,.886.343l3.376,2.986a1.612,1.612,0,0,1,.529,1.214V496.2A1.492,1.492,0,0,1,560.149,497.76Zm-12.261-18.682a.5.5,0,0,0-.472.519V496.2a.5.5,0,0,0,.472.519h12.261a.5.5,0,0,0,.471-.519v-13.62a.537.537,0,0,0-.176-.4l-3.377-2.986a.446.446,0,0,0-.3-.114Z" transform="translate(-328.573 -360.069)" fill="#a061f7"/>
    <path id="Path_170511" data-name="Path 170511" d="M561.491,491.078h-7.545a.521.521,0,0,1,0-1.038h7.545a.521.521,0,0,1,0,1.038Z" transform="translate(-332.272 -365.841)" fill="#a061f7"/>
    <path id="Path_170512" data-name="Path 170512" d="M561.491,497.078h-7.545a.521.521,0,0,1,0-1.038h7.545a.521.521,0,0,1,0,1.038Z" transform="translate(-332.272 -368.728)" fill="#a061f7"/>
    <path id="Path_170513" data-name="Path 170513" d="M561.491,503.078h-7.545a.521.521,0,0,1,0-1.038h7.545a.521.521,0,0,1,0,1.038Z" transform="translate(-332.272 -371.614)" fill="#a061f7"/>
    <path id="Path_170514" data-name="Path 170514" d="M658.231,498.215H637.954a4.727,4.727,0,0,1-4.48-4.93V470.97a4.727,4.727,0,0,1,4.48-4.93h20.277a4.727,4.727,0,0,1,4.48,4.93v22.315A4.726,4.726,0,0,1,658.231,498.215Zm-20.277-31.137a3.731,3.731,0,0,0-3.537,3.892v22.315a3.731,3.731,0,0,0,3.537,3.892h20.277a3.731,3.731,0,0,0,3.537-3.892V470.97a3.731,3.731,0,0,0-3.537-3.892Z" transform="translate(-374.547 -354.296)" fill="#d9d9d9"/>
    <path id="Path_170515" data-name="Path 170515" d="M662.092,497.457h-13.2a1.492,1.492,0,0,1-1.415-1.557v-8.3a1.493,1.493,0,0,1,1.415-1.557h13.2a1.493,1.493,0,0,1,1.415,1.557v8.3A1.492,1.492,0,0,1,662.092,497.457Zm-13.2-10.379a.5.5,0,0,0-.472.519v8.3a.5.5,0,0,0,.472.519h13.2a.5.5,0,0,0,.472-.519v-8.3a.5.5,0,0,0-.471-.519Z" transform="translate(-381.945 -363.917)" fill="#a061f7"/>
    <path id="Path_170516" data-name="Path 170516" d="M655.49,494.079a1.323,1.323,0,0,1-.75-.235L647.7,489a.551.551,0,0,1-.15-.715.447.447,0,0,1,.65-.165l7.045,4.846a.438.438,0,0,0,.5,0l7.045-4.846a.447.447,0,0,1,.65.165.55.55,0,0,1-.15.715l-7.045,4.846A1.322,1.322,0,0,1,655.49,494.079Z" transform="translate(-381.945 -364.879)" fill="#a061f7"/>
    <path id="Path_170517" data-name="Path 170517" d="M454.231,498.215H433.954a4.726,4.726,0,0,1-4.48-4.93V470.97a4.727,4.727,0,0,1,4.48-4.93h20.277a4.727,4.727,0,0,1,4.48,4.93v22.315A4.727,4.727,0,0,1,454.231,498.215Zm-20.277-31.137a3.732,3.732,0,0,0-3.537,3.892v22.315a3.731,3.731,0,0,0,3.537,3.892h20.277a3.731,3.731,0,0,0,3.537-3.892V470.97a3.732,3.732,0,0,0-3.537-3.892Z" transform="translate(-266.745 -354.296)" fill="#d9d9d9"/>
    <path id="Path_170518" data-name="Path 170518" d="M458.092,497.457h-13.2a1.492,1.492,0,0,1-1.415-1.557v-8.3a1.492,1.492,0,0,1,1.415-1.557h13.2a1.493,1.493,0,0,1,1.415,1.557v8.3A1.492,1.492,0,0,1,458.092,497.457Zm-13.2-10.379a.5.5,0,0,0-.472.519v8.3a.5.5,0,0,0,.472.519h13.2a.5.5,0,0,0,.472-.519v-8.3a.5.5,0,0,0-.472-.519Z" transform="translate(-274.143 -363.917)" fill="#a061f7"/>
    <path id="Path_170519" data-name="Path 170519" d="M458.345,501.065h-9.49a.931.931,0,0,1-.817-.519,1.129,1.129,0,0,1,0-1.038l2.858-5.449a.9.9,0,0,1,1.634,0l1.846,3.519,1.07-2.039a.9.9,0,0,1,1.634,0l2.082,3.969a1.129,1.129,0,0,1,0,1.038A.931.931,0,0,1,458.345,501.065Zm0-1.038h0l-2.082-3.969-1.478,2.817a.465.465,0,0,1-.408.259h0a.465.465,0,0,1-.408-.259l-2.254-4.3-2.859,5.449Z" transform="translate(-276.488 -367.525)" fill="#a061f7"/>
    <ellipse id="Ellipse_8337" data-name="Ellipse 8337" cx="0.943" cy="1.038" rx="0.943" ry="1.038" transform="translate(181.591 124.198)" fill="#a061f7"/>
    <path id="Path_170520" data-name="Path 170520" d="M759.265,625.4h-5.781l-2.75-24.54h8.532Z" transform="translate(-351.222 -363.904)" fill="#ffb8b8"/>
    <path id="Path_170521" data-name="Path 170521" d="M931.927,758.851H913.286v-.259c0-4.41,3.249-7.985,7.256-7.985h11.386Z" transform="translate(-522.41 -491.187)" fill="#2f2e41"/>
    <path id="Path_170522" data-name="Path 170522" d="M809.264,625.4h-5.781l-2.75-24.54h8.533Z" transform="translate(-377.644 -363.904)" fill="#ffb8b8"/>
    <path id="Path_170523" data-name="Path 170523" d="M981.931,758.851H963.29v-.259c0-4.41,3.249-7.985,7.256-7.985h11.386Z" transform="translate(-548.834 -491.187)" fill="#2f2e41"/>
    <path id="Path_170524" data-name="Path 170524" d="M960.47,646.676l-5.354-1.793a2.289,2.289,0,0,1-1.493-1.989l-4.992-52.065a.236.236,0,0,0-.226-.232.227.227,0,0,0-.241.212L939.8,641.252a2.364,2.364,0,0,1-.9,1.517,1.966,1.966,0,0,1-1.615.351l-6.843-1.551a2.318,2.318,0,0,1-1.689-2.445l5.086-82.675,34.489-4.1-5.125,92.231a2.223,2.223,0,0,1-2.115,2.194A1.958,1.958,0,0,1,960.47,646.676Z" transform="translate(-530.582 -395.817)" fill="#2f2e41"/>
    <ellipse id="Ellipse_8338" data-name="Ellipse 8338" cx="11.582" cy="12.746" rx="11.582" ry="12.746" transform="translate(418.272 63.143)" fill="#ffb8b8"/>
    <path id="Path_170525" data-name="Path 170525" d="M939.433,497.792l7.478-51.818a19.859,19.859,0,0,1,8.08-13.516,16.467,16.467,0,0,1,14.557-2.26h0c8.815,2.806,14.247,12.527,12.544,22.451l-7.824,46.276Z" transform="translate(-536.227 -336.675)" fill="#a061f7"/>
    <path id="Path_170526" data-name="Path 170526" d="M994.4,556.4a5.313,5.313,0,0,0,2.1-3.763,5.553,5.553,0,0,0-1.275-4.187l7.732-16.477L994.253,533l-6.007,15.49a5.647,5.647,0,0,0-.115,6.968A4.468,4.468,0,0,0,994.4,556.4Z" transform="translate(-561.355 -386.014)" fill="#ffb8b8"/>
    <path id="Path_170527" data-name="Path 170527" d="M1000.88,503.778a2.05,2.05,0,0,1-1.144-.6l-2.958-3.008a2.511,2.511,0,0,1-.515-2.623l5.912-15.422-.839-30.473c.51-4.117,3.956-7,7.7-6.437s6.36,4.354,5.849,8.471l1.434,19.156a25.838,25.838,0,0,1-4.215,16.293l-9.22,13.717a2.087,2.087,0,0,1-1.507.936A1.908,1.908,0,0,1,1000.88,503.778Z" transform="translate(-566.171 -344.246)" fill="#a061f7"/>
    <path id="Path_170528" data-name="Path 170528" d="M854.409,377.786a5.225,5.225,0,0,0,2.331,3.594,4.359,4.359,0,0,0,4,.341l10.773,14.26,2.539-9.223-10.62-12.127a4.634,4.634,0,0,0-5.786-2.833,5.317,5.317,0,0,0-3.238,5.989Z" transform="translate(-491.252 -308.841)" fill="#ffb8b8"/>
    <path id="Path_170529" data-name="Path 170529" d="M872.062,392.215a2.207,2.207,0,0,1,.946-.927l3.671-1.825a1.99,1.99,0,0,1,2.4.5l10.6,12L915.5,413a7.959,7.959,0,0,1,2.385,10.31,6.5,6.5,0,0,1-9.369,2.625l-16.588-6.016A22.413,22.413,0,0,1,879.938,409.3L872.054,394.6a2.545,2.545,0,0,1-.2-1.892A2.415,2.415,0,0,1,872.062,392.215Z" transform="translate(-500.466 -317.36)" fill="#a061f7"/>
    <path id="Path_170530" data-name="Path 170530" d="M824.739,375.652l-.472,16.606-8.687,16.612,7.254-18.513Z" transform="translate(-385.49 -255.567)" opacity="0.1"/>
    <path id="Path_170531" data-name="Path 170531" d="M977.8,384.7a3.049,3.049,0,0,1-3.315-2.44,4.887,4.887,0,0,0-3.278-3.775c-2.125-.534-4.721.566-6.278-1.205a3.692,3.692,0,0,1-.743-3.032,6.984,6.984,0,0,1,2.623-4.062,15.216,15.216,0,0,1,8.9-3.659,29.032,29.032,0,0,1,5.008.274,20.361,20.361,0,0,1,5.123,1.03,12.984,12.984,0,0,1,7.546,9.694,16.48,16.48,0,0,1-2.856,12.522,15.2,15.2,0,0,1-5.734,4.8,2.051,2.051,0,0,1-1.7.095c-1.395-.61-1.167-2.511-.531-3.779.681-1.357,1.728-2.671,1.18-4.322a3.169,3.169,0,0,0-1.475-1.747,6.955,6.955,0,0,0-4.427-.4Z" transform="translate(-549.27 -306.42)" fill="#2f2e41"/>
    <path id="Path_170532" data-name="Path 170532" d="M676.933,368.29H533.578c-4.3-.005-7.776-3.836-7.781-8.563V326c0-4.727,3.486-8.557,7.781-8.563H676.933c4.3.005,7.776,3.836,7.781,8.563v33.732C684.708,364.454,681.228,368.285,676.933,368.29Z" transform="translate(-317.646 -282.809)" fill="#fff"/>
    <path id="Path_170533" data-name="Path 170533" d="M676.668,368.309H533.314c-4.425-.005-8.012-3.952-8.016-8.822V325.755c0-4.87,3.591-8.817,8.017-8.822H676.668c4.425.005,8.012,3.952,8.017,8.822v33.732C684.68,364.357,681.094,368.3,676.668,368.309ZM533.314,317.971c-3.9,0-7.069,3.487-7.073,7.784v33.732c0,4.3,3.169,7.779,7.073,7.784H676.668c3.9,0,7.069-3.487,7.073-7.784V325.755c0-4.3-3.169-7.779-7.073-7.784Z" transform="translate(-317.382 -282.568)" fill="#444"/>
    <path id="Path_170534" data-name="Path 170534" d="M679.037,367.2H570.578c-4.3-.005-7.776-3.836-7.781-8.563V341c0-4.727,3.486-8.557,7.781-8.563H679.037c4.3.005,7.776,3.836,7.781,8.563V358.64c0,4.727-3.486,8.557-7.781,8.563Z" transform="translate(-337.198 -290.024)" fill="#f2f2f2"/>
    <ellipse id="Ellipse_8339" data-name="Ellipse 8339" cx="9.305" cy="10.24" rx="9.305" ry="10.24" transform="translate(247.415 47.188)" fill="#ff6584"/>
    <path id="Path_170535" data-name="Path 170535" d="M688.38,372.146l-13.134-12.123L662.339,348.11a1.757,1.757,0,0,0-2.43.005l-12.866,11.968-3.143,2.923-4.738-4.373-14.4-13.291a1.757,1.757,0,0,0-2.43.005L607.979,358.7,593.4,372.262a.553.553,0,0,0-.138.575.476.476,0,0,0,.444.34l29.891-.063,9.461-.02-.093.086,28.2-.06,26.911-.057a.477.477,0,0,0,.443-.342.553.553,0,0,0-.14-.574Z" transform="translate(-353.282 -296.001)" fill="#3f3d56"/>
    <ellipse id="Ellipse_8340" data-name="Ellipse 8340" cx="10.927" cy="12.025" rx="10.927" ry="12.025" transform="translate(82.273 82.647)" fill="#a0616a"/>
    <path id="Path_170540" data-name="Path 170540" d="M308.589,416.112q.161.141.313.3a5.667,5.667,0,0,1,1.537,4.066,5.61,5.61,0,0,1-1.733,3.969,4.679,4.679,0,0,1-.384.318l.74,27.476a4.179,4.179,0,0,1-2.615,4.083l-.045.011-20.272,2.376a4.324,4.324,0,0,1-4.583-4.149,4.521,4.521,0,0,1,3.77-5.043l14.451-1.4,2.5-23.794a4.914,4.914,0,0,1-.458-.514,5.793,5.793,0,0,1,.224-7.226,4.574,4.574,0,0,1,6.556-.472Z" transform="translate(-188.564 -329.717)" fill="#a0616a"/>
    <path id="Path_170541" data-name="Path 170541" d="M139.327,627.713h5.455l2.595-23.152h-8.05Z" transform="translate(-28.131 -365.684)" fill="#a0616a"/>
    <path id="Path_170542" data-name="Path 170542" d="M317.242,751.858h10.742c3.781,0,6.845,3.373,6.845,7.533v.245H317.242Z" transform="translate(-207.438 -491.789)" fill="#2f2e41"/>
    <path id="Path_170543" data-name="Path 170543" d="M24.366,614.742l4.686,3.071,12.993-18.432-6.917-4.532Z" transform="translate(32.618 -361.012)" fill="#a0616a"/>
    <path id="Path_170544" data-name="Path 170544" d="M200.575,734.889l9.229,6.047h0a7.971,7.971,0,0,1,2.379,10.327l-.114.21-15.111-9.9Z" transform="translate(-143.876 -483.626)" fill="#2f2e41"/>
    <path id="Path_170545" data-name="Path 170545" d="M269.643,637.545h-6.108a2.08,2.08,0,0,1-1.991-1.97l-6.157-63.694a.708.708,0,0,0-.558-.647.657.657,0,0,0-.714.423l-11.108,27.068-19.666,35.29a1.917,1.917,0,0,1-2.513.864l-7.856-3.8a2.144,2.144,0,0,1-1.1-1.347,2.4,2.4,0,0,1,.189-1.8l18.078-33.312,5.544-28.068c-1.744-12.172,5.732-30.268,5.808-30.45l.037-.089,20.592-8.857.1.139c8.121,29.328,13.069,60.889,9.415,108.236A2.1,2.1,0,0,1,269.643,637.545Z" transform="translate(-151.706 -383.694)" fill="#2f2e41"/>
    <path id="Path_170546" data-name="Path 170546" d="M262.954,508.669l-.1-.222c-.046-.106-4.625-10.734-8.154-22.093a18.269,18.269,0,0,1,1.056-13.427,15.685,15.685,0,0,1,9.814-8.305h0c7.425-1.958,15.033,2.362,17.886,10.156,2.8,7.7,1.907,15.929,1.068,22.4l-.017.13-.107.056Z" transform="translate(-173.962 -353.388)" fill="#febebe"/>
    <path id="Path_170547" data-name="Path 170547" d="M290.681,410.653H273.33V402.33c3.808-1.665,7.535-3.081,9.788,0,4.177,0,7.563,3.726,7.563,8.323Z" transform="translate(-184.233 -322.774)" fill="#2f2e41"/>
    <path id="Path_170548" data-name="Path 170548" d="M256.416,401.185c-10.373,0-13.276,14.308-13.276,22.38,0,4.5,1.85,6.112,4.757,6.657l1.027-6.026,2.4,6.285c.817,0,1.674-.013,2.564-.031l.815-1.847,1.818,1.814c7.281.012,13.166,1.18,13.166-6.852C269.691,415.493,267.145,401.185,256.416,401.185Z" transform="translate(-168.279 -323.098)" fill="#2f2e41"/>
    <path id="Path_170549" data-name="Path 170549" d="M271.875,766.971h-90.54a.521.521,0,0,1,0-1.038h90.54a.521.521,0,0,1,0,1.038Z" transform="translate(-135.37 -498.56)" fill="#ccc"/>
    <path id="Path_170550" data-name="Path 170550" d="M349.731,409.108H329.454a4.727,4.727,0,0,1-4.48-4.93V381.863a4.727,4.727,0,0,1,4.48-4.93h20.277a4.727,4.727,0,0,1,4.48,4.93v22.315A4.727,4.727,0,0,1,349.731,409.108Z" transform="translate(-211.524 -311.431)" fill="#fff"/>
    <path id="Path_170551" data-name="Path 170551" d="M349.731,409.108H329.454a4.727,4.727,0,0,1-4.48-4.93V381.863a4.727,4.727,0,0,1,4.48-4.93h20.277a4.727,4.727,0,0,1,4.48,4.93v22.315A4.727,4.727,0,0,1,349.731,409.108Zm-20.277-31.137a3.731,3.731,0,0,0-3.537,3.892v22.315a3.731,3.731,0,0,0,3.537,3.892h20.277a3.731,3.731,0,0,0,3.537-3.892V381.863a3.731,3.731,0,0,0-3.537-3.892Z" transform="translate(-211.524 -311.431)" fill="#3f3d56"/>
    <path id="Path_170552" data-name="Path 170552" d="M353.592,408.445h-13.2a1.493,1.493,0,0,1-1.415-1.557v-10.9a1.492,1.492,0,0,1,1.415-1.557h3.717a1.383,1.383,0,0,1,1.2.741l1.037,1.854h7.245a1.492,1.492,0,0,1,1.415,1.557v8.3a1.493,1.493,0,0,1-1.415,1.557Z" transform="translate(-218.922 -319.849)" fill="#a061f7"/>
    <path id="Path_170553" data-name="Path 170553" d="M325.729,429.45q.1.2.183.41a5.883,5.883,0,0,1-.017,4.4,5.082,5.082,0,0,1-3,2.918,4.242,4.242,0,0,1-.466.13l-9.007,25.639a3.793,3.793,0,0,1-3.849,2.646l-.045-.009-19.521-6.467a4.718,4.718,0,0,1-2.761-5.781A4.139,4.139,0,0,1,292.5,450.3l13.812,4.88,10.693-20.863a5.442,5.442,0,0,1-.241-.669,5.566,5.566,0,0,1,2.754-6.564,4.692,4.692,0,0,1,6.208,2.365Z" transform="translate(-191.487 -335.349)" fill="#a0616a"/>
    <g id="Group_191507" data-name="Group 191507" transform="translate(345.776 207.131)">
      <rect id="Rectangle_151019" data-name="Rectangle 151019" width="133.423" height="0.96" transform="translate(0 60.321)" fill="#ccc"/>
      <path id="Path_170569" data-name="Path 170569" d="M506.734,726.913a52.855,52.855,0,0,0-3.923-13.861l-.28-.638-2.083,2.541,1.543-3.785-.1-.22a93.144,93.144,0,0,0-4.521-8.632l-.306-.516-.408.5.286-.7-.143-.236c-2.043-3.372-3.613-5.506-3.629-5.527l-.444-.6-.285.717c-.052.131-5.241,13.288-5.928,26.288l-.011.2,3.492,4.645-3.561-2.46.006.893a41.792,41.792,0,0,0,.283,4.569q.235,1.955.554,3.818a1.734,1.734,0,0,1,.947.325q-.369-2.081-.636-4.278c-.137-1.169-.224-2.357-.259-3.542l6.888,4.759-6.821-9.073c.621-10.992,4.476-22.066,5.558-24.989.581.829,1.676,2.438,2.987,4.588l-2.383,5.845,3.4-4.145q2.209,3.784,4.065,7.8l-3.669,9,4.961-6.053a51.809,51.809,0,0,1,3.563,12.917,60.968,60.968,0,0,1-.477,19.523c-1.126,5.146-3.112,8.31-5.447,8.679a3.367,3.367,0,0,1-1.439-.094,2,2,0,0,1-1.291.433h-.127a4.709,4.709,0,0,0,2.365.7,3.9,3.9,0,0,0,.611-.048c2.746-.434,4.939-3.782,6.174-9.426A62.145,62.145,0,0,0,506.734,726.913Z" transform="translate(-378.261 -695.235)" fill="#d8befe"/>
      <path id="Path_170570" data-name="Path 170570" d="M480.978,794.119c-3.591,0-8.77-2.174-13.906-6.132a22.757,22.757,0,0,1-2.161-1.912l-.575-.578,2.175-.689-2.9-.117-.122-.141c-5.429-6.257-8.807-15.094-8.84-15.182l-.264-.7.686.034c.068,0,1.7.088,4.153.471l.153.024h0l.538.09a49.729,49.729,0,0,1,5.943,1.374l.209.062.653,1.769-.1-1.587.6.19a27.745,27.745,0,0,1,7.991,4.077c7.811,6.019,12.133,13.542,9.848,17.132A4.53,4.53,0,0,1,480.978,794.119Zm-14.887-8.18c.477.445.974.868,1.483,1.263,7.154,5.513,14.835,7.6,16.773,4.553s-2.47-10.276-9.625-15.789a26.942,26.942,0,0,0-7.142-3.75l.387,6.2-2.541-6.888a49.165,49.165,0,0,0-5.1-1.2l.281,4.5-1.749-4.741c-1.355-.2-2.448-.316-3.112-.372A56.684,56.684,0,0,0,464,783.746l7.992.322Z" transform="translate(-360.189 -733.433)" fill="#d8befe"/>
    </g>
    <g id="Group_191516" data-name="Group 191516" transform="translate(0 204.228)">
      <rect id="Rectangle_151019-2" data-name="Rectangle 151019" width="152.832" height="0.999" transform="translate(0 62.786)" fill="#ccc"/>
      <path id="Path_170569-2" data-name="Path 170569" d="M487.069,728.207a51.212,51.212,0,0,1,4.494-14.427l.321-.664,2.386,2.645-1.768-3.94.116-.229a94.183,94.183,0,0,1,5.178-8.984l.35-.537.467.518-.327-.73.164-.246c2.34-3.51,4.139-5.731,4.156-5.753l.508-.626.327.746c.06.137,6,13.831,6.79,27.363l.012.211-4,4.835,4.079-2.561-.007.929a39.6,39.6,0,0,1-.324,4.756q-.269,2.035-.634,3.974a2.118,2.118,0,0,0-1.085.338q.423-2.166.729-4.453c.158-1.217.257-2.453.3-3.686l-7.89,4.954,7.813-9.444c-.711-11.441-5.127-22.968-6.366-26.01-.665.863-1.92,2.538-3.422,4.775l2.729,6.084-3.891-4.314a93.19,93.19,0,0,0-4.656,8.117l4.2,9.369-5.682-6.3a50.138,50.138,0,0,0-4.081,13.445c-.995,7.512-.8,14.729.547,20.321,1.29,5.357,3.564,8.649,6.239,9.034a4.228,4.228,0,0,0,1.648-.1,2.446,2.446,0,0,0,1.479.451h.146a5.8,5.8,0,0,1-2.709.728,4.917,4.917,0,0,1-.7-.05c-3.146-.452-5.657-3.936-7.072-9.811C486.258,743.218,486.056,735.86,487.069,728.207Z" transform="translate(-481.4 -695.235)" fill="#d8befe"/>
      <path id="Path_170570-2" data-name="Path 170570" d="M459.763,795.159c4.114,0,10.045-2.263,15.928-6.383a25.422,25.422,0,0,0,2.476-1.99l.659-.6-2.491-.718,3.317-.121.14-.147c6.218-6.512,10.088-15.711,10.126-15.8l.3-.727-.786.036c-.078,0-1.948.092-4.757.49l-.175.025h0l-.616.094a61.8,61.8,0,0,0-6.807,1.43l-.239.065-.747,1.841.113-1.651-.686.2a33.079,33.079,0,0,0-9.154,4.244c-8.947,6.265-13.9,14.1-11.281,17.832C455.981,794.549,457.628,795.159,459.763,795.159Zm17.053-8.515c-.547.463-1.115.9-1.7,1.315-8.194,5.738-16.993,7.908-19.213,4.739s2.83-10.7,11.025-16.435a32.043,32.043,0,0,1,8.181-3.9l-.443,6.451,2.911-7.17c1.917-.509,3.878-.927,5.842-1.247l-.322,4.682,2-4.935c1.552-.213,2.8-.329,3.565-.388a57.922,57.922,0,0,1-9.458,14.606l-9.155.335Z" transform="translate(-445.292 -731.992)" fill="#d8befe"/>
    </g>
  </g>
</svg>
