<svg id="upload-thick-bottom" xmlns="http://www.w3.org/2000/svg" width="20" height="20" viewBox="0 0 20 20">
  <path id="Path_287" data-name="Path 287" d="M7.944,14.065a1.207,1.207,0,0,0,1.231,1.179h2.871a1.207,1.207,0,0,0,1.23-1.179V7.391a.207.207,0,0,1,.212-.2h2.455a.968.968,0,0,0,.965-.568.9.9,0,0,0-.265-1.055L11.481.622a1.3,1.3,0,0,0-1.74,0L4.578,5.57a.9.9,0,0,0-.266,1.055.967.967,0,0,0,.966.567H7.733a.216.216,0,0,1,.15.059.2.2,0,0,1,.062.144Z" transform="translate(-0.801 -0.288)" fill="#9bacbc" opacity="0.603"/>
  <path id="Path_288" data-name="Path 288" d="M0,19.1a3.322,3.322,0,0,0,3.363,3.273H16.637A3.322,3.322,0,0,0,20,19.1V17.575a1.022,1.022,0,0,0-2.041,0V19.1a1.306,1.306,0,0,1-1.322,1.286H3.362A1.306,1.306,0,0,1,2.041,19.1v-1.52a1.008,1.008,0,0,0-1.02-.965A1.008,1.008,0,0,0,0,17.575Z" transform="translate(0 -2.371)" fill="#9bacbc" opacity="0.603"/>
</svg>
