<svg xmlns="http://www.w3.org/2000/svg" width="82.09" height="68.3" viewBox="0 0 82.09 68.3">
  <g id="Group_189826" data-name="Group 189826" transform="translate(-2.48 -5.119)">
    <path id="Path_130692" data-name="Path 130692" d="M77.57,41.965a35.152,35.152,0,0,0-22.724-32.6,37.019,37.019,0,0,0-39.654,8.3A34.335,34.335,0,0,0,8.361,56.455H74.343A34.089,34.089,0,0,0,77.57,41.965Z" transform="translate(1.091 0.655)" fill="#d9edff"/>
    <path id="Path_130693" data-name="Path 130693" d="M5.734,40.735h70.68" transform="translate(1.369 17.796)" fill="none" stroke="#020064" stroke-linecap="round" stroke-linejoin="round" stroke-width="0.6"/>
    <path id="Path_130694" data-name="Path 130694" d="M3.034,40.735h2.2" transform="translate(0.117 17.796)" fill="none" stroke="#020064" stroke-linecap="round" stroke-linejoin="round" stroke-width="0.6"/>
    <path id="Path_130695" data-name="Path 130695" d="M53.734,40.735h2.2" transform="translate(25.805 17.796)" fill="none" stroke="#020064" stroke-linecap="round" stroke-linejoin="round" stroke-width="0.6"/>
    <path id="Path_130696" data-name="Path 130696" d="M5.48,40.735H76.16" transform="translate(1.252 17.796)" fill="none" stroke="#020064" stroke-linecap="round" stroke-linejoin="round" stroke-width="0.6"/>
    <path id="Path_130697" data-name="Path 130697" d="M2.78,40.735h2.2" transform="translate(0 17.796)" fill="none" stroke="#020064" stroke-linecap="round" stroke-linejoin="round" stroke-width="0.6"/>
    <path id="Path_130698" data-name="Path 130698" d="M53.48,40.735h2.2" transform="translate(25.688 17.796)" fill="none" stroke="#020064" stroke-linecap="round" stroke-linejoin="round" stroke-width="0.6"/>
    <path id="Path_130699" data-name="Path 130699" d="M28.673,20.464H56.4a.878.878,0,0,1,.878.878V44.863H28.673a.878.878,0,0,1-.878-.878V21.342A.878.878,0,0,1,28.673,20.464Z" transform="translate(13.2 7.935)" fill="#fff"/>
    <path id="Path_130700" data-name="Path 130700" d="M27.794,34.7H57.28v3.558H28.673a.878.878,0,0,1-.878-.878Z" transform="translate(13.2 14.823)" fill="#b0d9ff"/>
    <path id="Path_130701" data-name="Path 130701" d="M47.94,42.931v-18.3h7.026a5.316,5.316,0,0,1,4.716,3.822l1.3,4.913a4.865,4.865,0,0,1,.165,1.257V41.71a1.22,1.22,0,0,1-1.22,1.22Z" transform="translate(23.119 9.977)" fill="#b0d9ff"/>
    <path id="Path_130702" data-name="Path 130702" d="M47.94,42.931v-18.3h7.026a5.316,5.316,0,0,1,4.716,3.822l1.3,4.913a4.865,4.865,0,0,1,.165,1.257V41.71a1.22,1.22,0,0,1-1.22,1.22Z" transform="translate(23.119 9.977)" fill="none" stroke="#020064" stroke-linecap="round" stroke-linejoin="round" stroke-width="0.6"/>
    <path id="Path_130703" data-name="Path 130703" d="M28.673,20.464H56.4a.878.878,0,0,1,.878.878V44.863H28.673a.878.878,0,0,1-.878-.878V21.342A.878.878,0,0,1,28.673,20.464Z" transform="translate(13.2 7.935)" fill="none" stroke="#020064" stroke-width="0.6"/>
    <path id="Path_130704" data-name="Path 130704" d="M27.794,34.7H57.28v3.558H28.673a.878.878,0,0,1-.878-.878Z" transform="translate(13.2 14.823)" fill="none" stroke="#020064" stroke-width="0.6"/>
    <path id="Path_130705" data-name="Path 130705" d="M55.3,38.617H56.52a1.22,1.22,0,0,0,1.22-1.221v-3.46a2.44,2.44,0,0,0-2.44,2.44Z" transform="translate(26.531 14.457)" fill="#fff"/>
    <path id="Path_130706" data-name="Path 130706" d="M49.766,35.544A4.1,4.1,0,0,1,53.993,39h2.453a6.537,6.537,0,0,0-6.68-5.9,6.657,6.657,0,0,0-1.829.263v2.591A4.251,4.251,0,0,1,49.766,35.544Z" transform="translate(23.118 14.058)" fill="#b0d9ff"/>
    <path id="Path_130707" data-name="Path 130707" d="M55.3,38.617H56.52a1.22,1.22,0,0,0,1.22-1.221v-3.46a2.44,2.44,0,0,0-2.44,2.44Z" transform="translate(26.531 14.457)" fill="none" stroke="#020064" stroke-linejoin="round" stroke-width="0.6"/>
    <path id="Path_130708" data-name="Path 130708" d="M49.766,35.544A4.1,4.1,0,0,1,53.993,39h2.453a6.537,6.537,0,0,0-6.68-5.9,6.657,6.657,0,0,0-1.829.263v2.591A4.251,4.251,0,0,1,49.766,35.544Z" transform="translate(23.118 14.058)" fill="none" stroke="#020064" stroke-linejoin="round" stroke-width="0.6"/>
    <path id="Path_130709" data-name="Path 130709" d="M46.27,39.04a4.27,4.27,0,1,0,4.269-4.27,4.27,4.27,0,0,0-4.269,4.27Z" transform="translate(22.345 14.965)" fill="#b0d9ff"/>
    <path id="Path_130710" data-name="Path 130710" d="M48.354,38.074a1.22,1.22,0,1,0,1.219-1.22A1.22,1.22,0,0,0,48.354,38.074Z" transform="translate(23.311 15.888)" fill="#fff"/>
    <path id="Path_130711" data-name="Path 130711" d="M46.27,39.04a4.27,4.27,0,1,0,4.269-4.27,4.27,4.27,0,0,0-4.269,4.27Z" transform="translate(22.345 14.965)" fill="none" stroke="#020064" stroke-linejoin="round" stroke-width="0.6"/>
    <path id="Path_130712" data-name="Path 130712" d="M48.354,38.074a1.22,1.22,0,1,0,1.219-1.22A1.22,1.22,0,0,0,48.354,38.074Z" transform="translate(23.311 15.888)" fill="none" stroke="#020064" stroke-linejoin="round" stroke-width="0.6"/>
    <path id="Path_130713" data-name="Path 130713" d="M30.295,39.04a4.27,4.27,0,1,0,4.27-4.27A4.27,4.27,0,0,0,30.295,39.04Z" transform="translate(13.998 14.965)" fill="#b0d9ff"/>
    <path id="Path_130714" data-name="Path 130714" d="M32.378,38.074a1.22,1.22,0,1,0,1.22-1.22A1.22,1.22,0,0,0,32.378,38.074Z" transform="translate(14.952 15.888)" fill="#fff"/>
    <path id="Path_130715" data-name="Path 130715" d="M30.295,39.04a4.27,4.27,0,1,0,4.27-4.27A4.27,4.27,0,0,0,30.295,39.04Z" transform="translate(13.998 14.965)" fill="none" stroke="#020064" stroke-linejoin="round" stroke-width="0.6"/>
    <path id="Path_130716" data-name="Path 130716" d="M32.378,38.074a1.22,1.22,0,1,0,1.22-1.22A1.22,1.22,0,0,0,32.378,38.074Z" transform="translate(14.952 15.888)" fill="none" stroke="#020064" stroke-linejoin="round" stroke-width="0.6"/>
    <path id="Path_130717" data-name="Path 130717" d="M55.443,33.045A1.359,1.359,0,0,0,56.9,31.337l-1.092-4a1.219,1.219,0,0,0-1.177-.9H50.685a1.22,1.22,0,0,0-1.221,1.22v2.311a1.381,1.381,0,0,0,.628,1.157A11.251,11.251,0,0,0,55.443,33.045Z" transform="translate(23.826 10.684)" fill="#fff"/>
    <path id="Path_130718" data-name="Path 130718" d="M55.443,33.045A1.359,1.359,0,0,0,56.9,31.337l-1.092-4a1.219,1.219,0,0,0-1.177-.9H50.685a1.22,1.22,0,0,0-1.221,1.22v2.311a1.381,1.381,0,0,0,.628,1.157A11.251,11.251,0,0,0,55.443,33.045Z" transform="translate(23.826 10.684)" fill="none" stroke="#020064" stroke-linejoin="round" stroke-width="0.6"/>
    <path id="Path_130719" data-name="Path 130719" d="M30.225,26.021H40.391" transform="translate(6.047 5.157)" fill="none" stroke="#020064" stroke-linecap="round" stroke-linejoin="round" stroke-width="0.6"/>
    <path id="Path_130720" data-name="Path 130720" d="M31.614,27.41h8.133" transform="translate(6.724 5.857)" fill="none" stroke="#020064" stroke-linecap="round" stroke-linejoin="round" stroke-width="0.6"/>
    <path id="Path_130721" data-name="Path 130721" d="M33,28.8h6.1" transform="translate(7.4 6.557)" fill="none" stroke="#020064" stroke-linecap="round" stroke-linejoin="round" stroke-width="0.6"/>
    <path id="Path_130722" data-name="Path 130722" d="M34.393,30.188h4.066" transform="translate(8.073 7.257)" fill="none" stroke="#020064" stroke-linecap="round" stroke-linejoin="round" stroke-width="0.6"/>
    <path id="Path_130727" data-name="Path 130727" d="M12.325,50.08c0,.837,9.721,1.515,21.713,1.515s21.713-.678,21.713-1.515-9.721-1.515-21.713-1.515-21.713.678-21.713,1.515Z" transform="translate(5.274 21.824)" fill="#b0d9ff"/>
    <path id="Path_130728" data-name="Path 130728" d="M6.567,29.2a1.767,1.767,0,0,1-.11,3.533l-.767-.024a1.01,1.01,0,0,1-.977-1.054l.065-1.513a1.011,1.011,0,0,1,1.041-.966Z" transform="translate(0.896 12.023)" fill="#ffcebf" stroke="#020064" stroke-linecap="round" stroke-linejoin="round" stroke-width="0.6"/>
    <path id="Path_130729" data-name="Path 130729" d="M25.975,23.117a.878.878,0,0,1-.641-.846V18.347H21.2v3.922a.878.878,0,0,1-.642.845,10.023,10.023,0,0,0-7.317,9.65V36.1a1.6,1.6,0,0,1-1.669,1.669,3.792,3.792,0,0,1-2.981-1.918L7.43,33.761a1.949,1.949,0,1,0-3.407,1.892l1.161,2.092a7.2,7.2,0,0,0,6.389,3.922c2.227,0,5.011-1.669,5.568-3.337v1.114H29.383V46.4a1.949,1.949,0,0,0,3.9,0V32.763a10.023,10.023,0,0,0-7.3-9.645Z" transform="translate(0.462 6.946)" fill="#fff"/>
    <path id="Path_130730" data-name="Path 130730" d="M25.975,23.117a.878.878,0,0,1-.641-.846V18.347H21.2v3.922a.878.878,0,0,1-.642.845,10.023,10.023,0,0,0-7.317,9.65V36.1a1.6,1.6,0,0,1-1.669,1.669,3.792,3.792,0,0,1-2.981-1.918L7.43,33.761a1.949,1.949,0,1,0-3.407,1.892l1.161,2.092a7.2,7.2,0,0,0,6.389,3.922c2.227,0,5.011-1.669,5.568-3.337v1.114H29.383V46.4a1.949,1.949,0,0,0,3.9,0V32.763a10.023,10.023,0,0,0-7.3-9.645Z" transform="translate(0.462 6.946)" fill="none" stroke="#020064" stroke-linecap="round" stroke-linejoin="round" stroke-width="0.605"/>
    <path id="Path_130731" data-name="Path 130731" d="M14.45,43.791l.346,5.568h7.031l.346-5.568Z" transform="translate(5.931 19.611)" fill="#fff"/>
    <path id="Path_130732" data-name="Path 130732" d="M14.45,43.791l.346,5.568h7.031l.346-5.568Z" transform="translate(5.931 19.611)" fill="none" stroke="#020064" stroke-linecap="round" stroke-linejoin="round" stroke-width="0.6"/>
    <path id="Path_130733" data-name="Path 130733" d="M17.088,43.791v3.9" transform="translate(7.21 19.611)" fill="none" stroke="#020064" stroke-linecap="round" stroke-linejoin="round" stroke-width="0.6"/>
    <path id="Path_130734" data-name="Path 130734" d="M13.721,49.8l1.229-4.1.069,1.114a1.581,1.581,0,0,0,1.554,1.669c1.229,0,2.1-.439,2.1-1.669v3.337a1.113,1.113,0,0,1-1.113,1.113H14.778a1.113,1.113,0,0,1-1.054-1.465Z" transform="translate(5.515 20.493)" fill="#b0d9ff" stroke="#020064" stroke-linecap="round" stroke-linejoin="round" stroke-width="0.6"/>
    <path id="Path_130735" data-name="Path 130735" d="M22.041,49.8l-1.229-4.1-.069,1.114a1.581,1.581,0,0,1-1.553,1.669c-1.229,0-2.1-.439-2.1-1.669v3.337A1.114,1.114,0,0,0,18.2,51.256h2.783a1.114,1.114,0,0,0,1.054-1.465Z" transform="translate(7.248 20.493)" fill="#b0d9ff" stroke="#020064" stroke-linecap="round" stroke-linejoin="round" stroke-width="0.6"/>
    <path id="Path_130736" data-name="Path 130736" d="M4.18,24.773H9.746V34.794H4.18Z" transform="translate(0.649 9.891)" fill="#fff" stroke="#020064" stroke-linecap="round" stroke-linejoin="round" stroke-width="0.6"/>
    <path id="Path_130737" data-name="Path 130737" d="M27.35,18.891a1.372,1.372,0,0,0-1.114-1.336v-.891a6.68,6.68,0,1,0-13.361,0v.891a1.364,1.364,0,0,0,.14,2.7,6.681,6.681,0,0,0,13.085,0,1.378,1.378,0,0,0,1.25-1.364Z" transform="translate(4.615 2.116)" fill="#fff" stroke="#020064" stroke-linecap="round" stroke-linejoin="round" stroke-width="0.6"/>
    <path id="Path_130738" data-name="Path 130738" d="M14.045,16.9a.835.835,0,1,0,.835-.835.835.835,0,0,0-.835.835Z" transform="translate(5.686 5.378)" fill="#b0d9ff"/>
    <path id="Path_130739" data-name="Path 130739" d="M18.99,16.9a.835.835,0,1,0,.835-.835A.835.835,0,0,0,18.99,16.9Z" transform="translate(8.182 5.378)" fill="#b0d9ff"/>
    <path id="Path_130740" data-name="Path 130740" d="M19.286,17.972a2.784,2.784,0,0,1-3.337,0" transform="translate(6.659 6.329)" fill="none" stroke="#020064" stroke-linecap="round" stroke-linejoin="round" stroke-width="0.6"/>
    <path id="Path_130741" data-name="Path 130741" d="M15.641,14.548a.835.835,0,1,0,.835.835A.835.835,0,0,0,15.641,14.548Z" transform="translate(6.07 4.61)" fill="#020064"/>
    <path id="Path_130742" data-name="Path 130742" d="M19.064,14.548a.835.835,0,1,0,.835.835.835.835,0,0,0-.835-.835Z" transform="translate(7.798 4.61)" fill="#020064"/>
    <path id="Path_130743" data-name="Path 130743" d="M16.507,10.572a7.357,7.357,0,0,1,1.222-.139,7.816,7.816,0,0,1,1.706.135,2.783,2.783,0,1,0-2.929,0Z" transform="translate(6.29)" fill="#fff" stroke="#020064" stroke-linecap="round" stroke-linejoin="round" stroke-width="0.6"/>
    <path id="Path_130744" data-name="Path 130744" d="M19.318,8.846a8.011,8.011,0,0,0-7.552,8.117v6.354A5.567,5.567,0,0,0,13,26.817a.557.557,0,0,0,.99-.351V20.957a4.6,4.6,0,0,1,1.756-3.633,14.613,14.613,0,0,0,2.8-2.746,1.132,1.132,0,0,1,1.374-.389c2.459,1.078,3.7,2.936,4.836,4.127a.556.556,0,0,0,.644.119,1.366,1.366,0,0,1,1.942,1.123l.007-2.923a7.794,7.794,0,0,0-8.039-7.789Z" transform="translate(4.615 1.587)" fill="#fff"/>
    <path id="Path_130745" data-name="Path 130745" d="M19.318,8.846a8.011,8.011,0,0,0-7.552,8.117v6.354A5.567,5.567,0,0,0,13,26.817a.557.557,0,0,0,.99-.351V20.957a4.6,4.6,0,0,1,1.756-3.633,14.613,14.613,0,0,0,2.8-2.746,1.132,1.132,0,0,1,1.374-.389c2.459,1.078,3.7,2.936,4.836,4.127a.556.556,0,0,0,.644.119,1.366,1.366,0,0,1,1.942,1.123l.007-2.923a7.794,7.794,0,0,0-8.039-7.789Z" transform="translate(4.615 1.587)" fill="none" stroke="#020064" stroke-linecap="round" stroke-linejoin="round" stroke-width="0.6"/>
    <path id="Path_130746" data-name="Path 130746" d="M26.366,32.919a2.772,2.772,0,0,1,.552-2.073,2.066,2.066,0,0,0,.4-1.825H30.2a9.963,9.963,0,0,0-2.027-5.006H12.311a9.963,9.963,0,0,0-2.027,5.006h2.879a2.066,2.066,0,0,0,.4,1.825,2.772,2.772,0,0,1,.552,2.073v3.9s-.989,2.628-1.054,15.026a1.113,1.113,0,0,0,1.114,1.119H26.3a1.113,1.113,0,0,0,1.114-1.119c-.061-12.4-1.054-15.026-1.054-15.026Z" transform="translate(3.479 9.952)" fill="#fff"/>
    <path id="Path_130747" data-name="Path 130747" d="M14.045,24.013h1.67V52.962h-1.67Z" transform="translate(5.686 9.951)" fill="#b0d9ff"/>
    <path id="Path_130748" data-name="Path 130748" d="M16.327,24.013h2.227V52.962H16.327Z" transform="translate(6.842 9.951)" fill="#b0d9ff"/>
    <path id="Path_130749" data-name="Path 130749" d="M18.99,24.013h1.67V52.962H18.99Z" transform="translate(8.182 9.951)" fill="#b0d9ff"/>
    <path id="Path_130750" data-name="Path 130750" d="M26.366,32.919a2.772,2.772,0,0,1,.552-2.073,2.066,2.066,0,0,0,.4-1.825H30.2a9.963,9.963,0,0,0-2.027-5.006H12.311a9.963,9.963,0,0,0-2.027,5.006h2.879a2.066,2.066,0,0,0,.4,1.825,2.772,2.772,0,0,1,.552,2.073v3.9s-.989,2.628-1.054,15.026a1.113,1.113,0,0,0,1.114,1.119H26.3a1.113,1.113,0,0,0,1.114-1.119c-.061-12.4-1.054-15.026-1.054-15.026Z" transform="translate(3.479 9.952)" fill="none" stroke="#020064" stroke-linecap="round" stroke-linejoin="round" stroke-width="0.6"/>
    <path id="Path_130751" data-name="Path 130751" d="M23.342,42.01H40.511v10.1H23.342Z" transform="translate(10.59 18.785)" fill="#fff"/>
    <path id="Path_130752" data-name="Path 130752" d="M25.412,35.11H34.5v10.1H25.412Z" transform="translate(11.522 15.176)" fill="#fff"/>
    <path id="Path_130753" data-name="Path 130753" d="M23.342,42.01H40.511v10.1H23.342Z" transform="translate(10.59 18.785)" fill="none" stroke="#020064" stroke-linecap="round" stroke-linejoin="round" stroke-width="0.6"/>
    <path id="Path_130754" data-name="Path 130754" d="M23.582,42.179l8.234,5.812,8.233-5.812" transform="translate(10.701 18.864)" fill="none" stroke="#020064" stroke-linecap="round" stroke-linejoin="round" stroke-width="0.6"/>
    <path id="Path_130755" data-name="Path 130755" d="M23.554,50.386l5.75-5.271" transform="translate(10.533 20.225)" fill="none" stroke="#020064" stroke-linecap="round" stroke-linejoin="round" stroke-width="0.6"/>
    <path id="Path_130756" data-name="Path 130756" d="M36.682,50.386l-5.75-5.271" transform="translate(14.274 20.225)" fill="none" stroke="#020064" stroke-linecap="round" stroke-linejoin="round" stroke-width="0.6"/>
    <path id="Path_130757" data-name="Path 130757" d="M25.412,35.11H34.5v10.1H25.412Z" transform="translate(11.522 15.176)" fill="none" stroke="#020064" stroke-linecap="round" stroke-linejoin="round" stroke-width="0.6"/>
    <path id="Path_130758" data-name="Path 130758" d="M34.5,38.215H25.412" transform="translate(11.522 16.526)" fill="none" stroke="#020064" stroke-linecap="round" stroke-linejoin="round" stroke-width="0.6"/>
    <path id="Path_130759" data-name="Path 130759" d="M28.517,35.11v10.1" transform="translate(12.969 15.176)" fill="none" stroke="#020064" stroke-linecap="round" stroke-linejoin="round" stroke-width="0.6"/>
    <path id="Path_130760" data-name="Path 130760" d="M35.176,46.5l.657-.768a1.011,1.011,0,0,0-.112-1.424l-3.839-3.281-2.136.168.167,2.136,3.839,3.281a1.009,1.009,0,0,0,1.424-.112Z" transform="translate(13.682 18.33)" fill="#b0d9ff" stroke="#020064" stroke-linecap="round" stroke-linejoin="round" stroke-width="0.6"/>
    <path id="Path_130761" data-name="Path 130761" d="M28.6,38.215A4.424,4.424,0,0,0,30.307,42.5" transform="translate(13.003 16.617)" fill="none" stroke="#020064" stroke-linecap="round" stroke-linejoin="round" stroke-width="0.6"/>
    <path id="Path_130762" data-name="Path 130762" d="M35.072,37.18h10.1V54.349h-10.1Z" transform="translate(16.461 16.546)" fill="#fff"/>
    <path id="Path_130763" data-name="Path 130763" d="M35.072,37.18h10.1V54.349h-10.1Z" transform="translate(16.461 16.546)" fill="none" stroke="#020064" stroke-linecap="round" stroke-linejoin="round" stroke-width="0.6"/>
    <path id="Path_130764" data-name="Path 130764" d="M38.522,37.18V54.349" transform="translate(18.01 16.546)" fill="none" stroke="#020064" stroke-linecap="round" stroke-linejoin="round" stroke-width="0.6"/>
    <path id="Path_130765" data-name="Path 130765" d="M44.637,46.355l.816-.6a1.01,1.01,0,0,0,.22-1.411L42.694,40.27l-2.116-.33-.33,2.117,2.978,4.077a1.01,1.01,0,0,0,1.411.22Z" transform="translate(18.994 17.825)" fill="#b0d9ff" stroke="#020064" stroke-linecap="round" stroke-linejoin="round" stroke-width="0.6"/>
    <path id="Path_130766" data-name="Path 130766" d="M39.126,37.18A4.96,4.96,0,0,0,41.1,41.22" transform="translate(18.352 16.087)" fill="none" stroke="#020064" stroke-linecap="round" stroke-linejoin="round" stroke-width="0.6"/>
  </g>
</svg>
