<svg xmlns="http://www.w3.org/2000/svg" width="95.669" height="95.669" viewBox="0 0 95.669 95.669">
  <g id="Group_191548" data-name="Group 191548" transform="translate(287 -5.666)">
    <g id="file-icon" transform="translate(-287 5.666)">
      <g id="Path_170649" data-name="Path 170649">
        <path d="M 47.83447265625 95.1689453125 C 41.44413375854492 95.1689453125 35.24522399902344 93.91749572753906 29.40991020202637 91.44937133789062 C 23.77342224121094 89.06533813476562 18.71122360229492 85.65227508544922 14.36394786834717 81.30500030517578 C 10.01667308807373 76.95772552490234 6.603610038757324 71.89552307128906 4.2195725440979 66.259033203125 C 1.751447677612305 60.42372131347656 0.4999976456165314 54.22481155395508 0.4999976456165314 47.83447265625 C 0.4999976456165314 41.44413375854492 1.751447677612305 35.24522399902344 4.2195725440979 29.40991020202637 C 6.603610038757324 23.77342224121094 10.01667308807373 18.71122360229492 14.36394786834717 14.36394786834717 C 18.71122360229492 10.01667308807373 23.77342224121094 6.603610038757324 29.40991020202637 4.2195725440979 C 35.24522399902344 1.751447677612305 41.44413375854492 0.4999976456165314 47.83447265625 0.4999976456165314 C 54.22481155395508 0.4999976456165314 60.42372131347656 1.751447677612305 66.259033203125 4.2195725440979 C 71.89552307128906 6.603610038757324 76.95772552490234 10.01667308807373 81.30500030517578 14.36394786834717 C 85.65227508544922 18.71122360229492 89.06533813476562 23.77342224121094 91.44937133789062 29.40991020202637 C 93.91749572753906 35.24522399902344 95.1689453125 41.44413375854492 95.1689453125 47.83447265625 C 95.1689453125 54.22481155395508 93.91749572753906 60.42372131347656 91.44937133789062 66.259033203125 C 89.06533813476562 71.89552307128906 85.65227508544922 76.95772552490234 81.30500030517578 81.30500030517578 C 76.95772552490234 85.65227508544922 71.89552307128906 89.06533813476562 66.259033203125 91.44937133789062 C 60.42372131347656 93.91749572753906 54.22481155395508 95.1689453125 47.83447265625 95.1689453125 Z" stroke="none"/>
        <path d="M 47.83447265625 1 C 41.51142120361328 1 35.37803649902344 2.238143920898438 29.60468292236328 4.680068969726562 C 24.02779388427734 7.038894653320312 19.01902008056641 10.41596984863281 14.71749877929688 14.71749877929688 C 10.41596984863281 19.01902008056641 7.038894653320312 24.02779388427734 4.680068969726562 29.60468292236328 C 2.238143920898438 35.37803649902344 1 41.51142120361328 1 47.83447265625 C 1 54.15752410888672 2.238143920898438 60.29090881347656 4.680068969726562 66.06424713134766 C 7.038894653320312 71.64114379882812 10.41598510742188 76.64992523193359 14.71749877929688 80.95144653320312 C 19.01902008056641 85.25296020507812 24.02779388427734 88.63005065917969 29.60468292236328 90.98887634277344 C 35.37803649902344 93.4307861328125 41.51142120361328 94.6689453125 47.83447265625 94.6689453125 C 54.15752410888672 94.6689453125 60.29090881347656 93.4307861328125 66.06424713134766 90.98887634277344 C 71.64114379882812 88.63005065917969 76.64992523193359 85.25296020507812 80.95144653320312 80.95144653320312 C 85.25296020507812 76.64992523193359 88.63005065917969 71.64114379882812 90.98887634277344 66.06424713134766 C 93.4307861328125 60.29090881347656 94.6689453125 54.15752410888672 94.6689453125 47.83447265625 C 94.6689453125 41.51142120361328 93.4307861328125 35.37803649902344 90.98887634277344 29.60468292236328 C 88.63005065917969 24.02779388427734 85.25296020507812 19.01902008056641 80.95144653320312 14.71749877929688 C 76.64992523193359 10.41598510742188 71.64114379882812 7.038894653320312 66.06424713134766 4.680068969726562 C 60.29090881347656 2.238143920898438 54.15752410888672 1 47.83447265625 1 M 47.83447265625 0 C 74.25270843505859 0 95.6689453125 21.41622161865234 95.6689453125 47.83447265625 C 95.6689453125 74.25270843505859 74.25270843505859 95.6689453125 47.83447265625 95.6689453125 C 21.41622161865234 95.6689453125 0 74.25270843505859 0 47.83447265625 C 0 21.41622161865234 21.41622161865234 0 47.83447265625 0 Z" stroke="none" fill="#000"/>
      </g>
    </g>
    <path id="cookies" d="M56.818,27.966a7.173,7.173,0,0,0,3.8,3.216c1.357.367,2.944.034,4.814-1.119a1.59,1.59,0,0,1,2.2.527,1.621,1.621,0,0,1,.238.816q.107,1.168.133,2.37c.017.813.01,1.618-.027,2.421h0a1.394,1.394,0,0,1-.017.211A33.893,33.893,0,0,1,56.886,59.733a33.553,33.553,0,0,1-24.249,8.728v.007h0a1.43,1.43,0,0,1-.211-.017A33.869,33.869,0,0,1,.54,32.951h0a1.393,1.393,0,0,1,.017-.211A33.843,33.843,0,0,1,11.886,9.327,34.275,34.275,0,0,1,36.387.538h0a1.6,1.6,0,0,1,1.6,1.608,1.565,1.565,0,0,1-.126.622,9.227,9.227,0,0,0-.15,5.641,4.9,4.9,0,0,0,3,3.07,1.6,1.6,0,0,1,.962,1.975h.007a14.166,14.166,0,0,0-.289,8.49,8.5,8.5,0,0,0,5.685,5.661,13.055,13.055,0,0,0,7.919-.306,1.606,1.606,0,0,1,1.833.666h0ZM33.3,32.682a2.788,2.788,0,1,1-2.771,2.788A2.775,2.775,0,0,1,33.3,32.682ZM21.284,44.158a3.4,3.4,0,1,1-3.38,3.4,3.39,3.39,0,0,1,3.38-3.4Zm7.283-26a2.666,2.666,0,1,1-2.652,2.666,2.656,2.656,0,0,1,2.652-2.666Zm37.951.36a1.992,1.992,0,1,1-1.982,1.992,1.987,1.987,0,0,1,1.982-1.992Zm-14.212-5.28a3,3,0,1,1-2.982,3,2.987,2.987,0,0,1,2.982-3h0ZM54.615.82a3.217,3.217,0,1,1-3.2,3.216A3.211,3.211,0,0,1,54.615.82ZM42.959,45.341a4.468,4.468,0,1,1-4.444,4.468,4.455,4.455,0,0,1,4.444-4.468Zm-24.8-18.83a4.835,4.835,0,1,1-4.808,4.835,4.82,4.82,0,0,1,4.808-4.835Zm46.618,9.6ZM32.711,61.848Z" transform="translate(-273.665 19)" fill="none" stroke="#a061f7" stroke-linecap="round" stroke-linejoin="round" stroke-width="2.5"/>
  </g>
</svg>
