<!-- <svg viewBox="0 0 32 32">
<circle id="Ellipse_7" cx="16" cy="16" r="16"/>
<circle id="Ellipse_8101" class="icon" cx="16" cy="9.48" r="1.96"/>
<circle id="Ellipse_8102" class="icon" cx="16" cy="16" r="1.96"/>
<circle id="Ellipse_8103" class="icon" cx="16" cy="22.52" r="1.96"/>
</svg> -->
<svg id="a" viewBox="0 0 5.615 21"><defs></defs><path class="icon" d="M5.115,18.192c0,1.275-1.033,2.308-2.308,2.308s-2.308-1.033-2.308-2.308,1.033-2.308,2.308-2.308,2.308,1.033,2.308,2.308Zm0-7.692c0,1.275-1.033,2.308-2.308,2.308s-2.308-1.033-2.308-2.308,1.033-2.308,2.308-2.308,2.308,1.033,2.308,2.308Zm0-7.692c0,1.275-1.033,2.308-2.308,2.308S.5,4.082,.5,2.808,1.533,.5,2.808,.5s2.308,1.033,2.308,2.308Z"/></svg>