<svg viewBox="0 0 21.5 21.5">
<path id="Path_129643" class="icon" d="M.75,15.39c0-3.28,2.66-5.93,5.94-5.93,.8,0,1.59,.16,2.32,.47"/>
<circle id="Ellipse_8231" class="icon" cx="6.68" cy="4.38" r="3.62"/>
<circle id="Ellipse_8232" class="icon" cx="15.43" cy="14.76" r="1.32"/>
<path id="Path_129644" class="icon" d="M16.6,9.72l.39,1.28c.13,.44,.58,.7,1.03,.6l1.29-.3c.63-.14,1.26,.26,1.41,.89,.09,.38-.02,.77-.29,1.06l-.91,.98c-.32,.34-.32,.86,0,1.2l.91,.98c.44,.48,.41,1.22-.06,1.66-.28,.26-.68,.37-1.06,.29l-1.29-.3c-.45-.1-.9,.16-1.03,.6l-.39,1.27c-.19,.62-.84,.97-1.46,.78-.38-.11-.67-.41-.78-.78l-.39-1.28c-.13-.44-.58-.7-1.03-.6l-1.29,.3c-.63,.15-1.27-.25-1.41-.88-.09-.38,.02-.78,.29-1.07l.91-.98c.32-.34,.32-.86,0-1.2l-.91-.98c-.44-.48-.41-1.22,.06-1.66,.28-.26,.68-.37,1.06-.28l1.29,.3c.45,.1,.9-.16,1.03-.6l.39-1.28c.19-.62,.84-.97,1.46-.78,.38,.11,.67,.41,.78,.78h0Z"/>
</svg>