<!-- <svg xmlns="http://www.w3.org/2000/svg" width="30" height="37.999" viewBox="0 0 38 37.999">
		<g id="Group_172919" data-name="Group 172919" transform="translate(-485 -166)">
		  <g id="streamline-icon-alert-bell-notification-1_48x48"
			data-name="streamline-icon-alert-bell-notification-1@48x48" transform="translate(484.5 165.5)">
			<path id="Path_129760" data-name="Path 129760"
			  d="M32.1,20.7a9.6,9.6,0,1,0-9.6-9.6A9.6,9.6,0,0,0,32.1,20.7Z" transform="translate(-4.2)" fill="none"
			  stroke="#909090" stroke-linecap="round" stroke-linejoin="round" stroke-width="2" />
			<path id="Path_129761" data-name="Path 129761" d="M34.35,19.2a.6.6,0,0,1,0-1.2"
			  transform="translate(-6.45 -3.3)" fill="none" stroke="#909090" stroke-width="2" />
			<path id="Path_129762" data-name="Path 129762" d="M34.5,19.2a.6.6,0,1,0,0-1.2"
			  transform="translate(-6.6 -3.3)" fill="none" stroke="#909090" stroke-width="2" />
			<path id="Path_129763" data-name="Path 129763" d="M34.5,12.3V7.5" transform="translate(-6.6 -1.2)"
			  fill="none" stroke="#909090" stroke-linecap="round" stroke-linejoin="round" stroke-width="2" />
			<path id="Path_129764" data-name="Path 129764"
			  d="M28.308,25.679A11.783,11.783,0,0,0,30.3,30.3H1.5s2.4-3.726,2.4-13.2a12,12,0,0,1,12-12V1.5"
			  fill="none" stroke="#909090" stroke-linecap="round" stroke-linejoin="round" stroke-width="2" />
			<path id="Path_129765" data-name="Path 129765" d="M15.5,43.5a3.339,3.339,0,0,0,6.408,0"
			  transform="translate(-2.799 -8.4)" fill="none" stroke="#909090" stroke-linecap="round"
			  stroke-linejoin="round" stroke-width="2" />
		  </g>
		</g>
	  </svg> -->

	  <svg id="a" viewBox="0 0 19.355 21"><defs></defs><path class="icon" d="M18.501,14.577c-.055-.041-.099-.074-.125-.095-2.184-1.758-3.207-4.23-3.207-7.72,0-1.233-.575-2.37-1.618-3.2-.196-.156-.405-.299-.626-.428-.291-.17-.489-.424-.542-.711l-.005-.027c-.2-1.072-1.344-1.897-2.723-1.897-1.355,0-2.484,.797-2.711,1.843-.003,.013-.005,.027-.008,.044-.044,.299-.244,.57-.546,.746-.222,.129-.432,.272-.629,.429-1.043,.831-1.618,1.967-1.618,3.2,0,3.44-.994,5.893-3.117,7.646-.042,.035-.12,.094-.217,.165-.49,.362-.382,1.011,.21,1.253,.071,.029,.129,.052,.165,.066,.974,.376,1.982,.687,3.012,.93,.645,.152,1.14,.569,1.313,1.096,.488,1.485,2.162,2.582,4.146,2.582s3.658-1.097,4.146-2.582c.173-.525,.665-.943,1.309-1.094,1.084-.255,2.143-.585,3.164-.988l.006-.002c.599-.238,.715-.892,.221-1.256ZM.63,15.122c1.335,.801,3.743,1.989,7.01,2.307,3.826,.373,6.86-.637,8.412-1.154,1.203-.401,2.154-.831,2.804-1.154M3.918,9.631c.851,.801,2.388,1.989,4.471,2.307,2.44,.373,4.376-.637,5.366-1.154,.767-.401,1.374-.831,1.789-1.154"/></svg>