<svg xmlns="http://www.w3.org/2000/svg" width="30" height="37.999" viewBox="0 0 38 37.999">
		<g id="Group_172919" data-name="Group 172919" transform="translate(-485 -166)">
		  <g id="streamline-icon-alert-bell-notification-1_48x48"
			data-name="streamline-icon-alert-bell-notification-1@48x48" transform="translate(484.5 165.5)">
			<path id="Path_129760" data-name="Path 129760"
			  d="M32.1,20.7a9.6,9.6,0,1,0-9.6-9.6A9.6,9.6,0,0,0,32.1,20.7Z" transform="translate(-4.2)" fill="none"
			  stroke="#909090" stroke-linecap="round" stroke-linejoin="round" stroke-width="2" />
			<path id="Path_129761" data-name="Path 129761" d="M34.35,19.2a.6.6,0,0,1,0-1.2"
			  transform="translate(-6.45 -3.3)" fill="none" stroke="#909090" stroke-width="2" />
			<path id="Path_129762" data-name="Path 129762" d="M34.5,19.2a.6.6,0,1,0,0-1.2"
			  transform="translate(-6.6 -3.3)" fill="none" stroke="#909090" stroke-width="2" />
			<path id="Path_129763" data-name="Path 129763" d="M34.5,12.3V7.5" transform="translate(-6.6 -1.2)"
			  fill="none" stroke="#909090" stroke-linecap="round" stroke-linejoin="round" stroke-width="2" />
			<path id="Path_129764" data-name="Path 129764"
			  d="M28.308,25.679A11.783,11.783,0,0,0,30.3,30.3H1.5s2.4-3.726,2.4-13.2a12,12,0,0,1,12-12V1.5"
			  fill="none" stroke="#909090" stroke-linecap="round" stroke-linejoin="round" stroke-width="2" />
			<path id="Path_129765" data-name="Path 129765" d="M15.5,43.5a3.339,3.339,0,0,0,6.408,0"
			  transform="translate(-2.799 -8.4)" fill="none" stroke="#909090" stroke-linecap="round"
			  stroke-linejoin="round" stroke-width="2" />
		  </g>
		</g>
	  </svg>