<!-- <svg xmlns="http://www.w3.org/2000/svg" width="18" height="21.73" viewBox="0 0 20.943 23.74">
  <g id="Component_203_6" data-name="Component 203 – 6" transform="translate(0.75 1)">
	<g id="Group_90" data-name="Group 90">
	  <path id="Path_25" data-name="Path 25" d="M8.333,18.125a2.411,2.411,0,0,0,4.626,0"
		transform="translate(-1.848 2.133)" fill="none" stroke="#585858" stroke-linecap="round"
		stroke-linejoin="round" stroke-width="1.5" />
	  <path id="Path_26" data-name="Path 26" d="M10,3.224V.625" transform="translate(-1.204 -0.625)"
		fill="none" stroke="#585858" stroke-linecap="round" stroke-linejoin="round" stroke-width="1.5" />
	  <path id="Path_27" data-name="Path 27"
		d="M11.3,2.5a7.349,7.349,0,0,1,7.33,7.367c0,6.921,1.466,8.1,1.466,8.1H2.5s1.466-1.882,1.466-8.1A7.349,7.349,0,0,1,11.3,2.5Z"
		transform="translate(-2.5 0.099)" fill="none" stroke="#585858" stroke-linecap="round"
		stroke-linejoin="round" stroke-width="1.5" />
	</g>
	<g id="Ellipse_6" data-name="Ellipse 6" transform="translate(12.193 1)" fill="#f58220" stroke="#fff"
	  stroke-width="2">
	  <circle cx="3" cy="3" r="3" stroke="none" />
	  <circle cx="3" cy="3" r="4" fill="none" />
	</g>
  </g>
</svg> -->
<svg id="a" viewBox="0 0 19.355 21"><defs></defs><path class="icon" d="M18.501,14.577c-.055-.041-.099-.074-.125-.095-2.184-1.758-3.207-4.23-3.207-7.72,0-1.233-.575-2.37-1.618-3.2-.196-.156-.405-.299-.626-.428-.291-.17-.489-.424-.542-.711l-.005-.027c-.2-1.072-1.344-1.897-2.723-1.897-1.355,0-2.484,.797-2.711,1.843-.003,.013-.005,.027-.008,.044-.044,.299-.244,.57-.546,.746-.222,.129-.432,.272-.629,.429-1.043,.831-1.618,1.967-1.618,3.2,0,3.44-.994,5.893-3.117,7.646-.042,.035-.12,.094-.217,.165-.49,.362-.382,1.011,.21,1.253,.071,.029,.129,.052,.165,.066,.974,.376,1.982,.687,3.012,.93,.645,.152,1.14,.569,1.313,1.096,.488,1.485,2.162,2.582,4.146,2.582s3.658-1.097,4.146-2.582c.173-.525,.665-.943,1.309-1.094,1.084-.255,2.143-.585,3.164-.988l.006-.002c.599-.238,.715-.892,.221-1.256ZM.63,15.122c1.335,.801,3.743,1.989,7.01,2.307,3.826,.373,6.86-.637,8.412-1.154,1.203-.401,2.154-.831,2.804-1.154M3.918,9.631c.851,.801,2.388,1.989,4.471,2.307,2.44,.373,4.376-.637,5.366-1.154,.767-.401,1.374-.831,1.789-1.154"/></svg>