<svg viewBox="0 0 45.57 62.91">
<path id="Path_129166" class="icon" d="M32.21,29.51c-.06,0-.11-.02-.15-.05l-1.43-1.14c-.11-.09-.13-.26-.05-.37,.08-.11,.23-.14,.34-.07h.02l1.43,1.16c.11,.09,.13,.26,.05,.37-.05,.07-.12,.11-.2,.11Z"/>
<path id="Path_129167" class="icon" d="M21.96,31.16h-.21c-.45,0-.82-.37-.82-.82v-1.95c0-.45,.37-.82,.82-.82h.21c.45,0,.82,.37,.82,.82v1.95c0,.45-.37,.82-.82,.82Zm-.21-3.01c-.13,0-.24,.11-.24,.24v1.95c0,.13,.11,.24,.24,.24h.21c.13,0,.24-.11,.24-.24v-1.95c0-.13-.11-.24-.24-.24h-.21Z"/>
<path id="Path_129168" class="icon" d="M22.46,29.51c-.08,0-.16-.04-.21-.11-.09-.12-.07-.29,.05-.39l1.52-1.18c.11-.09,.28-.07,.37,.05h0c.09,.13,.07,.3-.05,.39l-1.52,1.18s-.1,.06-.16,.06Z"/>
<path id="Path_129169" class="icon" d="M24.67,30.07h-2.21c-.16-.01-.28-.16-.27-.32,.01-.14,.13-.26,.27-.27h2.21c.16,.01,.28,.16,.27,.32-.01,.14-.13,.26-.27,.27Z"/>
<path id="Path_129173" class="icon" d="M30.72,59.01h-.35c-.16,0-.29-.13-.29-.29v-1.45c0-.16,.13-.29,.29-.29h.35c.56,0,1.02,.46,1.02,1.02s-.46,1.02-1.02,1.02h0Zm-.06-.59h.06c.24,0,.43-.2,.43-.44,0-.24-.19-.43-.43-.43h-.06v.87Z"/>
<rect id="Rectangle_147721" class="icon" x="28.32" y="57.62" width="2.05" height=".75"/>
<path id="Path_129174" class="icon" d="M29.58,53.08h-.05c-.21,0-.38,.16-.39,.37h0l-.27,9.08c0,.21,.16,.38,.37,.39h.05c.21,0,.38-.16,.39-.37l.27-9.08c0-.21-.16-.38-.37-.39Z"/>
<path id="Path_129175" class="icon" d="M27.09,18.36v1.1c0,.09-.06,.17-.15,.19-.4,.1-.77,.3-1.07,.58-.19,.18-.5,.17-.68-.02-.03-.04-.06-.08-.08-.12l-.02-.04c-.04-.08-.04-.17,0-.25,.33-.77,.97-1.36,1.76-1.63,.1-.03,.21,.03,.24,.14,0,.02,0,.03,0,.05Z"/>
<path id="Path_129176" class="icon" d="M29.68,20.06l-.02,.04c-.11,.24-.4,.34-.64,.23-.04-.02-.09-.05-.12-.08-.3-.28-.67-.49-1.07-.58-.09-.02-.15-.1-.15-.19v-1.1c0-.11,.09-.2,.2-.2,.02,0,.04,0,.05,0,.79,.27,1.43,.86,1.76,1.63,.04,.08,.04,.17,0,.25Z"/>
<path id="Path_129180" class="icon" d="M25.91,26.21c-.35-.76-.02-1.66,.73-2.01,.76-.35,1.66-.02,2.01,.73s.02,1.66-.73,2.01c-.76,.35-1.66,.02-2.01-.73Zm2.22-1.03c-.22-.47-.77-.67-1.23-.45-.47,.22-.67,.77-.45,1.23,.22,.47,.77,.67,1.23,.45h0c.46-.22,.66-.77,.45-1.23h0Z"/>
<circle id="Ellipse_8184" class="icon" cx="27.29" cy="25.57" r=".39"/>
<path id="Path_129181" class="icon" d="M27.54,26.79c-.07-.15,0-.32,.15-.39,.12-.06,.27-.02,.35,.08l2.62,3.31,2.26,.08c.08,0,.16,.04,.21,.11l12.14,14.96c.46,.57,.38,1.41-.19,1.87-.27,.22-.62,.33-.97,.29-.36-.04-.68-.22-.91-.5l-12.92-16.34h0l-2.7-3.42s-.03-.04-.03-.06Zm5.22,3.67l-1.09-.04-.54-.02,12.53,15.85c.25,.32,.72,.38,1.04,.12h.02c.31-.28,.35-.74,.1-1.05l-12.06-14.86Z"/>
<path id="Path_129183" class="icon" d="M27.3,24.5c-.04-.08-.04-.17,0-.25l1.84-3.77-.9-2.07c-.03-.08-.03-.17,0-.24L36.48,.75c.32-.66,1.11-.94,1.77-.62s.94,1.11,.62,1.77l-11.05,22.61c-.07,.15-.25,.2-.39,.13-.06-.03-.11-.08-.14-.14h0Zm1.53-6.21l.65,1.5L38.35,1.64c.19-.36,.05-.81-.32-1-.36-.19-.81-.05-1,.32,0,.01-.01,.03-.02,.04l-8.18,17.3Z"/>
<path id="Path_129185" class="icon" d="M.12,31.04c-.05-.1-.08-.21-.1-.33-.13-.72,.35-1.41,1.08-1.54h.04l20.61-3.03h0l4.3-.63c.16-.02,.31,.1,.33,.26,.02,.15-.09,.3-.24,.32l-4.16,.61-1.2,1.92c-.04,.07-.12,.12-.2,.13L1.54,31.79c-.59,.09-1.16-.21-1.41-.75Zm21.08-4.22L1.22,29.75c-.41,.06-.69,.44-.63,.84v.02c.07,.4,.45,.67,.85,.6l18.9-3.01,.86-1.38Z"/>
<path id="Path_129186" class="icon" d="M30.03,31.97c-.16,0-.29-.13-.29-.29h0c0-4.63-1.21-7.13-2.36-7.13s-2.36,2.5-2.36,7.13c0,.16-.12,.3-.28,.31-.16,0-.3-.12-.31-.28,0,0,0-.02,0-.03,0-5.33,1.48-7.71,2.95-7.71s2.95,2.38,2.95,7.71c0,.16-.13,.29-.29,.29h0Z"/>
<path id="Path_129187" class="icon" d="M26.56,50.63l-2.72-.47v-.97h2.68l-.02-.59h-2.96c-.16,0-.29,.13-.29,.29v1.51c0,.14,.1,.26,.24,.29l3.07,.53v-.59Z"/>
<path id="Path_129188" class="icon" d="M31.18,48.61h-2.92l-.02,.59h2.64v.98l-2.68,.5-.02,.6,3.04-.56c.14-.03,.24-.15,.24-.29v-1.51c0-.16-.13-.29-.29-.3h0Z"/>
<path id="Path_129190" class="icon" d="M30.51,18.84c-.09-.2-.18-.39-.27-.58l-.33,.67,.07,.16c1.22,2.48,1.13,9.03-.94,14.83-.29,.8-.45,1.64-.47,2.5l-.58,22.9c-.01,.33-.29,.6-.62,.58-.32-.01-.57-.27-.58-.58l-.58-22.9c-.02-.85-.18-1.69-.47-2.5-2.07-5.8-2.16-12.35-.93-14.84,.76-1.66,1.42-2.67,2.09-3.18,.3-.22,.71-.22,1.01,0,.53,.46,.98,1.01,1.31,1.64l.3-.64c-.33-.56-.75-1.06-1.25-1.47-.51-.38-1.21-.38-1.72,0-.76,.58-1.46,1.63-2.26,3.39-.67,1.36-.97,3.76-.82,6.58,.16,2.97,.75,5.9,1.73,8.71,.27,.74,.42,1.52,.44,2.31l.58,22.9c.02,.66,.56,1.18,1.22,1.16,.63-.02,1.14-.53,1.16-1.16l.58-22.9c.02-.79,.17-1.57,.44-2.31,.98-2.81,1.56-5.74,1.73-8.71,.15-2.82-.14-5.22-.81-6.57Z"/>
<path id="Path_129191" class="icon" d="M32.91,27.57h-.21c-.45,0-.82,.37-.82,.82v1.95s0,.06,0,.09l.61,.02s-.03-.07-.03-.11v-1.95c0-.13,.11-.24,.24-.24h.21c.13,0,.24,.11,.24,.24h0v1.95c0,.13-.11,.24-.24,.24h-.05l.41,.5c.28-.14,.46-.42,.46-.74v-1.95c0-.45-.37-.82-.82-.82Z"/>
</svg>