<svg viewBox="0 0 21.5 21.5">
<path id="Path_129670" class="icon" d="M3.73,20.75h0c-1.56,.08-2.89-1.11-2.98-2.67V5.89c0-.42,.11-.83,.32-1.19L3.05,1.14c.23-.37,.72-.48,1.08-.25,.1,.06,.18,.15,.25,.25l1.98,3.56c.21,.36,.31,.77,.32,1.19v12.2c-.09,1.55-1.41,2.73-2.95,2.66Z"/>
<line id="Line_88737" class="icon" x1=".75" y1="5.86" x2="6.7" y2="5.86"/>
<line id="Line_88738" class="icon" x1=".75" y1="16.53" x2="6.7" y2="16.53"/>
<rect id="Rectangle_148492" class="icon" x="11.82" y=".75" width="8.93" height="20"/>
<line id="Line_88739" class="icon" x1="11.82" y1="4.77" x2="15.07" y2="4.77"/>
<line id="Line_88740" class="icon" x1="11.82" y1="8.75" x2="15.07" y2="8.75"/>
<line id="Line_88741" class="icon" x1="11.82" y1="12.75" x2="15.07" y2="12.75"/>
<line id="Line_88742" class="icon" x1="11.82" y1="16.75" x2="15.07" y2="16.75"/>
</svg>