<svg viewBox="0 0 21.5 21.5">
<rect id="Rectangle_148493" class="icon" x=".75" y=".75" width="20" height="20" rx="2" ry="2"/>
<line id="Line_88746" class="icon" x1="14.08" y1="10.03" x2="14.08" y2="4.72"/>
<line id="Line_88747" class="icon" x1="14.08" y1="16.78" x2="14.08" y2="14.39"/>
<path id="Path_129674" class="icon" d="M16.12,12.09c0,1.14-.92,2.06-2.06,2.06s-2.06-.92-2.06-2.06,.92-2.06,2.06-2.06h0c1.14,0,2.06,.92,2.06,2.06Z"/>
<line id="Line_88748" class="icon" x1="7.42" y1="8.85" x2="7.42" y2="16.84"/>
<path id="Path_129675" class="icon" d="M9.5,6.79c0-1.14-.92-2.06-2.06-2.06-1.14,0-2.06,.92-2.06,2.06,0,1.14,.92,2.06,2.06,2.06h0c1.14,0,2.06-.92,2.06-2.06Z"/>
</svg>