<svg viewBox="0 0 156.5 156.75">
<path id="Path_129354" class="icon" d="M122.93,123.04h13.31c3.05,0,5.53-2.47,5.53-5.53,0-3.05-2.47-5.53-5.53-5.53h-13.32v-13.27c0-3.07-2.48-5.55-5.55-5.55s-5.55,2.48-5.55,5.55v13.27h-13.31c-3.05,0-5.53,2.47-5.53,5.53,0,3.05,2.47,5.53,5.53,5.53h13.32v13.27c0,3.07,2.48,5.55,5.55,5.55s5.55-2.48,5.55-5.55v-13.27Z"/>
<path id="Path_129355" class="icon" d="M79.52,117.51c-.07,20.91,16.83,37.92,37.74,37.99,20.91,.07,37.92-16.83,37.99-37.74,.07-20.91-16.83-37.92-37.74-37.99h-.12c-20.88-.04-37.83,16.86-37.86,37.74h0Z"/>
<path id="Path_129356" class="icon" d="M103.87,71.99V27.85L75.73,1.25H4.56c-1.78-.05-3.26,1.35-3.31,3.13v125.16c.05,1.78,1.53,3.18,3.31,3.13H72.73"/>
<path id="Path_129357" class="icon" d="M104.34,27.68h-25.1c-1.66,.06-3.04-1.24-3.1-2.9h0V1.25l28.2,26.43Z"/>
<circle id="Ellipse_8199" class="icon" cx="50.51" cy="66.96" r="28.75"/>
<path id="Path_129374" class="icon" d="M73.96,83.61c9.19-12.95,6.15-30.9-6.8-40.09-3.64-2.59-7.84-4.29-12.26-4.97l-6,6.87c-.99,1.02-.97,2.65,.05,3.64,.18,.18,.39,.32,.61,.44l3.24,1.61,6.48,3.23c.51,.3,.92,.74,1.2,1.26l4.52,10.21c.35,.79,.28,1.71-.19,2.44l-3.89,5.8c-.51,.77-.57,1.75-.17,2.57l3.83,7.64c.56,1.14,1.89,1.69,3.09,1.29,6.68-2.24,6.02-2.11,6.28-1.94Zm-34.39-20.14v-3.97c0-1.95,1.58-3.53,3.52-3.53,.3,0,.59,.04,.88,.11l4.79,1.18c1.11,.28,2.01,1.08,2.44,2.14l3.61,9.06c.68,1.67-.02,3.59-1.62,4.43l-11.78,6.35c-1.73,.93-3.9,.28-4.83-1.45-.02-.03-.03-.06-.04-.08l-1.54-3.09c-.58-1.14-.49-2.5,.22-3.56l3.73-5.61c.39-.58,.6-1.27,.6-1.96h0Z"/>
</svg>