<svg xmlns="http://www.w3.org/2000/svg" width="130" height="130" viewBox="0 0 156.499 156.5">
<g id="empty-state-illustration" transform="translate(-1028.766 -482.75)">
  <g id="Group_172838" data-name="Group 172838" transform="translate(1108.29 562.525)">
	<path id="Path_129354" data-name="Path 129354" d="M241.906,280.936a6.788,6.788,0,0,1-6.8-6.781V262.137H223.045a6.78,6.78,0,1,1,0-13.56h12.065V236.559a6.8,6.8,0,0,1,11.6-4.8,6.724,6.724,0,0,1,1.992,4.8v12.02h12.063a6.78,6.78,0,1,1,0,13.56H248.7v12.017A6.8,6.8,0,0,1,241.906,280.936Zm-5.548-21.3a1.25,1.25,0,0,1,1.25,1.25v13.269a4.288,4.288,0,0,0,4.3,4.28,4.3,4.3,0,0,0,4.3-4.28V260.889a1.25,1.25,0,0,1,1.25-1.25h13.313a4.28,4.28,0,1,0,0-8.56H247.454a1.25,1.25,0,0,1-1.25-1.25V236.559a4.288,4.288,0,0,0-4.3-4.281,4.3,4.3,0,0,0-4.3,4.281v13.269a1.25,1.25,0,0,1-1.25,1.25H223.045a4.28,4.28,0,1,0,0,8.56Z" transform="translate(-204.044 -217.621)" fill="#dfdfdf" />
	<path id="Path_129355" data-name="Path 129355" d="M227.5,279.893a39.057,39.057,0,1,1,15.223-3.064A38.977,38.977,0,0,1,227.5,279.893Zm0-75.475a36.488,36.488,0,1,0,36.613,36.488A36.592,36.592,0,0,0,227.5,204.418Z" transform="translate(-189.636 -203.168)" fill="#dfdfdf" />
  </g>
  <g id="Group_172839" data-name="Group 172839" transform="translate(1030.016 484)">
	<path id="Path_129356" data-name="Path 129356" d="M125.019,172.663H56.85a4.477,4.477,0,0,1-4.56-4.378V43.128a4.477,4.477,0,0,1,4.56-4.378h71.172a1.25,1.25,0,0,1,.859.342l28.139,26.6a1.25,1.25,0,0,1,.391.908v44.138a1.25,1.25,0,0,1-2.5,0v-43.6L127.525,41.25H56.85a1.978,1.978,0,0,0-2.06,1.878V168.284a1.978,1.978,0,0,0,2.06,1.878h68.169a1.25,1.25,0,1,1,0,2.5Z" transform="translate(-53.54 -40)" fill="#dfdfdf" />
	<path id="Path_129357" data-name="Path 129357" d="M227.106,67.68h-25.1a4.258,4.258,0,0,1-4.347-4.153V40a1.25,1.25,0,0,1,2.1-.912l28.2,26.43a1.25,1.25,0,0,1-.855,2.162Zm-26.948-24.8V63.527a1.76,1.76,0,0,0,1.847,1.653h21.94Z" transform="translate(-124.013 -40)" fill="#dfdfdf" />
  </g>
</g>
</svg>