<svg viewBox="0 0 13 13"><path id="Path_130012" class="icon" d="M11.7,12.5H1.3c-.44,0-.8-.36-.8-.8H.5V3.96c0-.42,.17-.83,.47-1.13L2.83,.97c.3-.3,.71-.47,1.13-.47h7.74c.44,0,.8,.36,.8,.8h0V11.7c0,.44-.36,.8-.8,.8h0Z"/><path id="Path_130013" class="icon" d="M4.5,.5V3.7c0,.44,.36,.8,.8,.8h4c.44,0,.8-.36,.8-.8V.5"/><path id="Path_130014" class="icon" d="M8.5,2.1v.8"/><path id="Path_130015" class="icon" d="M9.3,6.9H3.7c-.44,0-.8,.36-.8,.8v4.8h7.2V7.7c0-.44-.36-.8-.8-.8h0Z"/><path id="Path_130016" class="icon" d="M4.5,8.5h2.4"/><path id="Path_130017" class="icon" d="M4.5,10.1h4"/></svg>