<svg viewBox="0 0 21.5 21.51">
<path id="Path_22" class="icon" d="M9.46,2.25c.64,.71,1.74,.77,2.46,.13,.05-.04,.09-.08,.13-.13l.84-.92c.64-.72,1.74-.78,2.46-.14,.39,.35,.61,.86,.58,1.39l-.07,1.24c-.05,.96,.69,1.78,1.65,1.83,.06,0,.12,0,.17,0l1.24-.06c.96-.05,1.78,.69,1.83,1.65,.03,.52-.18,1.03-.57,1.38l-.93,.84c-.71,.65-.77,1.75-.13,2.46,.04,.04,.08,.09,.13,.13l.93,.84c.71,.64,.77,1.75,.13,2.46-.35,.39-.86,.6-1.38,.57l-1.25-.06c-.96-.05-1.78,.69-1.83,1.65,0,.06,0,.12,0,.18l.06,1.25c.04,.96-.7,1.77-1.66,1.82-.52,.02-1.01-.18-1.36-.56l-.84-.93c-.64-.71-1.75-.77-2.46-.13-.04,.04-.09,.08-.13,.13l-.84,.93c-.65,.71-1.75,.77-2.46,.12-.39-.35-.6-.86-.57-1.38l.06-1.25c.05-.96-.69-1.78-1.65-1.83-.06,0-.12,0-.18,0l-1.25,.06c-.96,.05-1.78-.68-1.83-1.65-.03-.52,.18-1.03,.57-1.38l.93-.84c.71-.65,.77-1.75,.13-2.46-.04-.04-.08-.09-.13-.13l-.93-.84c-.71-.65-.77-1.75-.12-2.46,.35-.39,.86-.6,1.38-.57l1.24,.06c.96,.05,1.78-.69,1.83-1.65,0-.06,0-.13,0-.19l-.06-1.25c-.05-.96,.7-1.78,1.66-1.82,.52-.02,1.02,.18,1.37,.57l.84,.93Z"/>
<path id="Path_23" class="icon" d="M6.13,10.76c0,2.55,2.07,4.63,4.63,4.63s4.63-2.07,4.63-4.63-2.07-4.63-4.63-4.63h0c-2.55,0-4.63,2.07-4.63,4.63Z"/>
</svg>