<svg viewBox="0 0 40 40">
<circle class="icon" cx="20" cy="20" r="20"/>
<path id="Path_129864" class="icon" d="M22.49,31.8H10.56c-.87,0-1.57-.7-1.57-1.57h0V9.77c0-.87,.7-1.57,1.57-1.57H29.44c.87,0,1.57,.7,1.57,1.57h0v13.51c0,.42-.17,.82-.46,1.11l-6.95,6.94c-.29,.3-.69,.46-1.11,.46Z"/>
<path id="Path_129865" class="icon" d="M23.15,31.66v-6.15c0-.87,.7-1.57,1.57-1.57h6.15"/>
<path id="Path_129866" class="icon" d="M23.15,18.69v-5.77h-6.29v5.77"/>
<path id="Path_129867" class="icon" d="M15.28,17.64l4.72,3.15,4.72-3.15"/>
</svg>