
<svg viewBox="0 0 12.43 12.43">
<line id="Line_88709" class="icon" x1="3.23" y1="3.45" x2="1.87" y2="2.08"/>
<line id="Line_88710" class="icon" x1="1.87" y1="4.82" x2=".5" y2="4.82"/>
<line id="Line_88711" class="icon" x1="4.6" y1="2.09" x2="4.6" y2=".72"/>
<line id="Line_88712" class="icon" x1="8.98" y1="9.2" x2="10.35" y2="10.57"/>
<line id="Line_88713" class="icon" x1="7.62" y1="10.57" x2="7.62" y2="11.93"/>
<line id="Line_88714" class="icon" x1="10.35" y1="7.84" x2="11.72" y2="7.84"/>
<path id="Path_129536" class="icon" d="M5.76,3.26L7.81,1.21c.95-.94,2.47-.94,3.42,0h0c.94,.95,.94,2.47,0,3.42l-2.39,2.39c-.68,.68-1.7,.89-2.59,.54-.31-.12-.59-.31-.83-.54"/>
<path id="Path_129537" class="icon" d="M6.8,9.05l-2.05,2.05c-.95,.94-2.47,.94-3.42,0h0c-.94-.95-.94-2.47,0-3.42l2.05-2.05c.95-.94,2.47-.94,3.42,0"/>
</svg>