<svg viewBox="0 0 21.5 21.5">
<path id="Path_129678" class="icon" d="M8.44,14.97l6.52-6.52c2.02,.96,4.43,.1,5.39-1.91,.52-1.1,.52-2.37,0-3.47l-1.27,1.26c-.55,.5-1.4,.46-1.9-.09-.47-.51-.47-1.3,0-1.81l1.26-1.27c-2.02-.96-4.43-.1-5.39,1.92-.52,1.1-.52,2.38,0,3.48l-6.52,6.52c-2.02-.96-4.43-.11-5.39,1.91-.53,1.1-.53,2.38,0,3.48l1.27-1.26c.55-.5,1.4-.46,1.9,.09,.47,.51,.47,1.3,0,1.81l-1.26,1.27c2.02,.96,4.43,.1,5.39-1.92,.52-1.1,.52-2.37,0-3.47Z"/>
<path id="Path_129679" class="icon" d="M6.54,8.44c-2.02,.96-4.43,.11-5.39-1.91-.53-1.1-.53-2.38,0-3.48l1.27,1.26c.55,.5,1.4,.46,1.9-.09,.47-.51,.47-1.3,0-1.81l-1.26-1.27c2.02-.96,4.43-.11,5.39,1.91,.53,1.1,.53,2.39,0,3.49"/>
<path id="Path_129680" class="icon" d="M14.96,13.06c2.02-.96,4.43-.1,5.39,1.91,.52,1.1,.52,2.37,0,3.47l-1.27-1.26c-.5-.55-1.35-.59-1.9-.09-.55,.5-.59,1.35-.09,1.9,.03,.03,.06,.06,.09,.09l1.26,1.27c-2.02,.96-4.43,.1-5.39-1.92-.52-1.1-.52-2.38,0-3.48"/>
</svg>