<svg viewBox="0 0 20 21.62">
<path id="Path_128966" class="icon" d="M7.28,3.53l.66-1.7c.23-.59,.79-.98,1.43-.98h1.26c.63,0,1.2,.39,1.43,.98l.66,1.7,2.24,1.29,1.81-.28c.62-.08,1.22,.21,1.53,.75l.61,1.07c.32,.55,.27,1.24-.12,1.73l-1.12,1.42v2.57l1.15,1.43c.4,.5,.44,1.18,.12,1.73l-.61,1.07c-.31,.54-.92,.83-1.53,.75l-1.81-.28-2.24,1.29-.66,1.7c-.23,.59-.79,.98-1.43,.98h-1.29c-.63,0-1.2-.39-1.43-.98l-.66-1.7-2.24-1.29-1.81,.28c-.62,.08-1.22-.21-1.53-.75l-.61-1.07c-.32-.55-.27-1.24,.12-1.73l1.12-1.43v-2.57l-1.15-1.43c-.4-.5-.44-1.18-.12-1.73l.61-1.07c.31-.54,.92-.84,1.54-.75l1.8,.28,2.27-1.28Zm-.35,7.28c0,1.69,1.37,3.06,3.07,3.06s3.06-1.37,3.06-3.07-1.37-3.06-3.07-3.06c-1.69,0-3.06,1.37-3.06,3.06h0Z"/>
</svg>