<svg viewBox="0 0 65.5 65.5"><path id="Path_129724" class="icon" d="M21.62,46.06H6.68c-3,0-5.43-2.43-5.43-5.43V6.68C1.25,3.68,3.68,1.25,6.68,1.25H47.42c3,0,5.43,2.43,5.43,5.43V24.33"/><line id="Line_88749" class="icon" x1="1.3" y1="16.77" x2="52.25" y2="16.77"/><line id="Line_88750" class="icon" x1="1.3" y1="32.23" x2="28.3" y2="32.23"/><line id="Line_88751" class="icon" x1="21.29" y1="16.85" x2="21.29" y2="42.25"/><line id="Line_88752" class="icon" x1="38.02" y1="16.72" x2="38.02" y2="24.87"/><path id="Path_129725" class="icon" d="M46.27,64.25c9.93,0,17.98-8.05,17.98-17.98s-8.05-17.98-17.98-17.98-17.98,8.05-17.98,17.98h0c0,9.93,8.05,17.98,17.98,17.98Z"/><path id="Path_129726" class="icon" d="M46.1,36.37v19.81"/><path id="Path_129727" class="icon" d="M36.37,46.1h19.81"/></svg>