<svg viewBox="0 0 65.5 65.5"><path id="Path_129738" class="icon" d="M6.17,11.09c0,5.43,4.4,9.84,9.84,9.84s9.84-4.4,9.84-9.84S21.44,1.25,16.01,1.25h0C10.57,1.25,6.17,5.65,6.17,11.09h0Z"/><path id="Path_129739" class="icon" d="M25.49,28.3c-4.85-3.01-10.92-3.28-16.01-.71-4.98,2.43-8.16,7.46-8.23,13"/><path id="Path_129744" class="icon" d="M29.71,21.33c0,5.39,4.37,9.76,9.76,9.76s9.76-4.37,9.76-9.76-4.37-9.76-9.76-9.76-9.76,4.37-9.76,9.76h0Z"/><path id="Path_129745" class="cls-1" d="M39.79,36.39c-5.56-.24-10.96,1.92-14.81,5.94"/><path id="Path_129725" class="icon" d="M50.7,64.25c7.48,0,13.55-6.07,13.55-13.55s-6.07-13.55-13.55-13.55-13.55,6.06-13.55,13.55c0,7.48,6.06,13.55,13.55,13.55h0Z"/><path id="Path_129726" class="icon" d="M50.57,43.24v14.93"/><path id="Path_129727" class="icon" d="M43.24,50.57h14.93"/></svg>