<svg viewBox="0 0 65.48 65.5"><path id="Path_129729" class="icon" d="M29.02,28.15v26.9c-12.01,.11-22.72-7.52-26.53-18.91C-1.1,24.81,3.3,12.49,13.26,6,23.34-.68,36.53-.28,46.19,7L29.02,28.15Z"/><path id="Path_129730" class="icon" d="M62.97,30.35h-25.07l15.49-19.71c3.08,2.44,5.56,5.56,7.23,9.11,1.56,3.31,2.36,6.94,2.34,10.6h0Z"/><path id="Path_129725" class="icon" d="M50.68,64.25c7.48,0,13.55-6.07,13.55-13.55s-6.07-13.55-13.55-13.55-13.55,6.06-13.55,13.55c0,7.48,6.06,13.55,13.55,13.55h0Z"/><path id="Path_129726" class="icon" d="M50.55,43.24v14.93"/><path id="Path_129727" class="icon" d="M43.22,50.57h14.93"/></svg>