<svg viewBox="0 0 65.5 65.5"><path id="Path_129731" class="icon" d="M37.67,9.89h-3.92c-1.43,0-2.59,1.16-2.59,2.59,0,1.06,.64,2.01,1.62,2.4l3.98,1.59c1.33,.53,1.97,2.04,1.44,3.36-.39,.98-1.34,1.62-2.4,1.62h-3.91"/><path id="Path_129732" class="icon" d="M34.76,9.72v-1.45"/><path id="Path_129733" class="icon" d="M34.76,22.9v-1.45"/><path id="Path_129737" class="icon" d="M32.29,56.85H5.48c-2.35-.01-4.24-1.93-4.23-4.28h0V5.53c-.01-2.35,1.88-4.26,4.23-4.28h29.98c1.12,0,2.2,.45,2.99,1.25l8.1,8.19c.79,.81,1.24,1.89,1.24,3.02v18.78"/><path id="Path_129725" class="icon" d="M50.7,64.25c7.48,0,13.55-6.07,13.55-13.55s-6.07-13.55-13.55-13.55-13.55,6.06-13.55,13.55c0,7.48,6.06,13.55,13.55,13.55h0Z"/><path id="Path_129726" class="icon" d="M50.57,43.24v14.93"/><path id="Path_129727" class="icon" d="M43.24,50.57h14.93"/><path id="Path_129735" class="icon" d="M8.71,21.9v26.85h12.69"/><path id="Path_129746" class="cls-1" d="M8.71,37.33h8.35"/><path id="Path_129747" class="cls-1" d="M8.7,31.48h26.07"/><path id="Path_129749" class="cls-1" d="M8.7,43.17H31.28"/><path id="Path_129748" class="cls-1" d="M8.7,25.48H26.03"/></svg>