<svg viewBox="0 0 65.5 65.5"><path id="Path_129706" class="icon" d="M30.95,47.6c0,9.2,7.46,16.65,16.65,16.65s16.65-7.46,16.65-16.65-7.46-16.65-16.65-16.65h0c-9.2,0-16.65,7.46-16.65,16.65Z"/><path id="Path_129707" class="icon" d="M47.6,39.27v16.65"/><path id="Path_129708" class="icon" d="M39.27,47.6h16.65"/><path id="Path_129709" class="icon" d="M9.58,39.05h12.49"/><path id="Path_129710" class="icon" d="M22.25,38.94V18.12"/><path id="Path_129711" class="icon" d="M30.65,31.02V12.74"/><path id="Path_129712" class="icon" d="M13.87,38.99v-12.49"/><path id="Path_129713" class="icon" d="M28.16,58.26H5.41c-2.36-.06-4.22-2.03-4.16-4.38V5.64c-.06-2.36,1.8-4.32,4.16-4.39h29.5c1.11,0,2.18,.47,2.94,1.28l7.97,8.4c.79,.84,1.22,1.95,1.22,3.1v11.62"/></svg>