<svg viewBox="0 0 49.9 64.9">
<path id="Path_129063" class="icon" d="M37.49,26.66c-.61,.49-1.5,.39-1.99-.22-.49-.61-.39-1.5,.22-1.99,.61-.49,1.5-.39,1.99,.22,.2,.25,.31,.55,.31,.87h0c0,.44-.19,.85-.53,1.12Zm-1.47-1.83c-.4,.32-.47,.91-.14,1.31s.91,.47,1.31,.14c.22-.18,.35-.45,.35-.74h0c0-.52-.43-.93-.95-.92-.21,0-.41,.07-.57,.21Zm1.76,.71"/>
<path id="Path_129065" class="icon" d="M37.62,36.61c-.61,.49-1.5,.39-1.99-.22-.49-.61-.39-1.5,.22-1.99,.61-.49,1.5-.39,1.99,.22,.2,.25,.31,.55,.31,.87,0,.44-.19,.85-.53,1.12Zm-1.47-1.83s-.06,.05-.09,.08c-.36,.37-.35,.96,.02,1.32,.37,.36,.96,.35,1.32-.02,.17-.18,.27-.42,.27-.67h0c0-.52-.43-.93-.95-.92-.21,0-.41,.07-.57,.2Z"/>
<line id="Line_72" class="icon" x1="33.52" y1="23.27" x2="39.77" y2="23.18"/>
<path id="Path_129067" class="icon" d="M39.92,23.37s-.09,.05-.15,.05l-6.25,.08c-.13,0-.24-.1-.24-.24s.1-.24,.24-.24l6.25-.08c.13,0,.24,.1,.24,.24,0,.07-.03,.15-.09,.19Z"/>
<line id="Line_73" class="icon" x1="33.59" y1="27.96" x2="39.83" y2="27.88"/>
<path id="Path_129068" class="icon" d="M39.94,28.02s-.07,.04-.11,.04l-6.25,.08c-.1,0-.18-.09-.17-.19,0-.09,.08-.16,.17-.17l6.25-.08c.1,0,.18,.08,.18,.18,0,.06-.02,.11-.07,.14Z"/>
<line id="Line_74" class="icon" x1="33.64" y1="32.35" x2="39.89" y2="32.26"/>
<path id="Path_129069" class="icon" d="M40,32.41s-.07,.04-.11,.04l-6.25,.08c-.1,0-.19-.07-.19-.17s.07-.19,.17-.19c0,0,.02,0,.02,0l6.25-.08c.1,0,.18,.08,.18,.18,0,.05-.02,.11-.07,.14Z"/>
<path id="Path_129070" class="icon" d="M34.61,24.05c0,.13-.1,.24-.23,.24-.13,0-.24-.1-.24-.23,0-.13,.1-.24,.23-.24s.24,.1,.24,.23h0Z"/>
<path id="Path_129071" class="icon" d="M39.13,23.99c0,.13-.1,.24-.23,.24-.13,0-.24-.1-.24-.23,0-.13,.1-.24,.23-.24s.24,.1,.24,.23h0Z"/>
<circle id="Ellipse_8143" class="icon" cx="38.94" cy="27.1" r=".23"/>
<circle id="Ellipse_8144" class="icon" cx="34.42" cy="27.16" r=".23"/>
<circle id="Ellipse_8145" class="icon" cx="34.44" cy="28.78" r=".23"/>
<circle id="Ellipse_8146" class="icon" cx="38.96" cy="28.72" r=".23"/>
<path id="Path_129072" class="icon" d="M39.23,31.38c0,.13-.1,.24-.23,.24-.13,0-.24-.1-.24-.23,0-.13,.1-.24,.23-.24s.24,.1,.24,.23h0Z"/>
<path id="Path_129073" class="icon" d="M34.71,31.44c0,.13-.1,.24-.23,.24-.13,0-.24-.1-.24-.23,0-.13,.1-.24,.23-.24s.24,.1,.24,.23h0Z"/>
<circle id="Ellipse_8147" class="icon" cx="39.02" cy="33.23" r=".23"/>
<path id="Path_129074" class="icon" d="M34.73,33.28c0,.13-.1,.24-.23,.24s-.24-.1-.24-.23,.1-.24,.23-.24h0c.13,0,.24,.1,.24,.23h0Z"/>
<path id="Path_129077" class="icon" d="M16.96,26.98c-.61,.49-1.5,.39-1.99-.22-.49-.61-.39-1.5,.22-1.99,.61-.49,1.5-.39,1.99,.22,.2,.25,.31,.55,.31,.86h0c0,.44-.19,.85-.53,1.12Zm-1.47-1.83c-.4,.32-.47,.91-.14,1.31,.32,.4,.91,.47,1.31,.14,.22-.18,.35-.45,.35-.74h0c0-.52-.43-.93-.95-.92-.21,0-.41,.07-.57,.21Zm1.76,.71"/>
<path id="Path_129079" class="icon" d="M17.1,36.93c-.61,.49-1.5,.39-1.99-.22-.49-.61-.39-1.5,.22-1.99,.61-.49,1.5-.39,1.99,.22,.2,.25,.31,.55,.31,.87h0c0,.44-.19,.85-.53,1.12Zm-1.47-1.83c-.4,.32-.47,.91-.14,1.31,.32,.4,.91,.47,1.31,.14,.22-.18,.35-.45,.35-.74h0c0-.52-.43-.93-.95-.92-.21,0-.41,.07-.57,.21Zm1.76,.71"/>
<line id="Line_75" class="icon" x1="13" y1="23.58" x2="19.24" y2="23.5"/>
<path id="Path_129081" class="icon" d="M19.39,23.69s-.09,.05-.15,.05l-6.25,.08c-.13,0-.24-.1-.24-.24s.1-.24,.24-.24l6.25-.08c.13,0,.24,.1,.24,.24,0,.07-.03,.15-.09,.19h0Z"/>
<line id="Line_76" class="icon" x1="13.06" y1="28.27" x2="19.3" y2="28.19"/>
<path id="Path_129082" class="icon" d="M19.42,28.33s-.07,.04-.11,.04l-6.25,.08c-.1,0-.18-.09-.17-.19,0-.09,.08-.16,.17-.17l6.25-.08c.1,0,.18,.08,.18,.18,0,.06-.02,.11-.07,.14h0Z"/>
<line id="Line_77" class="icon" x1="13.12" y1="32.66" x2="19.36" y2="32.58"/>
<path id="Path_129083" class="icon" d="M19.48,32.72s-.07,.04-.11,.04l-6.25,.08c-.1,0-.18-.09-.17-.19,0-.09,.08-.16,.17-.17l6.25-.08c.1,0,.18,.08,.18,.18,0,.05-.02,.11-.07,.14Z"/>
<path id="Path_129084" class="icon" d="M14.08,24.36c0,.13-.1,.24-.23,.24-.13,0-.24-.1-.24-.23,0-.13,.1-.24,.23-.24h0c.13,0,.24,.1,.24,.23Z"/>
<path id="Path_129085" class="icon" d="M18.6,24.3c0,.13-.1,.24-.23,.24-.13,0-.24-.1-.24-.23,0-.13,.1-.24,.23-.24,.13,0,.24,.1,.24,.23h0Z"/>
<circle id="Ellipse_8150" class="icon" cx="18.41" cy="27.41" r=".23"/>
<path id="Path_129086" class="icon" d="M14.13,27.47c0,.13-.1,.24-.23,.24-.13,0-.24-.1-.24-.23,0-.13,.1-.24,.23-.24,.13,0,.24,.1,.24,.23h0Z"/>
<circle id="Ellipse_8151" class="icon" cx="13.91" cy="29.09" r=".23"/>
<circle id="Ellipse_8152" class="icon" cx="18.43" cy="29.03" r=".23"/>
<circle id="Ellipse_8153" class="icon" cx="18.47" cy="31.7" r=".23"/>
<circle id="Ellipse_8154" class="icon" cx="13.95" cy="31.76" r=".23"/>
<circle id="Ellipse_8155" class="icon" cx="18.49" cy="33.54" r=".23"/>
<path id="Ellipse_8156" class="icon" d="M13.75,33.52c.1-.29,.55-.12,.44,.16-.1,.29-.55,.12-.44-.16Z"/>
<path id="Path_129096" class="icon" d="M28.38,51.3l-3.36,.04c-.66,0-1.2-.52-1.2-1.17h0l-.13-10.26c-.02-1.58,1.25-2.88,2.83-2.91h0c1.58-.02,2.88,1.25,2.91,2.83h0l.13,10.26c0,.66-.52,1.2-1.17,1.21h0Z"/>
<path id="Path_129097" class="icon" d="M29.29,51.27c-.26,.21-.58,.32-.91,.33h0l-3.36,.04c-.82,0-1.5-.65-1.51-1.47l-.13-10.26c-.02-1.75,1.38-3.19,3.13-3.21s3.19,1.38,3.21,3.13l.13,10.26c0,.46-.2,.89-.56,1.18Zm-.92-.27c.49,0,.89-.41,.88-.9h0l-.13-10.26c-.02-1.42-1.18-2.55-2.6-2.53-1.42,.02-2.55,1.18-2.53,2.6l.13,10.26c0,.49,.41,.89,.9,.88h0l3.36-.04h0Z"/>
<path id="Path_129098" class="icon" d="M27.72,56.94c-.19,.15-.39,.31-.6,.46-.09,.12-.25,.17-.39,.13-.03,0-.05-.02-.08-.03-.04-.02-.08-.05-.11-.08-2.21-1.53-3.34-3-3.37-4.37-.01-.72,.3-1.41,.86-1.87,.06-.04,.13-.07,.2-.07l2.46-.09s.03,0,.04,0h.05l2.46,.03c.07,0,.14,.02,.2,.07,.57,.44,.91,1.13,.91,1.85,0,1.24-.88,2.57-2.63,3.98Zm-.91-.21c2.34-1.74,2.83-3.01,2.82-3.77,0-.46-.19-.89-.53-1.2l-2.36-.03h0l-2.35,.09c-.33,.32-.51,.77-.5,1.23,.02,.76,.55,2.01,2.92,3.68h0Z"/>
<path id="Path_129101" class="icon" d="M20.41,52.72c-.26,.21-.58,.32-.91,.33h0l-4.17,.05c-.82,.01-1.5-.64-1.51-1.47h0v-.63c-.01-.2,.15-.36,.34-.37h0l6.43-.08c.2,0,.36,.15,.37,.35h0v.63c.01,.46-.19,.9-.55,1.18Zm-.92-.39c.42,0,.76-.35,.76-.78v-.27l-5.71,.07v.27c0,.42,.35,.76,.78,.76l4.17-.05h0Z"/>
<path id="Path_129103" class="icon" d="M21.01,51.05c-.2,.16-.44,.25-.7,.25l-5.93,.08c-.63,0-1.14-.49-1.15-1.12v-.4c0-.2,.15-.36,.35-.37h0l7.48-.1c.2,0,.36,.15,.37,.35h0v.41c0,.35-.15,.69-.43,.9Zm-7.05-.85v.04c0,.23,.19,.41,.42,.41l5.93-.08h0c.23,0,.41-.19,.41-.42v-.04l-6.76,.09Z"/>
<path id="Path_129104" class="icon" d="M38.32,49.46l-4.59,.06-.06-4.81c-.02-1.27,1-2.31,2.27-2.33h0c1.27-.02,2.31,1,2.33,2.27l.06,4.81Z"/>
<path id="Path_129105" class="icon" d="M38.51,49.69c-.05,.04-.12,.07-.18,.07l-4.59,.06c-.16,0-.3-.13-.3-.29l-.06-4.81c-.05-1.43,1.07-2.63,2.51-2.68,1.43-.05,2.63,1.07,2.68,2.51,0,.04,0,.07,0,.11l.06,4.81c0,.09-.04,.18-.11,.24Zm-4.48-.48l3.99-.05-.06-4.51c-.01-1.1-.92-1.98-2.02-1.97-1.1,.01-1.98,.92-1.97,2.02l.06,4.51Z"/>
<path id="Path_129108" class="icon" d="M19.81,49.94c-.05,.04-.12,.07-.18,.07l-4.59,.06c-.16,0-.3-.13-.3-.29l-.06-4.81c-.05-1.43,1.08-2.63,2.51-2.68,1.43-.05,2.63,1.08,2.68,2.51,0,.03,0,.07,0,.1l.06,4.81c0,.09-.04,.18-.11,.24Zm-4.48-.48l3.99-.05-.06-4.51c0-1.1-.89-2-2-2-1.1,0-2,.89-2,2v.05l.06,4.51Z"/>
<path id="Path_129111" class="icon" d="M37.48,59.11c-.24,.19-.49,.38-.75,.57-.12,.17-.37,.21-.54,.09-.03-.02-.06-.05-.08-.08-2.69-1.86-4.06-3.64-4.1-5.3-.02-.86,.36-1.69,1.03-2.24,.06-.04,.13-.07,.2-.07l3.03-.12s.03,0,.04,0h.02s.03,0,.04,0l3.03,.04c.07,0,.14,.02,.2,.07,.68,.53,1.08,1.34,1.08,2.21,.01,1.49-1.07,3.12-3.21,4.84Zm-1.07-.09c2.94-2.18,3.56-3.78,3.56-4.74,0-.6-.26-1.16-.7-1.56l-2.93-.04h-.02l-2.93,.11c-.44,.41-.68,.99-.66,1.59,.02,.96,.69,2.54,3.68,4.63h0Z"/>
<line id="Line_80" class="icon" x1="20.35" y1="5.91" x2="31.63" y2="5.76"/>
<path id="Path_129114" class="icon" d="M31.81,5.99c-.05,.04-.12,.07-.18,.07l-11.28,.15c-.17,0-.3-.13-.3-.3,0-.17,.13-.3,.3-.3l11.28-.15c.17,0,.3,.13,.3,.3,0,.09-.04,.18-.11,.24h0Z"/>
<line id="Line_81" class="icon" x1="26.1" y1="5.9" x2="26.21" y2="14.23"/>
<path id="Path_129115" class="icon" d="M26.32,14.37c-.08,.06-.19,.05-.25-.03-.03-.03-.04-.07-.04-.11l-.11-8.34c0-.1,.08-.18,.18-.18,.1,0,.18,.08,.18,.18l.11,8.34c0,.06-.02,.11-.07,.14Z"/>
<circle id="Ellipse_8157" class="icon" cx="25.07" cy="6.77" r=".23"/>
<path id="Path_129116" class="icon" d="M27.37,6.74c0,.13-.1,.24-.23,.24-.13,0-.24-.1-.24-.23,0-.13,.1-.24,.23-.24s.24,.1,.24,.23h0Z"/>
<circle id="Ellipse_8158" class="icon" cx="25.15" cy="13.13" r=".23"/>
<circle id="Ellipse_8159" class="icon" cx="27.22" cy="13.1" r=".23"/>
<line id="Line_82" class="icon" x1="26.34" y1="23.88" x2="26.51" y2="37"/>
<path id="Path_129117" class="icon" d="M26.66,37.19s-.09,.05-.15,.05c-.13,0-.24-.11-.24-.24h0l-.17-13.45c0-.13,.1-.24,.24-.24s.24,.1,.24,.24l.17,13.45c0,.08-.03,.15-.09,.2Z"/>
<circle id="Ellipse_8160" class="icon" cx="25.3" cy="24.73" r=".23"/>
<circle id="Ellipse_8161" class="icon" cx="27.38" cy="24.7" r=".23"/>
<circle id="Ellipse_8162" class="icon" cx="25.45" cy="35.7" r=".23"/>
<circle id="Ellipse_8163" class="icon" cx="27.52" cy="35.67" r=".23"/>
<circle id="Ellipse_8164" class="icon" cx="25.51" cy="40.74" r=".23"/>
<circle id="Ellipse_8165" class="icon" cx="27.58" cy="40.71" r=".23"/>
<path id="Path_129118" class="icon" d="M25.87,50.09c0,.13-.1,.24-.23,.24s-.24-.1-.24-.23c0-.13,.1-.24,.23-.24h0c.13,0,.24,.1,.24,.23Z"/>
<circle id="Ellipse_8166" class="icon" cx="27.71" cy="50.06" r=".23"/>
<line id="Line_83" class="icon" x1="15.04" y1="44.83" x2="19.5" y2="44.77"/>
<path id="Path_129119" class="icon" d="M19.65,44.95s-.09,.05-.15,.05l-4.46,.06c-.13,0-.24-.1-.24-.24s.1-.24,.24-.24l4.46-.06c.13,0,.24,.1,.24,.24,0,.07-.03,.15-.09,.19h0Z"/>
<line id="Line_84" class="icon" x1="33.73" y1="44.58" x2="38.19" y2="44.52"/>
<path id="Path_129120" class="icon" d="M38.34,44.71s-.09,.05-.15,.05l-4.46,.06c-.13,0-.24-.1-.24-.24s.1-.24,.24-.24h0l4.46-.06c.13,0,.24,.1,.24,.24,0,.07-.03,.15-.09,.19Z"/>
<line id="Line_85" class="icon" x1="23.98" y1="39.75" x2="29.17" y2="39.68"/>
<path id="Path_129121" class="icon" d="M29.32,39.87s-.09,.05-.15,.05l-5.2,.07c-.13,0-.24-.1-.24-.24s.1-.24,.24-.24h0l5.2-.07c.13,0,.24,.1,.24,.24,0,.07-.03,.15-.09,.19h0Z"/>
<line id="Line_86" class="icon" x1="26.47" y1="39.84" x2="26.62" y2="51.33"/>
<path id="Path_129122" class="icon" d="M26.74,51.47c-.08,.06-.19,.05-.25-.03-.03-.03-.04-.07-.04-.11l-.15-11.49c0-.1,.09-.18,.19-.17,.09,0,.16,.08,.17,.17l.15,11.49c0,.06-.02,.11-.07,.14Z"/>
<circle id="Ellipse_8167" class="icon" cx="15.92" cy="45.78" r=".23"/>
<circle id="Ellipse_8168" class="icon" cx="18.6" cy="45.75" r=".23"/>
<circle id="Ellipse_8169" class="icon" cx="15.96" cy="48.81" r=".23"/>
<circle id="Ellipse_8170" class="icon" cx="18.64" cy="48.78" r=".23"/>
<path id="Path_129123" class="icon" d="M34.87,45.53c0,.13-.1,.24-.23,.24-.13,0-.24-.1-.24-.23,0-.13,.1-.24,.23-.24h0c.13,0,.24,.1,.24,.23Z"/>
<circle id="Ellipse_8171" class="icon" cx="37.31" cy="45.5" r=".23"/>
<circle id="Ellipse_8172" class="icon" cx="34.68" cy="48.57" r=".23"/>
<circle id="Ellipse_8173" class="icon" cx="37.35" cy="48.53" r=".23"/>
<circle id="Ellipse_8174" class="cls-1" cx="26.36" cy="20.7" r="3"/>
<path id="Path_129129" class="icon" d="M39.23,52.39c-.26,.21-.58,.32-.91,.33h0l-4.17,.05c-.82,0-1.49-.65-1.51-1.47v-.63c-.01-.2,.15-.36,.35-.37h0l6.43-.08c.2,0,.36,.15,.37,.35h0v.63c.01,.46-.19,.9-.55,1.18Zm-.92-.39c.42,0,.76-.35,.76-.78v-.27l-5.71,.07v.27c0,.42,.35,.76,.78,.76l4.17-.05h0Z"/>
<path id="Path_129130" class="icon" d="M39.82,50.72c-.2,.16-.44,.25-.7,.25h0l-5.93,.08c-.63,0-1.14-.49-1.15-1.12v-.4c0-.2,.15-.36,.35-.37h0l7.48-.1c.2,0,.36,.15,.37,.35h0v.4c0,.35-.15,.69-.42,.9Zm-.7-.47c.23,0,.41-.19,.41-.42v-.04l-6.76,.09v.04c0,.23,.19,.41,.42,.41l5.93-.08h0Z"/>
<path id="Path_129131" class="icon" d="M18.49,59.35c-.26,.21-.54,.42-.83,.64h-.02c-.12,.1-.29,.1-.42,.02h-.02c-2.74-1.89-4.15-3.7-4.18-5.37-.02-.86,.36-1.69,1.03-2.24,.06-.04,.13-.07,.2-.07l3.03-.12s.03,0,.04,0h.02s.03,0,.04,0l3.03,.04c.07,0,.14,.02,.2,.07,.68,.53,1.08,1.34,1.08,2.21,.01,1.49-1.07,3.12-3.21,4.84Zm-1.07-.09c2.95-2.18,3.56-3.78,3.56-4.74,0-.6-.26-1.16-.7-1.56l-2.93-.04h-.02l-2.93,.11c-.44,.41-.68,.99-.66,1.59,.02,.96,.69,2.54,3.68,4.63h0Z"/>
<circle id="Ellipse_8178" class="icon" cx="29.4" cy="62.78" r=".65"/>
<circle id="Ellipse_8179" class="icon" cx="48.78" cy="44.34" r=".75"/>
<circle id="Ellipse_8180" class="icon" cx="49.28" cy="9.93" r=".62"/>
<path id="Path_129162" class="icon" d="M41.02,8.74c.02-.2-.26-.41-.7-.55-.13-.04-.22-.16-.24-.29-.04-.46-.19-.78-.39-.81s-.41,.26-.55,.7c-.04,.13-.16,.22-.29,.24-.46,.04-.78,.19-.81,.39s.26,.41,.7,.55c.13,.04,.22,.16,.24,.29,.04,.46,.19,.78,.39,.81s.41-.26,.55-.7c.04-.13,.16-.22,.29-.24,.46-.04,.79-.19,.81-.39Z"/>
<path id="Path_129164" class="icon" d="M5.47,7.25c.02-.2-.26-.41-.7-.55-.13-.04-.22-.16-.24-.29-.04-.46-.19-.78-.39-.81s-.41,.26-.55,.7c-.04,.13-.16,.22-.29,.24-.46,.04-.78,.19-.81,.39s.26,.41,.7,.55c.13,.04,.22,.16,.24,.29,.04,.46,.19,.78,.39,.81s.41-.26,.55-.7c.04-.13,.16-.22,.29-.24,.46-.04,.79-.19,.81-.39Z"/>
<path id="Path_129163" class="icon" d="M22.38,64.86c.13-.1,.09-.39-.09-.72-.05-.1-.04-.22,.03-.31,.24-.29,.34-.56,.24-.69s-.39-.09-.72,.09c-.1,.05-.22,.04-.31-.03-.29-.24-.56-.34-.69-.24s-.09,.39,.09,.72c.05,.1,.04,.22-.03,.31-.24,.29-.34,.56-.24,.69s.39,.09,.72-.09c.1-.05,.22-.04,.31,.03,.29,.24,.56,.34,.69,.24Z"/>
<circle id="Ellipse_8181" class="icon" cx="3.47" cy="23.02" r=".99"/>
<circle id="Ellipse_8182" class="icon" cx=".64" cy="29.68" r=".64"/>
<path class="icon" d="M38.37,39.81l-.02-.02c-.08-.05-.16-.11-.24-.16-3.77-2.63-6.03-6.91-6.08-11.51l-.09-6.58c-.07-2.26-.89-4.42-2.34-6.15-.24-.31-.52-.58-.83-.81-1.9-1.39-4.56-.98-5.95,.92-1.38,1.77-2.13,3.95-2.14,6.19l.09,6.58c.08,4.59-2.07,8.94-5.77,11.66-.08,.06-.15,.11-.23,.17l-.02,.02c-2.79,2.45-4.4,5.97-4.44,9.68,0,.23,.19,.42,.43,.41l13.17-.17v-.84l-12.75,.17h0c.18-3.3,1.66-6.38,4.11-8.59l.23-.17c3.92-2.89,6.19-7.49,6.12-12.35l-.09-6.58c.01-2.06,.71-4.06,1.98-5.68,.18-.25,.4-.48,.65-.67,1.49-1.16,3.64-.9,4.8,.58,1.33,1.59,2.09,3.57,2.16,5.64l.09,6.58c.05,4.86,2.45,9.4,6.44,12.19,.08,.05,.16,.11,.23,.16,2.51,2.14,4.07,5.19,4.34,8.47l-12.77,.17v.84l13.21-.17c.09,0,.18-.03,.26-.09h0c.1-.08,.16-.21,.16-.34-.13-3.71-1.84-7.18-4.69-9.56Z"/>
<path class="icon" d="M33.67,35.67l.3,.51-.17-12.84c-.05-1.59,.74-3.09,2.07-3.96,.4-.27,.91-.27,1.31-.01,1.35,.82,2.17,2.28,2.16,3.86l.25,18.56,.2,.23,.66,.83-.25-19.63c0-1.86-.97-3.58-2.55-4.56-.68-.44-1.57-.43-2.24,.03-1.56,1.03-2.48,2.79-2.44,4.66l.15,11.32,.55,1Z"/>
<path class="icon" d="M33.59,11.3c-.11-4.42-2.41-8.5-6.14-10.87-.86-.58-1.99-.56-2.83,.04-3.67,2.47-5.86,6.61-5.85,11.03l.32,24.11,.82-1.61-.29-22.52c0-4.15,2.06-8.02,5.5-10.34,.56-.4,1.3-.41,1.87-.02,3.5,2.22,5.66,6.04,5.77,10.19l.3,23.06,.62,1.31,.24,.32-.32-24.69Z"/>
<path class="icon" d="M12.95,42.76l.57-.93h0l-.24-18.16c-.05-1.59,.74-3.09,2.07-3.96,.39-.27,.91-.27,1.31-.01,1.35,.82,2.17,2.28,2.16,3.86l.16,12.31,.76-1.29,.07-.13-.14-10.9c0-1.86-.97-3.58-2.55-4.56-.68-.44-1.57-.43-2.24,.03-1.56,1.03-2.48,2.79-2.44,4.66l.25,19.5,.25-.42Z"/>
<rect class="icon" x="19.4" y="16.74" width="2.85" height=".4"/>
<rect class="icon" x="30.28" y="16.74" width="2.85" height=".4"/>
<rect class="icon" x="19.4" y="25.54" width="1.82" height=".4"/>
<rect class="icon" x="31.54" y="25.54" width="1.6" height=".4"/>
</svg>