<svg viewBox="0 0 55.18 60.38">
<path class="icon" d="M27.59,20.34c1.44,0,2.86-3.54,2.86-7.14,0-5.16-2-5.71-2.86-5.71s-2.86,.56-2.86,5.71c0,3.61,1.64,7.14,2.86,7.14Zm-2.14-7.14c0-3.13,.8-4.99,2.14-4.99h0c1.34,0,2.14,1.87,2.14,4.99,0,3.86-1.52,6.42-2.14,6.42-.13-.01-.68-.46-1.24-1.81-.6-1.46-.9-3.03-.9-4.61Z"/>
<path class="icon" d="M54.09,43.15l-8.22-6.86v-5.91s.16-1.55-1.01-2.46c-1.19-.93-2.37-.47-3.01,.26-.5,.57-.53,.48-.52,2.42,0,.81,0,1.43,0,1.89l-2.26-1.89,.04-.44c.01-.11-.03-.23-.1-.32l-1.49-1.79-.43-4.39c0-.1-.05-.19-.12-.26l-3.99-4.03c-.57-.57-.89-1.35-.89-2.15v-5.75c0-.9-.07-1.79-.22-2.68-.46-2.63-1.52-6.27-3.99-8.68-.17-.16-.44-.16-.61,0-2.47,2.42-3.53,6.05-3.99,8.68-.15,.88-.23,1.78-.22,2.68v5.75c0,.81-.32,1.58-.89,2.15l-3.99,4.03c-.07,.07-.11,.16-.12,.26l-.43,4.39-1.49,1.79c-.07,.09-.11,.2-.1,.32l.04,.45-2.52,2.11c0-.46,0-1.17,0-2.11,.01-1.94-.02-1.85-.52-2.42-.64-.74-1.82-1.19-3.01-.26-1.17,.92-1.01,2.46-1.01,2.46v6.13l-7.94,6.63C.4,43.73,0,44.59,0,45.49v2.43c0,.15,.08,.29,.21,.37l4.33,2.6c.06,.04,.13,.06,.2,.06l8.23,.52-2.6,2.7c-.61,.64-.83,1.55-.58,2.4l.53,1.76c.04,.15,.16,.26,.31,.3l6.62,1.69c.15,.04,.3,.06,.45,.06,.79,0,1.49-.5,1.75-1.25l.69-1.9,.3,2.14c.03,.21,.21,.37,.43,.37h2.57c.22,0,.4-.16,.43-.37l.63-4.47h.93s.02,0,.04-.01h.37c.11,.83,.26,1.66,.45,2.48,.14,.62,.69,1.06,1.32,1.05,.63,0,1.19-.43,1.32-1.05,.19-.82,.33-1.65,.45-2.48h.37s.02,.01,.04,.01h.98l.63,4.47c.03,.21,.21,.37,.43,.37h2.57c.22,0,.4-.16,.43-.37l.29-2.06,.66,1.81c.25,.75,.96,1.26,1.75,1.26,.15,0,.3-.02,.45-.05l6.62-1.69c.15-.04,.26-.15,.31-.3l.53-1.76c.25-.85,.03-1.76-.58-2.4l-2.6-2.7,8.23-.52c.07,0,.14-.02,.2-.06l4.33-2.6c.13-.08,.21-.22,.21-.37v-2.43c0-.9-.4-1.76-1.09-2.34Zm-11.82-13.33s.06-1.04,.88-1.42c.81-.38,1.74,.49,1.8,1.28,.05,.67,.05,4.72,.05,5.89l-2.74-2.29v-3.45Zm5.74,9.37l-5.04,8.86-5.05-5.17,1.06-11.22,1.64,1.37,7.38,6.16Zm-28.75,8.74c0-2.87,.83-5.67,2.4-8.07,.04-.06,.1-.12,.16-.16,.26-.17,.6-.1,.77,.16,1.57,2.4,2.4,5.21,2.4,8.07v3.96h-5.73v-3.96ZM27.59,5.19c-1.01,0-2.01,.6-3,1.77,.54-2.02,1.45-4.24,3-5.91,1.55,1.67,2.46,3.9,3,5.91-.99-1.17-1.99-1.77-3-1.77Zm-3.65,12.05v-5.75c0-.85,.07-1.69,.21-2.53,.03-.18,.07-.38,.11-.57,1.13-1.73,2.25-2.62,3.33-2.62,1.08,0,2.2,.89,3.33,2.62,.04,.19,.08,.39,.11,.57,.14,.84,.22,1.68,.21,2.53v5.75c0,.47,.09,.92,.25,1.35-.04,.46-.09,.92-.16,1.38-.11,.94-.25,1.87-.39,2.81s-.29,1.87-.44,2.81l-.45,2.81-.44,2.81c-.14,.94-.29,1.87-.42,2.81-.13,.91-.25,1.82-.36,2.73-.05-.2-.08-.41-.13-.62-.39-1.49-.74-2.07-1.29-2.06-.58,.01-.92,.67-1.27,2.42-.09-.75-.18-1.5-.28-2.24-.13-.95-.27-1.89-.4-2.83l-.43-2.83c-.29-1.89-.58-3.77-.85-5.66l-.19-1.42-.09-.71-.09-.71c-.06-.48-.11-.95-.15-1.43,.17-.45,.27-.93,.27-1.42Zm11.99,34.65h-5.73v-3.96c0-2.87,.83-5.67,2.4-8.07,.04-.06,.1-.12,.16-.16,.26-.17,.6-.1,.77,.16,1.57,2.4,2.4,5.21,2.4,8.07v3.96Zm-15.23,2.13s-.01,0-.02,0h-1.43v-1.26h5.73v1.27h-4.28Zm5.73-2.46l-.13-9.59c.5-4.93,.92-6.45,1.15-6.91,.24,.44,.74,1.92,1.44,6.92l-.13,9.58c-.01,.82-.07,1.65-.16,2.46h-2.01c-.09-.82-.15-1.64-.16-2.46Zm3.77,1.2h5.73v1.27h-5.73v-1.27Zm2.18-32.76l3.88,3.92,.3,3.09-4.15-4.51s-.05-.02-.07,0c-.04,.02-.05,.06-.04,.1l4.49,5.93h0l1.46,1.76-.04,.41s0,.06,0,.09l-1.48,15.64c-.24-2.5-1.08-4.91-2.46-7.03-.11-.17-.25-.31-.42-.42-.66-.43-1.53-.24-1.96,.42-1.03,1.57-1.75,3.3-2.16,5.11l.03-2.54s0-.04,0-.06c-.09-.72-.21-1.44-.33-2.16l.17-1.38c.06-.47,.12-.94,.19-1.4l.38-2.81,.39-2.81,.37-2.82c.24-1.88,.46-3.77,.63-5.66,.13-1.24,.18-2.48,.2-3.72,.17,.31,.37,.61,.63,.87Zm-13.98,8.52h0l4.49-5.93h0s0-.05,0-.07c-.02-.03-.07-.04-.1-.02l-4.15,4.51,.3-3.09,3.88-3.92c.24-.24,.43-.52,.6-.81,0,.31,0,.62,.02,.93,.02,.48,.05,.96,.08,1.43s.07,.95,.11,1.43c.16,1.91,.37,3.81,.59,5.7l.35,2.84,.37,2.83,.37,2.83c.13,.93,.23,1.85,.35,2.78-.07,.59-.14,1.24-.21,1.94,0,.02,0,.03,0,.05l.03,2.54c-.41-1.81-1.13-3.55-2.16-5.11-.11-.17-.25-.31-.42-.42-.66-.43-1.53-.24-1.96,.42-1.38,2.11-2.22,4.53-2.46,7.02l-1.48-15.64-.05-.5,1.46-1.75Zm-8.44,1.16c.06-.78,.99-1.66,1.8-1.28,.81,.38,.88,1.42,.88,1.42v3.68l-2.73,2.29c0-.7-.01-5.39,.05-6.11Zm6.24,1.99l1.06,11.18-5.07,5.2-5.03-8.83,9.04-7.55ZM.86,47.68v-2.18c0-.65,.29-1.26,.78-1.67l5.06-4.22,4.92,8.64H1.8l-.93-.56Zm4.03,2.41l-1.89-1.14H12.16c.1,0,.19-.04,.26-.11l4.93-5.05,.27,2.85-3.86,4.01-8.86-.56Zm13.71,8.76c-.16,.48-.67,.76-1.16,.63l-6.38-1.63-.27-.91,1-.17,3.67,.94,1.86,.48,.93,.24,.12,.03s.09,.02,.14,.03c.07,.01,.15,0,.22,0l-.13,.36Zm.34-.94c-.11,.02-.23,.02-.35,0-.03,0-.06-.01-.09-.02l-.11-.03-.93-.24-1.86-.48-3.72-.95h-.04s-.09-.01-.12,0l-1,.51-.12-.39c-.16-.55-.02-1.14,.37-1.55l6.74-7,.64,6.72c.02,.17,.13,.31,.28,.36,.05,.02,.11,.04,.17,.04h.97l.07,.51-.91,2.49Zm4.1,.97h-1.82l-.48-3.37,.22-.61h2.64l-.56,3.98Zm5.02-1.71c-.04,.18-.19,.33-.37,.37-.27,.06-.53-.1-.59-.37-.18-.75-.31-1.51-.42-2.28h1.79c-.11,.76-.24,1.52-.42,2.28Zm5.93,1.71h-1.82l-.56-3.98h2.6l.25,.69-.47,3.29Zm10.12-1.03l-6.38,1.63c-.5,.12-1.01-.16-1.17-.65l-.13-.35s.08,0,.11,0c.05,0,.09-.02,.14-.03l.12-.03,.93-.24,1.86-.48,3.67-.94,1.11,.18-.27,.89Zm.46-1.52l-.13,.44-1.1-.56s-.08-.02-.12-.01h-.04l-3.72,.96-1.86,.48-.93,.24-.11,.03s-.06,.01-.09,.02c-.08,.01-.15,.01-.23,0l-.89-2.42,.08-.59h.93c.06,0,.12-.02,.18-.04,.15-.06,.26-.19,.28-.36l.64-6.72,6.74,7c.4,.41,.54,1,.37,1.55Zm5.72-6.23l-8.86,.56-3.87-4.02,.27-2.81,4.9,5.02c.07,.07,.16,.11,.26,.11h9.21l-1.9,1.14Zm4.03-2.41l-.93,.55h-9.88l4.93-8.66,5.09,4.25c.5,.41,.78,1.03,.78,1.67v2.18Z"/>
</svg>