<svg viewBox="0 0 21.5 21.5">
<path id="Path_129668" class="icon" d="M20.75,19.42c-.03,.76-.67,1.36-1.43,1.33H2.18c-.76,.03-1.4-.57-1.43-1.33V2.08c.03-.76,.67-1.36,1.43-1.33h14.32c.37,0,.73,.13,1,.38l2.82,2.56c.27,.24,.43,.59,.43,.95v14.77Z"/>
<ellipse id="Ellipse_8235" class="icon" cx="10.8" cy="11.28" rx="2.18" ry="2.11"/>
<path id="Path_129669" class="icon" d="M12.22,4.64l.5,1.61c.18,.56,.75,.89,1.33,.75l1.66-.38c.64-.15,1.31,.14,1.65,.71,.33,.56,.25,1.28-.21,1.75l-1.17,1.23c-.4,.42-.4,1.09,0,1.51l1.16,1.23c.45,.47,.54,1.19,.21,1.75-.34,.57-1,.85-1.65,.71l-1.66-.38c-.57-.13-1.15,.2-1.33,.75l-.5,1.61c-.26,.8-1.11,1.23-1.9,.98-.46-.15-.83-.51-.98-.98l-.5-1.61c-.18-.56-.75-.89-1.32-.75l-1.66,.38c-.64,.15-1.31-.14-1.65-.71-.33-.56-.25-1.28,.21-1.75l1.16-1.23c.4-.42,.4-1.09,0-1.51l-1.16-1.23c-.45-.47-.54-1.19-.21-1.75,.34-.57,1-.85,1.65-.71l1.66,.38c.57,.13,1.15-.2,1.33-.75l.5-1.61c.25-.8,1.1-1.24,1.9-.98,.47,.15,.83,.52,.98,.98h0Z"/>
</svg>