<svg viewBox="0 0 56.79 61.37">
<path id="Path_128972" class="icon" d="M17.33,56.85l.04-.9v-.39l.02-.07c.02-.2,.09-.39,.22-.55,.12-.15,.29-.27,.47-.33l.42-.15,.84-.31,3.37-1.23s.06,0,.07,.03c.01,.03,0,.06-.03,.07h0l-3.28,1.47-.82,.37-.41,.18c-.1,.04-.18,.11-.24,.2-.05,.08-.08,.18-.08,.28l.02,.43,.04,.9c0,.18-.13,.33-.31,.34-.18,0-.33-.13-.34-.31,0,0,0-.02,0-.03Z"/>
<path id="Path_128975" class="icon" d="M34.08,52.92l3.37,1.23,.84,.31,.42,.15c.19,.06,.35,.18,.47,.33,.13,.16,.2,.35,.22,.55v.24l.02,.22,.03,.9c0,.18-.13,.33-.31,.34s-.33-.13-.34-.31h0s0-.02,0-.02l.03-.9,.02-.43c0-.1-.03-.2-.08-.28-.06-.09-.14-.15-.24-.19l-.41-.18-.82-.37-3.28-1.48s-.04-.04-.03-.07,.04-.04,.07-.03h0Z"/>
<path id="Path_128980" class="icon" d="M48.68,38.68c-.18,0-.32-.15-.32-.32v-2.05c0-.15-.1-.29-.24-.33l-9.85-2.88c-.18-.05-.37,.05-.42,.23,0,.03-.01,.06-.01,.1v1.66c0,.18-.15,.32-.32,.32s-.32-.15-.32-.32v-1.66c0-.55,.44-.99,.99-.99,.09,0,.19,.01,.28,.04l9.85,2.88c.42,.12,.71,.51,.71,.95v2.05c0,.18-.15,.32-.32,.32Z"/>
<path id="Path_128981" class="icon" d="M45.2,25.2h-4.72c-.18,0-.32-.15-.32-.32s.15-.32,.32-.32h4.72c.18,0,.32,.15,.32,.32s-.15,.32-.32,.32Z"/>
<path id="Path_128987" class="icon" d="M8.11,38.68c-.18,0-.32-.15-.32-.32h0v-2.05c0-.44,.29-.82,.71-.95l9.85-2.88c.52-.15,1.07,.15,1.23,.67,.03,.09,.04,.18,.04,.28v1.66c0,.14-.1,.27-.23,.31l-11.18,3.27s-.06,.01-.09,.01Zm10.52-5.6s-.07,0-.1,.01l-9.85,2.88c-.15,.04-.25,.18-.25,.33v1.62l10.53-3.08v-1.42c0-.19-.15-.34-.34-.34h0Z"/>
<path id="Path_128988" class="icon" d="M16.31,25.2h-4.72c-.18,0-.32-.15-.32-.32s.15-.32,.32-.32h4.72c.18,0,.32,.15,.32,.32s-.15,.32-.32,.32h0Z"/>
<path class="icon" d="M41.08,53.21l-7.81-5.51c-.05,.27-.11,.54-.17,.81l7.54,5.32c.98,.69,1.54,1.84,1.48,3.04l-.02,.47s0,.03,0,.04c-.03,.08-.11,.12-.19,.09l-10.31-3.76c-.09,.24-.19,.47-.28,.7l10.34,3.77c.1,.04,.21,.06,.31,.06h0c.48,0,.88-.38,.9-.86l.02-.47c.08-1.46-.6-2.85-1.8-3.69Z"/>
<path id="Path_128996" class="icon" d="M28.4,61.37c-1.23,0-1.76-2.12-1.76-7.09-.02-2.24,.12-4.49,.41-6.71,.4-2.71,.91-3.08,1.35-3.08s.95,.37,1.35,3.08c.29,2.23,.43,4.47,.41,6.71,0,4.97-.53,7.09-1.76,7.09Zm0-16.06c-.43,.62-1.01,3.94-1.01,8.98,0,6.15,.9,6.33,1.01,6.33s1.01-.18,1.01-6.33c0-5.04-.57-8.36-1.01-8.97h0Z"/>
<path id="Path_128997" class="icon" d="M31.54,4.44s-.09,0-.13-.03c-1.93-.81-4.1-.81-6.03,0-.17,.07-.36-.01-.42-.18s.01-.36,.18-.42h0c2.09-.88,4.44-.87,6.52,0,.17,.07,.24,.26,.17,.42-.05,.12-.17,.2-.3,.2h0Z"/>
<path id="Path_128998" class="icon" d="M25.87,9.2l.56,1.23c.03,.07,0,.14-.05,.18-.22,.17-.42,.37-.6,.58-.15,.17-.42,.18-.59,.03h-.01l-.28-.32c-.07-.08-.1-.19-.07-.29,.16-.51,.4-1,.71-1.43,.07-.09,.2-.11,.28-.04,.02,.02,.04,.04,.05,.06Z"/>
<path id="Path_128999" class="icon" d="M28.13,7.91v1.75c0,.14-.12,.26-.26,.27-.22,.04-.43,.1-.64,.18-.16,.07-.35,0-.43-.15l-.59-1.3c-.05-.11-.02-.23,.08-.3,.42-.35,.92-.6,1.45-.72,.17-.05,.34,.05,.38,.22,0,.02,0,.04,0,.05Z"/>
<path id="Path_129000" class="icon" d="M30.59,8.66l-.59,1.3c-.08,.15-.27,.22-.43,.15-.21-.08-.42-.14-.64-.18-.14-.01-.25-.13-.26-.27v-1.75c.02-.17,.17-.3,.34-.28,.02,0,.04,0,.05,.01,.53,.12,1.03,.37,1.45,.72,.09,.07,.12,.2,.08,.3Z"/>
<path id="Path_129001" class="icon" d="M31.91,10.89l-.28,.3c-.16,.16-.43,.16-.59,0h-.01c-.18-.23-.38-.42-.6-.59-.06-.04-.08-.12-.05-.18l.56-1.23c.05-.1,.18-.13,.28-.08,.02,.01,.04,.03,.06,.05,.31,.44,.55,.92,.71,1.43,.03,.1,0,.21-.07,.29Z"/>
<path class="icon" d="M56.74,38.93l-.31-1.08c-.54-1.93-1.83-3.57-3.59-4.55l-19.32-10.82v.87l18.96,10.62c1.58,.88,2.74,2.35,3.23,4.09l.31,1.08c.03,.11,.03,.23,0,.34-.09,.32-.43,.51-.76,.41l-21.73-6.36v.79l21.52,6.3c.13,.04,.26,.06,.39,.06h0c.12,0,.24-.02,.36-.05,.73-.2,1.15-.96,.95-1.69Z"/>
<path id="Path_129002" class="icon" d="M31.58,18.55h0c-.24-.05-.41-.25-.41-.5v-.83c0-.23,.16-.43,.38-.49h0c.27-.07,.54,.09,.61,.36,.01,.04,.02,.08,.02,.13v.83c0,.28-.22,.5-.5,.51-.03,0-.07,0-.1-.01Z"/>
<path id="Path_129003" class="icon" d="M31.58,21.74h0c-.24-.05-.41-.25-.41-.5v-.83c0-.23,.16-.43,.38-.49h0c.27-.07,.54,.09,.61,.36,.01,.04,.02,.08,.02,.13v.83c0,.28-.22,.5-.5,.51-.03,0-.07,0-.1-.01Z"/>
<path id="Path_129004" class="icon" d="M31.58,24.93h0c-.24-.05-.41-.25-.41-.5v-.83c0-.23,.16-.43,.38-.49h0c.27-.07,.54,.09,.61,.36,.01,.04,.02,.08,.02,.13v.83c0,.28-.22,.5-.5,.51-.03,0-.07,0-.1-.01Z"/>
<path id="Path_129005" class="icon" d="M31.58,31.2h0c-.24-.05-.41-.25-.41-.5v-.83c0-.23,.16-.43,.38-.49h0c.27-.07,.54,.09,.61,.36,.01,.04,.02,.08,.02,.13v.83c0,.28-.22,.5-.5,.51-.03,0-.07,0-.1-.01Z"/>
<path id="Path_129006" class="icon" d="M31.58,34.39h0c-.24-.05-.41-.25-.41-.5v-.83c0-.23,.16-.43,.38-.49h0c.27-.07,.54,.09,.61,.36,.01,.04,.02,.08,.02,.13v.83c0,.28-.22,.5-.5,.51-.03,0-.07,0-.1-.01Z"/>
<path id="Path_129007" class="icon" d="M31.58,37.58h0c-.24-.05-.41-.25-.41-.5v-.83c0-.23,.16-.43,.38-.49h0c.27-.07,.54,.09,.61,.36,.01,.04,.02,.08,.02,.13v.83c0,.28-.22,.5-.5,.51-.03,0-.07,0-.1-.01Z"/>
<path id="Path_129008" class="icon" d="M31.58,40.77h0c-.24-.05-.41-.25-.41-.5v-.83c0-.23,.16-.43,.38-.49h0c.27-.07,.54,.09,.61,.36,.01,.04,.02,.08,.02,.13v.83c0,.28-.22,.5-.5,.51-.03,0-.07,0-.1-.01Z"/>
<path id="Path_129009" class="icon" d="M31.58,28.12h0c-.24-.05-.41-.25-.41-.5v-.83c0-.23,.16-.43,.38-.49h0c.27-.07,.54,.09,.61,.36,.01,.04,.02,.08,.02,.13v.83c0,.28-.22,.5-.5,.51-.03,0-.07,0-.1-.01Z"/>
<path id="Path_129010" class="icon" d="M25.02,18.55h0c-.24-.05-.41-.25-.41-.5v-.83c0-.23,.16-.43,.38-.49h0c.27-.07,.54,.1,.61,.37,.01,.04,.02,.08,.02,.12v.83c0,.28-.23,.5-.5,.5-.03,0-.07,0-.1,0Z"/>
<path id="Path_129011" class="icon" d="M25.02,21.74h0c-.24-.05-.41-.25-.41-.5v-.83c0-.23,.16-.43,.38-.49h0c.27-.07,.54,.1,.61,.37,.01,.04,.02,.08,.02,.12v.83c0,.28-.23,.5-.5,.5-.03,0-.07,0-.1,0Z"/>
<path id="Path_129012" class="icon" d="M25.02,24.93h0c-.24-.05-.41-.25-.41-.5v-.83c0-.23,.16-.43,.38-.49h0c.27-.07,.54,.1,.61,.37,.01,.04,.02,.08,.02,.12v.83c0,.28-.23,.5-.5,.5-.03,0-.07,0-.1,0Z"/>
<path id="Path_129013" class="icon" d="M25.02,31.2h0c-.24-.05-.41-.25-.41-.5v-.83c0-.23,.16-.43,.38-.49h0c.27-.07,.54,.1,.61,.37,.01,.04,.02,.08,.02,.12v.83c0,.28-.23,.5-.5,.5-.03,0-.07,0-.1,0Z"/>
<path id="Path_129014" class="icon" d="M25.02,34.39h0c-.24-.05-.41-.25-.41-.5v-.83c0-.23,.16-.43,.38-.49h0c.27-.07,.54,.1,.61,.37,.01,.04,.02,.08,.02,.12v.83c0,.28-.23,.5-.5,.5-.03,0-.07,0-.1,0Z"/>
<path id="Path_129015" class="icon" d="M25.02,37.58h0c-.24-.05-.41-.25-.41-.5v-.83c0-.23,.16-.43,.38-.49h0c.27-.07,.54,.1,.61,.37,.01,.04,.02,.08,.02,.12v.83c0,.28-.23,.5-.5,.5-.03,0-.07,0-.1,0Z"/>
<path id="Path_129016" class="icon" d="M25.02,40.77h0c-.24-.05-.41-.25-.41-.5v-.83c0-.23,.16-.43,.38-.49h0c.27-.07,.54,.1,.61,.37,.01,.04,.02,.08,.02,.12v.83c0,.28-.23,.5-.5,.5-.03,0-.07,0-.1,0Z"/>
<path id="Path_129017" class="icon" d="M25.02,28.12h0c-.24-.05-.41-.25-.41-.5v-.83c0-.23,.16-.43,.38-.49h0c.27-.07,.54,.1,.61,.37,.01,.04,.02,.08,.02,.12v.83c0,.28-.23,.5-.5,.5-.03,0-.07,0-.1,0Z"/>
<path class="icon" d="M40.86,27.45v-3.67c0-.08,.07-.15,.15-.15h3.66c.08,0,.15,.07,.15,.15v5.76s-.02,.08-.02,.12l.68,.38c.06-.16,.1-.32,.1-.5v-5.76c0-.5-.41-.9-.9-.9h-3.67c-.5,0-.9,.41-.9,.9v3.25l.76,.42Z"/>
<path class="icon" d="M12,29.66s-.02-.08-.02-.12v-5.76h0c0-.08,.07-.15,.15-.15h3.66c.08,0,.15,.07,.15,.15v3.68l.76-.43v-3.25c0-.5-.41-.9-.9-.9h-3.67c-.5,0-.9,.4-.9,.9v5.76c0,.18,.04,.35,.1,.5l.68-.38Z"/>
<path class="icon" d="M22.89,33.63L1.54,39.88c-.11,.03-.23,.03-.34,0-.32-.09-.51-.43-.42-.75l.31-1.08c.49-1.74,1.65-3.21,3.23-4.09l18.58-10.4v-.87L3.94,33.3c-1.75,.98-3.05,2.61-3.59,4.55l-.31,1.08c-.03,.12-.05,.24-.05,.36,0,.76,.6,1.37,1.36,1.38,.13,0,.26-.02,.39-.06l21.14-6.19v-.79Z"/>
<path class="icon" d="M25.43,54.1l-.15-.42-10.38,3.78s-.03,0-.04,0c-.08,0-.15-.06-.16-.14l-.02-.47c-.06-1.2,.49-2.35,1.48-3.04l7.51-5.3-.16-.81-7.78,5.49c-1.2,.84-1.88,2.23-1.8,3.69l.02,.47c.02,.48,.42,.86,.9,.86,.11,0,.21-.02,.31-.06l10.37-3.78-.1-.29Z"/>
<path class="icon" d="M29.81,.69C29.47,.25,28.95,0,28.4,0c-.55,0-1.07,.25-1.41,.69-2.9,3.77-4.47,8.39-4.48,13.15v27.01c0,5,1.02,9.95,3.02,14.54l.91,2.11c.19,.44,.52,.78,.91,1.01v-.02l-.27-1.4-.86-2c-1.95-4.49-2.96-9.34-2.95-14.23V13.84c0-4.59,1.53-9.05,4.32-12.69,.19-.25,.49-.4,.81-.4,.32,0,.61,.15,.8,.4,2.8,3.64,4.32,8.1,4.32,12.69v27.12c0,4.83-.97,9.61-2.87,14.05l-.82,1.91v1.23l-.13,.23c.31-.23,.57-.53,.72-.9l.93-2.18c1.94-4.53,2.94-9.42,2.94-14.35V13.84c0-4.76-1.58-9.38-4.48-13.15Z"/>
</svg>