<svg viewBox="0 0 21.5 21.5">
<path id="Path_129661" class="icon" d="M4.75,2.12H2.08c-.73,0-1.33,.59-1.33,1.33v15.97c0,.74,.6,1.33,1.33,1.33H19.42c.74,0,1.33-.6,1.33-1.33h0V3.45c0-.73-.6-1.33-1.33-1.33H10.08"/>
<path id="Path_129662" class="icon" d="M10.18,10.31l-2.73-2.05-2.73,2.05V1.43c0-.38,.3-.68,.68-.68h4.1c.38,0,.68,.31,.68,.68V10.31Z"/>
<line id="Line_88727" class="icon" x1="4.71" y1="16.33" x2="13.83" y2="16.33"/>
<line id="Line_88728" class="icon" x1="4.71" y1="12.99" x2="15.62" y2="12.99"/>
<line id="Line_88729" class="icon" x1="16.35" y1="8.54" x2="12.93" y2="8.54"/>
</svg>