<svg xmlns="http://www.w3.org/2000/svg" width="24" height="24" viewBox="0 0 24 24">
  <g id="Group_173316" data-name="Group 173316" transform="translate(-328 -783)">
    <rect id="Rectangle_148490" data-name="Rectangle 148490" width="24" height="24" transform="translate(328 783)" fill="#fff" opacity="0"/>
    <g id="streamline-icon-bookmarks-document_48x48" data-name="streamline-icon-bookmarks-document@48x48" transform="translate(328.5 783.502)">
      <path id="Path_129661" data-name="Path 129661" d="M5.5,4.5H2.833A1.332,1.332,0,0,0,1.5,5.829V21.8a1.332,1.332,0,0,0,1.333,1.331H20.167A1.332,1.332,0,0,0,21.5,21.8V5.829A1.332,1.332,0,0,0,20.167,4.5H10.833" transform="translate(0 -1.634)" fill="none" stroke="#74889f" stroke-linecap="round" stroke-linejoin="round" stroke-width="1.5"/>
      <path id="Path_129662" data-name="Path 129662" d="M15.965,11.062,13.233,9.014,10.5,11.063V2.182a.683.683,0,0,1,.683-.684h4.1a.683.683,0,0,1,.683.683Z" transform="translate(-5.036)" fill="none" stroke="#74889f" stroke-linecap="round" stroke-linejoin="round" stroke-width="1.5"/>
      <line id="Line_88727" data-name="Line 88727" x2="9.12" transform="translate(5.862 17.073)" fill="none" stroke="#74889f" stroke-linecap="round" stroke-linejoin="round" stroke-width="1.5"/>
      <line id="Line_88728" data-name="Line 88728" x2="10.905" transform="translate(6.06 13.735)" fill="none" stroke="#74889f" stroke-linecap="round" stroke-linejoin="round" stroke-width="1.5"/>
      <line id="Line_88729" data-name="Line 88729" x1="3.42" transform="translate(13.677 9.285)" fill="none" stroke="#74889f" stroke-linecap="round" stroke-linejoin="round" stroke-width="1.5"/>
    </g>
  </g>
</svg>
