<svg viewBox="0 0 21.5 21.46">
<path id="Path_85" class="icon" d="M2.75,3.42c0,1.47,1.19,2.67,2.67,2.67s2.67-1.19,2.67-2.67S6.89,.75,5.42,.75h0c-1.47,0-2.67,1.19-2.67,2.66h0Z"/>
<path id="Path_86" class="icon" d="M10.08,11.91c.02-2.6-2.06-4.72-4.66-4.74h0c-2.6,.02-4.69,2.14-4.67,4.73h0v2.04H2.75l.67,6.77h4l.67-6.77h2v-2.03Z"/>
<path id="Path_87" class="icon" d="M5.42,7.34v5.42"/>
<path id="Path_88" class="icon" d="M13.42,3.42c0,1.47,1.19,2.67,2.67,2.67s2.67-1.19,2.67-2.67-1.19-2.67-2.67-2.67h0c-1.47,0-2.67,1.19-2.67,2.66h0Z"/>
<path id="Path_89" class="icon" d="M12.08,13.94h1.33l.67,6.77h4l.67-6.77h2v-2.03c0-2.12-1.39-3.98-3.42-4.57-2.03-.57-4.18,.31-5.25,2.12"/>
<path id="Path_90" class="icon" d="M16.08,7.34v5.42"/>
</svg>