<svg viewBox="0 0 27.98 32.39">
<path id="Path_128819" class="icon" d="M6.59,17.57l5.17-8.27c.41-.66,1.13-1.07,1.91-1.06h0c1.25-.05,2.3,.93,2.34,2.18v5.99h8.94c1.29,.04,2.31,1.12,2.26,2.42,0,.09-.01,.18-.02,.27l-1.63,10.51c-.14,1.16-1.13,2.03-2.3,2.04H9.91c-.64,0-1.26-.14-1.83-.43l-1.47-.73"/>
<line id="Line_33" class="icon" x1="6.59" y1="17.57" x2="6.59" y2="30.42"/>
<path id="Path_128820" class="icon" d="M1.77,17.57H6.59v12.85H1.77c-.56,0-1.02-.46-1.02-1.02v-10.81c0-.56,.46-1.02,1.02-1.02Z"/>
<path id="Path_128821" class="cls-4" d="M4.19,5.55l3.2,2.7"/>
<path id="Path_128824" class="icon" d="M22.44,5.37l-3.31,2.57"/>
<path id="Path_128822" class="icon" d="M9.14,.98l1.69,3.83"/>
<path id="Path_128823" class="icon" d="M16.41,.75l-1.03,4.06"/>
</svg>