<svg viewBox="0 0 21.5 21.5">
<path id="Path_129656" class="icon" d="M19.32,.75H2.18c-.82,.03-1.46,.72-1.43,1.54V19.21c-.03,.82,.61,1.51,1.43,1.54H19.32c.82-.03,1.46-.72,1.43-1.54V2.29c.03-.82-.61-1.51-1.43-1.54Z"/>
<path id="Path_129657" class="icon" d="M.75,5.36H20.75"/>
<path id="Path_129658" class="icon" d="M16.2,12.58c.19,.28,.19,.65,0,.93-.71,1.03-2.65,3.42-5.45,3.42s-4.74-2.38-5.45-3.42c-.19-.28-.19-.65,0-.93,.71-1.03,2.65-3.42,5.45-3.42s4.74,2.39,5.45,3.42Z"/>
<path id="Path_129659" class="cls-2" d="M10.76,13.45c-.21-.01-.38-.19-.37-.41,.01-.2,.17-.36,.37-.37"/>
<path id="Path_129660" class="cls-2" d="M10.75,13.45c.21-.01,.38-.19,.37-.41-.01-.2-.17-.36-.37-.37"/>
</svg>