<svg viewBox="0 0 40 40"><circle id="Ellipse_8252" class="icon" cx="20" cy="20" r="20"/><path id="Path_129798" class="icon" d="M20,25.54c-.16,0-.28-.13-.28-.28,0-.16,.13-.28,.28-.28h0"/><path id="Path_129799" class="icon" d="M20,25.54c.16,0,.28-.13,.28-.28,0-.16-.13-.28-.28-.28h0"/><path id="Path_129800" class="icon" d="M20,22.82v-5.64"/><path id="Path_129801" class="icon" d="M21.2,12.44c-.33-.66-1.12-.93-1.79-.61-.26,.13-.48,.34-.61,.61l-7,14.25c-.27,.56-.04,1.23,.51,1.5,.15,.08,.32,.12,.5,.12h14.37c.62,0,1.12-.5,1.12-1.12,0-.17-.04-.34-.11-.49l-6.99-14.25Z"/></svg>