<svg viewBox="0 0 21.51 21.5">
<path id="Path_129671" class="icon" d="M8.34,20.46c-1.33-1.98-2.23-5.59-2.23-9.71s.88-7.73,2.23-9.71"/>
<path id="Path_129672" class="icon" d="M13.19,20.46c1.34-1.98,2.23-5.59,2.23-9.71s-.88-7.73-2.23-9.71"/>
<line id="Line_88743" class="icon" x1=".77" y1="10.75" x2="20.76" y2="10.75"/>
<line id="Line_88744" class="icon" x1="1.91" y1="6.09" x2="19.62" y2="6.09"/>
<line id="Line_88745" class="icon" x1="1.91" y1="15.42" x2="19.62" y2="15.42"/>
<path id="Path_129673" class="icon" d="M20.76,10.75c0,2.16-.7,4.26-2,5.99l1.99,4.01-5.33-1.16c-4.88,2.58-10.93,.71-13.51-4.17C-.67,10.54,1.2,4.49,6.08,1.91c4.88-2.58,10.93-.71,13.51,4.17,.76,1.44,1.16,3.04,1.16,4.67h0Z"/>
</svg>