<svg xmlns="http://www.w3.org/2000/svg" width="68" height="68" viewBox="0 0 68 68">
  <g id="Group_189823" data-name="Group 189823" transform="translate(-6 -6)">
    <path id="Path_130648" data-name="Path 130648" d="M6,40A34,34,0,1,0,40,6,34,34,0,0,0,6,40Z" fill="#d9edff"/>
    <path id="Path_130649" data-name="Path 130649" d="M23.245,24.8A18.583,18.583,0,1,0,41.828,6.218,18.583,18.583,0,0,0,23.245,24.8Z" transform="translate(6.567 0.095)" fill="#fff"/>
    <path id="Path_130650" data-name="Path 130650" d="M23.245,24.8A18.583,18.583,0,1,0,41.828,6.218,18.583,18.583,0,0,0,23.245,24.8Z" transform="translate(6.567 0.095)" fill="none" stroke="#020064" stroke-linecap="round" stroke-linejoin="round" stroke-width="0.6"/>
    <path id="Path_130651" data-name="Path 130651" d="M40.6,37.507a14.076,14.076,0,1,1,0-28.153,13.86,13.86,0,0,1,8.54,2.9l.921-.922a1.3,1.3,0,0,1,2.222.921v3.19a1.3,1.3,0,0,1-1.3,1.3h-3.19a1.3,1.3,0,0,1-.92-2.221l.414-.413a11.307,11.307,0,0,0-6.68-2.155A11.475,11.475,0,1,0,52.08,23.429a1.3,1.3,0,0,1,2.6,0A14.093,14.093,0,0,1,40.6,37.507Z" transform="translate(8.267 1.465)" fill="#b0d9ff" stroke="#020064" stroke-linecap="round" stroke-linejoin="round" stroke-width="0.6"/>
    <path id="Path_130652" data-name="Path 130652" d="M31.952,26.811a1.429,1.429,0,0,1-1.608-1.428,1.662,1.662,0,0,1,.447-1.045c.406-.484.822-.955,1.241-1.424a32.816,32.816,0,0,0,2.5-3.059,2.115,2.115,0,0,0,.453-1.159.7.7,0,0,0-.658-.734c-.539,0-.675.275-.9,1-.189.609-.447,1.443-1.456,1.443a1.466,1.466,0,0,1-1.536-1.534,3.972,3.972,0,0,1,3.983-3.856A3.56,3.56,0,0,1,38.2,18.59c0,1.81-1.484,3.495-2.792,4.982-.115.131-.228.259-.339.386h1.84a1.428,1.428,0,0,1,1.608,1.426A1.4,1.4,0,0,1,37,26.811Z" transform="translate(10.078 3.717)" fill="#b0d9ff" stroke="#020064" stroke-linecap="round" stroke-linejoin="round" stroke-width="0.6"/>
    <path id="Path_130653" data-name="Path 130653" d="M41.931,26.9c-.69,0-1.517-.278-1.517-1.608V24.44H37.205a1.379,1.379,0,0,1-1.487-1.322,1.526,1.526,0,0,1,.259-.862l3.388-6.139a1.948,1.948,0,0,1,1.916-1.1,2.146,2.146,0,0,1,2.17,2.362V21.6a1.422,1.422,0,0,1,0,2.836v.862C43.451,26.623,42.623,26.9,41.931,26.9Zm-1.517-5.314v-1.97l-.953,1.97Z" transform="translate(12.292 3.717)" fill="#b0d9ff" stroke="#020064" stroke-linecap="round" stroke-linejoin="round" stroke-width="0.6"/>
    <path id="Path_130654" data-name="Path 130654" d="M43.422,48.358c0-.948-5.7-1.717-12.741-1.717s-12.741.77-12.741,1.717,5.7,1.717,12.741,1.717S43.422,49.307,43.422,48.358Z" transform="translate(4.834 16.786)" fill="#b0d9ff"/>
    <path id="Path_130655" data-name="Path 130655" d="M9.824,26.291a5.147,5.147,0,0,1,1.6-3.252l2.988-2.889a2.825,2.825,0,0,1,4.224.072c.816.767,1.552,1.609,2.371,2.452l2.3,2.376a2.776,2.776,0,0,1-.072,4.295c-1,.963-1.917,1.927-2.987,2.814a.584.584,0,0,0-.164.751,19.553,19.553,0,0,0,2.528,4.3A29.432,29.432,0,0,0,29.841,44c.6.387,1.308.663,1.9,1.05a.6.6,0,0,0,.831-.136l2.984-2.888a2.772,2.772,0,0,1,4.224.072l4.667,4.828a2.853,2.853,0,0,1-.073,4.295c-.882.927-1.876,1.74-2.721,2.705a5.408,5.408,0,0,1-4.626,1.655,18.567,18.567,0,0,1-7.087-2.27,39.2,39.2,0,0,1-12.9-10.431,36.039,36.039,0,0,1-6.189-10.69A12.793,12.793,0,0,1,9.824,26.291Z" transform="translate(1.659 5.218)" fill="#b0d9ff"/>
    <path id="Path_130656" data-name="Path 130656" d="M37.027,40.283,32.36,35.456a2.771,2.771,0,0,0-4.219-.072l-1.354,1.309,8.858,9.162c.443-.419.889-.834,1.309-1.277a2.853,2.853,0,0,0,.073-4.295Z" transform="translate(8.58 11.739)" fill="#fff"/>
    <path id="Path_130657" data-name="Path 130657" d="M37.027,40.283,32.36,35.456a2.771,2.771,0,0,0-4.219-.072l-1.354,1.309,8.858,9.162c.443-.419.889-.834,1.309-1.277a2.853,2.853,0,0,0,.073-4.295Z" transform="translate(8.58 11.739)" fill="none" stroke="#020064" stroke-width="0.6"/>
    <path id="Path_130658" data-name="Path 130658" d="M9.824,26.291a5.147,5.147,0,0,1,1.6-3.252l2.988-2.889a2.825,2.825,0,0,1,4.224.072c.816.767,1.552,1.609,2.371,2.452l2.3,2.376a2.776,2.776,0,0,1-.072,4.295c-1,.963-1.917,1.927-2.987,2.814a.584.584,0,0,0-.164.751,19.553,19.553,0,0,0,2.528,4.3A29.432,29.432,0,0,0,29.841,44c.6.387,1.308.663,1.9,1.05a.6.6,0,0,0,.831-.136l2.984-2.888a2.772,2.772,0,0,1,4.224.072l4.667,4.828a2.853,2.853,0,0,1-.073,4.295c-.882.927-1.876,1.74-2.721,2.705a5.408,5.408,0,0,1-4.626,1.655,18.567,18.567,0,0,1-7.087-2.27,39.2,39.2,0,0,1-12.9-10.431,36.039,36.039,0,0,1-6.189-10.69A12.793,12.793,0,0,1,9.824,26.291Z" transform="translate(1.659 5.218)" fill="none" stroke="#020064" stroke-linecap="round" stroke-linejoin="round" stroke-width="0.6"/>
    <path id="Path_130659" data-name="Path 130659" d="M12.067,21.46l1.353-1.309a2.825,2.825,0,0,1,4.224.072c.816.767,1.552,1.609,2.371,2.452l2.3,2.376a2.776,2.776,0,0,1-.072,4.295c-.444.431-.872.858-1.306,1.281Z" transform="translate(2.65 5.463)" fill="#fff" stroke="#020064" stroke-width="0.6"/>
  </g>
</svg>
